<svg xmlns="http://www.w3.org/2000/svg" viewBox="0 0 48 48"><defs><style>.cls-1{fill:#fff;}</style></defs><g id="Layer_2" data-name="Layer 2"><g id="Postive"><circle class="cls-1" cx="24" cy="24" r="24"/><rect x="12.59" y="11.16" width="4.39" height="0.71" rx="0.13"/><rect x="12.59" y="12.25" width="4.39" height="0.71" rx="0.13"/><rect x="8.58" y="20.34" width="2.61" height="0.72" rx="0.13"/><rect x="8.58" y="19.24" width="2.61" height="0.72" rx="0.13"/><rect x="8.58" y="21.45" width="2.61" height="0.72" rx="0.13"/><rect x="8.58" y="23.66" width="2.61" height="0.72" rx="0.13"/><rect x="20.3" y="19.23" width="6.69" height="0.72" rx="0.15"/><rect x="20.3" y="18.13" width="6.69" height="0.72" rx="0.15"/><rect x="20.3" y="15.92" width="6.69" height="0.72" rx="0.15"/><rect x="8.58" y="22.55" width="2.61" height="0.72" rx="0.13"/><rect x="20.3" y="17.02" width="6.69" height="0.72" rx="0.15"/><path d="M43.58,19A20.25,20.25,0,0,0,29.05,4.42,20,20,0,0,0,24,3.78a20.29,20.29,0,0,0-8.77,2,22,22,0,0,0-2.54,1.46,21.44,21.44,0,0,0-3,2.47A20.23,20.23,0,0,0,3.78,24c0,.36,0,.71,0,1.06,0,.07,0,.13,0,.2,0,.29,0,.57.07.86,0,0,0,.09,0,.14q0,.45.12.9s0,0,0,.06a20.18,20.18,0,0,0,2.46,6.9c.33.57.68,1.12,1.06,1.65s.76,1,1.17,1.47h0a20.21,20.21,0,0,0,25.41,4.24c.35-.2.7-.42,1-.64h0a20.25,20.25,0,0,0,6.64-7.3h0c.15-.28.29-.56.43-.85,0,0,0,0,0,0,.13-.28.26-.55.38-.84a.69.69,0,0,1,0-.1c.11-.26.21-.53.31-.8l.06-.16c.09-.26.17-.51.25-.77a2,2,0,0,0,.07-.23c.07-.24.14-.48.2-.72s0-.2.07-.3.11-.45.15-.67,0-.26.07-.38.08-.41.11-.61l.06-.48c0-.17.05-.35.07-.52s0-.41,0-.61,0-.28,0-.42c0-.34,0-.68,0-1A20,20,0,0,0,43.58,19ZM19.7,14.62h7.88V31.28H19.7ZM11.9,9.68h5.8V18.9H15.91V31.28h-3.2V17.13H11.9Zm7,10V31.28H16.72V19.71Zm-11-1.78h4V31.28h-4ZM24,42.87A18.9,18.9,0,0,1,7,32.09H29.61a6.1,6.1,0,0,0-.56,2.56,6.21,6.21,0,0,0,4.12,5.84A18.82,18.82,0,0,1,24,42.87Zm11.12-3.63h-.23A4.25,4.25,0,0,1,34,30.83a4,4,0,0,1,.85-.09.41.41,0,1,1,0,.81,3.23,3.23,0,0,0-.69.07,3.45,3.45,0,0,0,.69,6.82,1.85,1.85,0,0,0,1.18-.4,2.67,2.67,0,0,1,1-.47A19.86,19.86,0,0,1,35.12,39.24ZM38,36.65a1.57,1.57,0,0,0-.32,0A1.8,1.8,0,0,0,36.5,37a2.6,2.6,0,0,1-1.62.53,2.5,2.5,0,0,1-2.51-2.5,2.63,2.63,0,0,1,1.51-2.38.41.41,0,0,1,.34.74,1.8,1.8,0,0,0-1,1.64,1.7,1.7,0,0,0,1.7,1.7,1.82,1.82,0,0,0,1.17-.4A2.77,2.77,0,0,1,38.58,36C38.39,36.2,38.19,36.43,38,36.65Z"/></g></g></svg>