<svg xmlns="http://www.w3.org/2000/svg" viewBox="0 0 56 56"><defs><style>.cls-1{fill:none;}</style></defs><g id="Postive"><rect class="cls-1" x="18.89" y="31.9" width="1.22" height="1"/><polygon class="cls-1" points="12.37 38.08 16.81 38.08 16.81 20.94 19.28 20.94 19.28 18.46 13.39 18.46 13.39 18.67 12.39 18.67 12.39 18.46 11.25 18.46 11.25 18.48 12.37 18.48 12.37 38.08"/><path class="cls-1" d="M11.25,19.6H5.65V38.08h5.6Zm-1,8.74a.18.18,0,0,1-.19.18H6.83a.18.18,0,0,1-.18-.18v-.62a.18.18,0,0,1,.18-.19h3.24a.18.18,0,0,1,.19.19Zm0-1.53a.18.18,0,0,1-.19.18H6.83a.18.18,0,0,1-.18-.18v-.62A.18.18,0,0,1,6.83,26h3.24a.18.18,0,0,1,.19.19Zm0-1.53a.18.18,0,0,1-.19.18H6.83a.18.18,0,0,1-.18-.18v-.62a.18.18,0,0,1,.18-.19h3.24a.18.18,0,0,1,.19.19Zm0-1.53a.18.18,0,0,1-.19.18H6.83a.18.18,0,0,1-.18-.18v-.62a.18.18,0,0,1,.18-.19h3.24a.18.18,0,0,1,.19.19Zm0-1.53a.18.18,0,0,1-.19.18H6.83a.18.18,0,0,1-.18-.18v-.63a.18.18,0,0,1,.18-.18h3.24a.18.18,0,0,1,.19.18Z"/><polygon class="cls-1" points="24.13 35.44 25.13 35.44 25.13 34.44 24.13 34.44 22.94 34.44 22.94 35.44 24.13 35.44"/><polygon class="cls-1" points="33.72 36.98 27.57 36.98 27.57 37.48 26.57 37.48 26.57 36.98 25.13 36.98 25.13 37.48 24.13 37.48 24.13 36.98 22.94 36.98 22.94 35.44 22.19 35.44 22.19 34.44 22.94 34.44 22.94 15.71 21.94 15.71 21.94 37.98 33.72 37.98 33.72 36.98"/><polygon class="cls-1" points="18.5 32.9 18.5 31.9 18.89 31.9 18.89 22.91 17.89 22.91 17.89 37.98 21.03 37.98 21.03 36.98 18.89 36.98 18.89 35.47 18.5 35.47 18.5 34.47 18.89 34.47 18.89 32.9 18.5 32.9"/><path class="cls-1" d="M44.69,45.1a2.5,2.5,0,0,1-1.62.55,2.36,2.36,0,0,1-2.36-2.35A2.51,2.51,0,0,1,42.16,41a.56.56,0,0,0,.28-.74.57.57,0,0,0-.75-.28,3.64,3.64,0,0,0-2.1,3.29,3.48,3.48,0,0,0,3.48,3.47A3.57,3.57,0,0,0,45.31,46a2.53,2.53,0,0,1,1.62-.54,3,3,0,0,1,.45,0c.28-.31.55-.63.82-1a3.76,3.76,0,0,0-1.27-.2A3.63,3.63,0,0,0,44.69,45.1Z"/><path class="cls-1" d="M43.09,48a4.76,4.76,0,0,1-1-9.43,4.34,4.34,0,0,1,1-.1.56.56,0,0,0,0-1.12,5.89,5.89,0,1,0,0,11.77h.31a27.55,27.55,0,0,0,2.75-2.31,3.86,3.86,0,0,0-1.44.65A2.48,2.48,0,0,1,43.09,48Z"/><path class="cls-1" d="M35,42.75a8.67,8.67,0,0,1,.77-3.55H4.4A26.08,26.08,0,0,0,40.7,50.83,8.58,8.58,0,0,1,35,42.75Z"/><path d="M55.12,21A28,28,0,0,0,15.87,2.76,27.85,27.85,0,0,0,8.21,8.2,28,28,0,0,0,0,28c0,.49,0,1,0,1.47a2.46,2.46,0,0,1,0,.28c0,.39.06.79.1,1.18,0,.07,0,.14,0,.2.05.42.1.84.17,1.25,0,0,0,0,0,.08A27.8,27.8,0,0,0,3.77,42c.45.78.95,1.54,1.47,2.28s1,1.39,1.62,2h0a28,28,0,0,0,35.19,5.87c.48-.28,1-.58,1.43-.89a28.27,28.27,0,0,0,9.21-10.1h0c.21-.39.41-.79.6-1.18l0-.07c.18-.39.36-.77.52-1.16l.06-.14c.15-.37.3-.74.43-1.12,0-.07.05-.14.08-.22.12-.35.24-.71.35-1.07,0-.1.06-.2.09-.3.1-.34.2-.67.28-1,0-.14.07-.28.1-.42.07-.3.15-.61.21-.92s.06-.36.1-.53l.15-.84c0-.22.05-.44.08-.66s.07-.49.09-.73,0-.56.07-.84,0-.38,0-.57q0-.72,0-1.44A27.92,27.92,0,0,0,55.12,21ZM21.94,15.71h1V34.44h1.19V18.71h1V34.44h1.44v-9h1v9h2v1h-2V37h6.15v1H21.94ZM20.11,34.47v1H18.89V37H21v1H17.89V22.91h1v9h1.22v1H18.89v1.57Zm-8.86-16h1.14V15.23h0v-1h0v-1.5h1v1.5h4v1h-4v1.16h5.68v1H13.39v1.07h5.89v2.48H16.81V38.08H12.37V18.48H11.25ZM5.65,19.6h5.6V38.08H5.65ZM28,54.14A26.16,26.16,0,0,1,4.4,39.2H35.77A8.67,8.67,0,0,0,35,42.75a8.58,8.58,0,0,0,5.7,8.08A26,26,0,0,1,28,54.14Zm15.4-5h-.31a5.89,5.89,0,1,1,0-11.77.56.56,0,0,1,0,1.12,4.34,4.34,0,0,0-1,.1,4.76,4.76,0,0,0,1,9.43,2.48,2.48,0,0,0,1.62-.55,3.86,3.86,0,0,1,1.44-.65A27.55,27.55,0,0,1,43.4,49.1Zm4-3.58a3,3,0,0,0-.45,0,2.53,2.53,0,0,0-1.62.54,3.57,3.57,0,0,1-2.24.74,3.48,3.48,0,0,1-3.48-3.47A3.64,3.64,0,0,1,41.69,40a.57.57,0,0,1,.75.28.56.56,0,0,1-.28.74,2.51,2.51,0,0,0-1.45,2.27,2.36,2.36,0,0,0,2.36,2.35,2.5,2.5,0,0,0,1.62-.55,3.63,3.63,0,0,1,2.24-.73,3.76,3.76,0,0,1,1.27.2C47.93,44.89,47.66,45.21,47.38,45.52Z"/><rect x="25.13" y="35.44" width="1.44" height="1.54"/><rect x="22.94" y="35.44" width="1.19" height="1.54"/><path d="M10.07,27.53H6.83a.18.18,0,0,0-.18.19v.62a.18.18,0,0,0,.18.18h3.24a.18.18,0,0,0,.19-.18v-.62A.18.18,0,0,0,10.07,27.53Z"/><path d="M10.07,26H6.83a.18.18,0,0,0-.18.19v.62a.18.18,0,0,0,.18.18h3.24a.18.18,0,0,0,.19-.18v-.62A.18.18,0,0,0,10.07,26Z"/><path d="M10.07,24.47H6.83a.18.18,0,0,0-.18.19v.62a.18.18,0,0,0,.18.18h3.24a.18.18,0,0,0,.19-.18v-.62A.18.18,0,0,0,10.07,24.47Z"/><path d="M10.07,22.94H6.83a.18.18,0,0,0-.18.19v.62a.18.18,0,0,0,.18.18h3.24a.18.18,0,0,0,.19-.18v-.62A.18.18,0,0,0,10.07,22.94Z"/><path d="M10.07,21.41H6.83a.18.18,0,0,0-.18.18v.63a.18.18,0,0,0,.18.18h3.24a.18.18,0,0,0,.19-.18v-.63A.18.18,0,0,0,10.07,21.41Z"/></g></svg>