<svg xmlns="http://www.w3.org/2000/svg" viewBox="0 0 48 48"><defs><style>.cls-1{fill:#fff;}</style></defs><g id="Layer_2" data-name="Layer 2"><g id="Postive"><circle class="cls-1" cx="24" cy="24" r="24"/><path d="M40.69,35.41c.1-.14.19-.28.28-.42l.19-.29.26-.43L41.6,34l.24-.42c.09-.19.19-.37.28-.55s.17-.35.25-.53l.18-.39c.05-.14.11-.27.17-.41s.11-.28.17-.43l.14-.38c.09-.25.18-.51.26-.77l.09-.3c.06-.18.11-.37.16-.57l.09-.34c0-.19.09-.38.13-.57s.05-.21.07-.32c.05-.29.11-.58.15-.87A.68.68,0,0,0,44,27c0-.26.07-.52.1-.77l0-.3c0-.22,0-.44,0-.67s0-.19,0-.28c0-.31,0-.63,0-.94A20.23,20.23,0,0,0,38.3,9.7a21.44,21.44,0,0,0-3-2.47,22,22,0,0,0-2.54-1.46,20.29,20.29,0,0,0-8.77-2A20,20,0,0,0,19,4.42,20.25,20.25,0,0,0,4.42,19,20,20,0,0,0,3.78,24c0,.31,0,.63,0,.94,0,.09,0,.19,0,.28s0,.45.05.67l0,.29c0,.27.06.53.1.8,0,0,0,.08,0,.12q.06.43.15.87c0,.1,0,.21.07.31s.08.39.13.58l.09.33c0,.21.11.41.17.61s0,.17.07.26l.27.78c0,.12.09.24.13.35s.12.32.19.47l.15.38.21.45.18.39.33.65.22.38.21.37.23.39.23.34.24.38h0a20.22,20.22,0,0,0,33.4,0Zm-19.56-7a.4.4,0,1,0,0-.8V22.37a.41.41,0,1,0,0-.81V16.32a.41.41,0,1,0,0-.81V10.26a.41.41,0,1,0,0-.81V8a.2.2,0,0,1,.2-.2h5.41a.2.2,0,0,1,.2.2V9.45H24a.41.41,0,0,0,0,.81h2.91v1.2H25a.41.41,0,0,0,0,.81h1.94v1.22H26a.4.4,0,1,0,0,.8h1v1.22H24a.41.41,0,0,0,0,.81h2.91v1.2H25a.41.41,0,0,0,0,.81h1.94v1.21H26a.41.41,0,1,0,0,.81h1v1.21H24a.41.41,0,0,0,0,.81h2.91v1.2H25a.41.41,0,0,0,0,.81h1.94v1.21H26a.41.41,0,1,0,0,.81h1v1.22H24a.4.4,0,1,0,0,.8h2.91v1.2H25a.41.41,0,0,0-.4.41.4.4,0,0,0,.4.4h1.94v1.22H26a.4.4,0,0,0-.41.4.41.41,0,0,0,.41.41h1v1.62a5.47,5.47,0,0,0-3-.78,5.44,5.44,0,0,0-2.84.71ZM24,42.87A18.87,18.87,0,0,1,8.83,35.21a4.11,4.11,0,0,1,2.23-.57,4.46,4.46,0,0,1,2.85,1,5.78,5.78,0,0,0,3.61,1.19,5.77,5.77,0,0,0,3.6-1.19,4.46,4.46,0,0,1,2.85-1,4.51,4.51,0,0,1,2.86,1,6,6,0,0,0,7.2,0,4.51,4.51,0,0,1,2.86-1,4.17,4.17,0,0,1,2.26.59A18.85,18.85,0,0,1,24,42.87Z"/><path d="M24,44.22a20.19,20.19,0,0,0,16.69-8.81h0c.1-.14.19-.28.28-.42l.19-.29.26-.43L41.6,34l.24-.42c.09-.19.19-.37.28-.55s.17-.35.25-.53l.18-.39c.05-.14.11-.27.17-.41s.11-.28.17-.43l.14-.38c.09-.25.18-.51.26-.77l.09-.3c.06-.18.11-.37.16-.57l.09-.34c0-.19.09-.38.13-.57s.05-.21.07-.32c.05-.29.11-.58.15-.87A.68.68,0,0,0,44,27c0-.26.07-.52.1-.77l0-.3c0-.22,0-.44,0-.67s0-.19,0-.28c0-.31,0-.63,0-.94A20.23,20.23,0,0,0,38.3,9.7a21.44,21.44,0,0,0-3-2.47,22,22,0,0,0-2.54-1.46,20.29,20.29,0,0,0-8.77-2A20,20,0,0,0,19,4.42,20.25,20.25,0,0,0,4.42,19,20,20,0,0,0,3.78,24c0,.31,0,.63,0,.94,0,.09,0,.19,0,.28s0,.45.05.67l0,.29c0,.27.06.53.1.8,0,0,0,.08,0,.12q.06.43.15.87c0,.1,0,.21.07.31s.08.39.13.58l.09.33c0,.21.11.41.17.61s0,.17.07.26l.27.78c0,.12.09.24.13.35s.12.32.19.47l.15.38.21.45.18.39.33.65.22.38.21.37.23.39.23.34.24.38h0A20.21,20.21,0,0,0,24,44.22"/><path class="cls-1" d="M21.13,28.42a.4.4,0,1,0,0-.8V22.37a.41.41,0,1,0,0-.81V16.32a.41.41,0,1,0,0-.81V10.26a.41.41,0,1,0,0-.81V8a.2.2,0,0,1,.2-.2h5.41a.2.2,0,0,1,.2.2V9.45H24a.41.41,0,0,0,0,.81h2.91v1.2H25a.41.41,0,0,0,0,.81h1.94v1.22H26a.4.4,0,1,0,0,.8h1v1.22H24a.41.41,0,0,0,0,.81h2.91v1.2H25a.41.41,0,0,0,0,.81h1.94v1.21H26a.41.41,0,1,0,0,.81h1v1.21H24a.41.41,0,0,0,0,.81h2.91v1.2H25a.41.41,0,0,0,0,.81h1.94v1.21H26a.41.41,0,1,0,0,.81h1v1.22H24a.4.4,0,1,0,0,.8h2.91v1.2H25a.41.41,0,0,0-.4.41.4.4,0,0,0,.4.4h1.94v1.22H26a.4.4,0,0,0-.41.4.41.41,0,0,0,.41.41h1v1.62a5.47,5.47,0,0,0-3-.78,5.44,5.44,0,0,0-2.84.71Z"/><path class="cls-1" d="M24,42.87A18.87,18.87,0,0,1,8.83,35.21a4.11,4.11,0,0,1,2.23-.57,4.46,4.46,0,0,1,2.85,1,5.78,5.78,0,0,0,3.61,1.19,5.77,5.77,0,0,0,3.6-1.19,4.46,4.46,0,0,1,2.85-1,4.51,4.51,0,0,1,2.86,1,6,6,0,0,0,7.2,0,4.51,4.51,0,0,1,2.86-1,4.17,4.17,0,0,1,2.26.59A18.85,18.85,0,0,1,24,42.87Z"/></g></g></svg>