<svg xmlns="http://www.w3.org/2000/svg" viewBox="0 0 48 48"><defs><style>.cls-1{fill:#fff;}</style></defs><g id="Layer_2" data-name="Layer 2"><g id="Postive"><circle class="cls-1" cx="24" cy="24" r="24"/><path d="M21.09,23.11a.41.41,0,0,0,.3.14.39.39,0,0,0,.27-.1.4.4,0,0,0,0-.57A2.91,2.91,0,0,1,21,20.66c0-.64.83-2.72,2.67-5.93a.41.41,0,0,0-.15-.55.4.4,0,0,0-.55.15c-1.74,3-2.78,5.39-2.78,6.33A3.66,3.66,0,0,0,21.09,23.11Z"/><path d="M43.58,19A20.2,20.2,0,0,0,38.3,9.7a21.44,21.44,0,0,0-3-2.47,22,22,0,0,0-2.54-1.46,20.32,20.32,0,0,0-17.54,0,22,22,0,0,0-2.54,1.46,21.44,21.44,0,0,0-3,2.47A20.22,20.22,0,1,0,43.58,19ZM39,31.27H30.26A1.24,1.24,0,0,0,29,32.49h0a1.23,1.23,0,0,0,1.25,1.21h4.65a1.22,1.22,0,1,1,0,2.43H14a1.22,1.22,0,1,1,0-2.43h6.23a1.23,1.23,0,0,0,1.25-1.21h0a1.24,1.24,0,0,0-1.25-1.22H9.11a1.22,1.22,0,1,1,0-2.43h8.62a1.22,1.22,0,1,0,0-2.43h-2.5a1.22,1.22,0,1,1,0-2.43h3.49a6.37,6.37,0,0,0,10.57,0h7.65a1.22,1.22,0,1,1,0,2.43H35.27a1.22,1.22,0,1,0,0,2.43H39a1.22,1.22,0,1,1,0,2.43ZM29,20.66a4.95,4.95,0,0,1-9.89,0c0-1.83,2.58-6.49,4.94-10.16C26.36,14.17,29,18.83,29,20.66Z"/></g></g></svg>