<svg xmlns="http://www.w3.org/2000/svg" viewBox="0 0 150 150" width="55.6" height="55.6"><title>access</title><g id="Layer_2" data-name="Layer 2"><g id="Postive"><path d="M147.64,56.26A75.07,75.07,0,1,0,150,75,74.91,74.91,0,0,0,147.64,56.26ZM127.19,82.68a1,1,0,0,1,.44.79V104a1,1,0,0,1-1,1H115.51ZM109.86,105h-9.08l11.77-22.5h9.09ZM42.17,45H48L36.22,67.5H27.14L38.91,45Zm-9.09-2.44v-4.3a9.34,9.34,0,0,0,9.09,0v4.3ZM53.64,45h9.09L51,67.5H41.87ZM33.08,69.94h9.09V80.06H33.08ZM42.17,82.5H48L36.22,105H27.14L38.91,82.5Zm11.47,0h9.09L51,105H41.87Zm14.73,0h9.08L65.68,105H56.59Zm2.95-15L83.1,45h9.08L80.41,67.5ZM97.82,45h9.09L95.14,67.5H86.05Zm0,37.5h9.09L95.14,105H86.05Zm20.26-2.44H109V69.94h9.09ZM109,67.5h-8.21L112.55,45h9.09L109.86,67.5Zm4.54-31.06A6.44,6.44,0,1,1,120,30,6.44,6.44,0,0,1,113.53,36.44Zm4.55,1.82v4.3H109v-4.3a9.34,9.34,0,0,0,9.09,0ZM65.68,67.5H56.59L68.37,45h9.08ZM37.63,23.56A6.44,6.44,0,1,1,31.19,30,6.44,6.44,0,0,1,37.63,23.56ZM33.08,45h.19L22.37,65.82V46a1,1,0,0,1,1-1ZM22.37,83.47a1,1,0,0,1,1-1h9.92l-10.9,20.82Zm1.38,36.35a2.5,2.5,0,0,1,2.5-2.5h6.83v-9.88h9.09v9.88H49a2.5,2.5,0,0,1,0,5H26.25A2.5,2.5,0,0,1,23.75,119.82ZM83.1,82.5h9.08L80.41,105H71.32Zm16.55,37.32a2.5,2.5,0,0,1,2.5-2.5H109v-9.88h9.09v9.88h6.83a2.5,2.5,0,0,1,0,5H102.15A2.5,2.5,0,0,1,99.65,119.82Zm28-53.29a1,1,0,0,1-1,1H115.51l11.68-22.32a1,1,0,0,1,.44.79Z"/></g></g></svg>