<svg xmlns="http://www.w3.org/2000/svg" viewBox="0 0 150 150" width="55.6" height="55.6"><title>oil_spills</title><g id="Layer_2" data-name="Layer 2"><g id="Postive"><path d="M67.39,31.42H82.86a1.51,1.51,0,0,0,1.3-.75,1.49,1.49,0,0,0,0-1.5l-7.74-13.4a1.49,1.49,0,0,0-2.59,0l-7.74,13.4a1.49,1.49,0,0,0,0,1.5A1.51,1.51,0,0,0,67.39,31.42Zm7.74-11.9,5.13,8.9H70Z"/><path d="M60.13,49.44h30a1.5,1.5,0,0,0,0-3h-30a1.5,1.5,0,1,0,0,3Z"/><path d="M149.91,71.51c0-.36,0-.71-.06-1.06,0-.83-.11-1.65-.19-2.47,0-.37-.07-.75-.11-1.11-.1-.93-.21-1.84-.35-2.76,0-.21,0-.44-.09-.66-.17-1.1-.37-2.2-.58-3.29-.07-.33-.15-.66-.22-1-.17-.78-.34-1.55-.53-2.31-.1-.4-.2-.79-.31-1.18-.19-.74-.4-1.48-.62-2.21-.11-.35-.2-.7-.31-1q-.48-1.51-1-3c-.13-.35-.26-.7-.4-1-.25-.67-.51-1.34-.79-2-.18-.44-.37-.87-.55-1.3s-.51-1.15-.78-1.71-.4-.88-.62-1.31c-.31-.65-.64-1.28-1-1.91s-.72-1.34-1.09-2c-.29-.5-.57-1-.86-1.49s-.61-1-.91-1.48-.51-.8-.77-1.19-.67-1-1-1.52c-.22-.33-.46-.66-.69-1-.83-1.15-1.68-2.28-2.56-3.38l-.24-.3c-.46-.57-.93-1.12-1.4-1.67l-.59-.68c-.49-.55-1-1.1-1.48-1.63l-.46-.49q-2.64-2.76-5.53-5.25l-.22-.18c-.65-.56-1.31-1.1-2-1.63l-.24-.19a76.66,76.66,0,0,0-9-6.09l-.07,0a74.57,74.57,0,0,0-10-4.81h0A74.73,74.73,0,0,0,78.15.08h0C77.11,0,76.06,0,75,0s-2.11,0-3.15.08h0A74.73,74.73,0,0,0,47.71,5.14h0a74.57,74.57,0,0,0-10,4.81l-.07,0a76.66,76.66,0,0,0-9,6.09l-.24.19c-.66.53-1.32,1.07-2,1.63l-.22.18q-2.89,2.49-5.53,5.25l-.46.49c-.5.53-1,1.08-1.48,1.63l-.59.68c-.47.55-.94,1.1-1.4,1.67l-.24.3c-.88,1.1-1.73,2.23-2.56,3.39-.23.32-.47.65-.69,1q-.53.76-1,1.53c-.26.39-.51.79-.77,1.19s-.61,1-.91,1.48-.57,1-.86,1.49c-.37.66-.73,1.33-1.09,2s-.66,1.26-1,1.91c-.22.43-.42.87-.62,1.31s-.53,1.13-.78,1.71-.37.86-.55,1.3c-.28.67-.54,1.34-.79,2-.14.34-.27.69-.4,1q-.54,1.49-1,3c-.11.34-.2.69-.31,1-.22.73-.43,1.47-.62,2.21-.11.39-.21.78-.31,1.18-.19.76-.36,1.53-.53,2.31-.07.33-.15.66-.22,1-.21,1.09-.41,2.19-.58,3.29,0,.22-.06.45-.09.66C.66,65,.55,65.94.45,66.87c0,.36-.08.74-.11,1.11C.26,68.8.2,69.62.15,70.45c0,.35,0,.7-.06,1.06C0,72.67,0,73.83,0,75a75,75,0,1,0,150,0C150,73.83,150,72.67,149.91,71.51ZM130.73,102H98.21a4.58,4.58,0,0,0-4.64,4.51h0A4.58,4.58,0,0,0,98.21,111h17.27a4.51,4.51,0,1,1,0,9H38a4.51,4.51,0,1,1,0-9h23.1a4.58,4.58,0,0,0,4.64-4.51h0A4.58,4.58,0,0,0,61.05,102H19.77a4.51,4.51,0,1,1,0-9h32a4.51,4.51,0,1,0,0-9h-9.3a4.51,4.51,0,1,1,0-9H64.69c-1.4,3.1-2.4,6-2.4,8.1A12.84,12.84,0,1,0,88,83c0-2.06-1-5-2.4-8.1H123a4.51,4.51,0,1,1,0,9h-6.19a4.51,4.51,0,1,0,0,9h13.94a4.51,4.51,0,1,1,0,9ZM77.63,70.42l.05.09c.4.73.81,1.46,1.19,2.19l0,0c.4.74.78,1.48,1.14,2.2h0C81.73,78.35,83,81.41,83,83a7.84,7.84,0,1,1-15.67,0c0-1.63,1.23-4.69,2.93-8.1.36-.72.74-1.46,1.14-2.2l0,0c.38-.73.79-1.47,1.19-2.2l.06-.09c.4-.71.8-1.42,1.21-2.12l.08-.13c.4-.7.81-1.38,1.21-2l1.21,2,.07.13C76.82,69,77.23,69.71,77.63,70.42ZM75,5a69.52,69.52,0,0,1,27.29,5.54v36a2.82,2.82,0,0,0,2.82,2.82,2.82,2.82,0,0,1,2.82,2.82V57.1a2.82,2.82,0,0,1-2.82,2.82H44.89a2.82,2.82,0,0,1-2.82-2.82V52.19a2.82,2.82,0,0,1,2.82-2.82,2.82,2.82,0,0,0,2.82-2.82v-36A69.52,69.52,0,0,1,75,5Z"/></g></g></svg>