<svg xmlns="http://www.w3.org/2000/svg" viewBox="0 0 150 150" width="55.6" height="55.6"><title>coastal_development</title><g id="Layer_2" data-name="Layer 2"><g id="Postive"><rect x="32.68" y="27.36" width="16.29" height="2.64" rx="0.5"/><rect x="32.68" y="31.43" width="16.29" height="2.64" rx="0.5"/><rect x="17.79" y="61.44" width="9.68" height="2.66" rx="0.5"/><rect x="17.79" y="57.34" width="9.68" height="2.66" rx="0.5"/><rect x="17.79" y="65.54" width="9.68" height="2.66" rx="0.5"/><rect x="17.79" y="73.73" width="9.68" height="2.66" rx="0.5"/><rect x="61.27" y="57.32" width="24.8" height="2.66" rx="0.57"/><rect x="61.27" y="53.22" width="24.8" height="2.66" rx="0.57"/><rect x="61.27" y="45.02" width="24.8" height="2.66" rx="0.57"/><rect x="17.79" y="69.63" width="9.68" height="2.66" rx="0.5"/><rect x="61.27" y="49.12" width="24.8" height="2.66" rx="0.57"/><path d="M147.64,56.26A75,75,0,0,0,0,75c0,1.32,0,2.63.1,3.94l.06.73c.06,1.07.14,2.13.25,3.18,0,.18.05.35.07.53.12,1.13.27,2.24.44,3.35,0,.07,0,.14,0,.22a74.4,74.4,0,0,0,9.12,25.59q1.83,3.15,3.95,6.12t4.33,5.47h0a74.94,74.94,0,0,0,94.24,15.74c1.31-.76,2.6-1.55,3.85-2.39h0a75.3,75.3,0,0,0,24.65-27.06l0,0c.56-1,1.09-2.1,1.6-3.17l.09-.19c.48-1,1-2.05,1.38-3.09.06-.13.1-.26.15-.38.41-1,.8-2,1.17-3,.07-.19.13-.39.2-.58.33-1,.66-1.9,1-2.87.08-.27.15-.55.23-.83.27-.89.53-1.78.76-2.69.09-.37.17-.74.26-1.11.19-.83.39-1.65.56-2.49.1-.47.17-.94.26-1.41.13-.75.28-1.49.39-2.25.09-.59.16-1.19.23-1.78s.18-1.29.25-1.95.11-1.49.17-2.25c0-.51.09-1,.11-1.53.07-1.27.1-2.55.1-3.84A75.18,75.18,0,0,0,147.64,56.26ZM59.06,40.2H88.29V102H59.06ZM30.12,21.9H51.63V56.09H45V102H33.13V49.5h-3ZM56.06,59.09V102H48V59.09ZM15.13,52.5h15V102h-15ZM75,145a70.07,70.07,0,0,1-63.23-40h84a22.72,22.72,0,0,0-2.07,9.5A23,23,0,0,0,109,136.15,69.52,69.52,0,0,1,75,145Zm41.24-13.49c-.27,0-.54,0-.84,0a15.77,15.77,0,1,1,0-31.54,1.5,1.5,0,0,1,0,3,13,13,0,0,0-2.57.26,12.77,12.77,0,0,0,2.57,25.28,6.72,6.72,0,0,0,4.35-1.47,10.16,10.16,0,0,1,3.84-1.76A70.16,70.16,0,0,1,116.24,131.51Zm10.66-9.6a8.51,8.51,0,0,0-1.2-.08,6.74,6.74,0,0,0-4.35,1.47,9.59,9.59,0,0,1-6,2A9.31,9.31,0,0,1,106,116a9.73,9.73,0,0,1,5.62-8.8,1.5,1.5,0,0,1,1.26,2.73A6.7,6.7,0,0,0,109,116a6.3,6.3,0,0,0,6.3,6.3,6.74,6.74,0,0,0,4.35-1.47,10.26,10.26,0,0,1,9.39-1.41C128.38,120.25,127.65,121.09,126.9,121.91Z"/></g></g></svg>