<svg xmlns="http://www.w3.org/2000/svg" viewBox="0 0 48 48"><defs><style>.cls-1{fill:#fff;}</style></defs><g id="Layer_2" data-name="Layer 2"><g id="Postive"><circle class="cls-1" cx="24" cy="24" r="24"/><path d="M43.53,18.75a.66.66,0,0,0-.06-.2,20.26,20.26,0,0,0-3.61-7.09.68.68,0,0,0-.17-.21,20.16,20.16,0,0,0-3.95-3.71h0A19.59,19.59,0,0,0,33.18,6l-.09,0-.61-.3-.14-.06c-.6-.27-1.21-.51-1.84-.73l-.3-.1-.48-.14-.4-.12-.44-.11-.51-.12L28,4.18c-.28-.06-.57-.11-.85-.15L26.85,4l-.62-.08-.34,0-.65-.05-.3,0-.94,0h0l-.93,0h-.21l-.9.07h-.11l-.8.11-.22,0c-.29,0-.57.09-.85.15l-.18,0-.71.16-.22.06c-.27.07-.54.14-.8.23l-.24.07L17.21,5,17,5l-.74.29L16,5.45a5.05,5.05,0,0,0-.53.24l-.3.14-.62.31-.32.18-.44.25-.48.29-.39.25-.36.24-.33.24L11.62,8l-.26.2L11,8.53l-.18.16-.67.61L10,9.47c-.41.39-.79.8-1.17,1.22a1.34,1.34,0,0,0-.11.14c-.38.44-.74.89-1.08,1.36l-.08.12c-.23.32-.45.64-.65,1h0a20.21,20.21,0,1,0,36.67,5.47ZM40.79,32.61,40,32.2a3.45,3.45,0,0,1,.79-2.83,2,2,0,0,1,1.46-.62A19.74,19.74,0,0,1,40.79,32.61ZM39.35,35l-.06-.05a20.62,20.62,0,0,0-5-2.56,5.4,5.4,0,0,0-3.2.55,12.25,12.25,0,0,1-6.07,1c-6.2-.61-8.59,4.1-9.87,6.63l0,.11a15.77,15.77,0,0,1-1.42-.86c1.43-2.81,3.85-7.36,10.32-6.92a20.45,20.45,0,0,0,8.15-1.09,4.94,4.94,0,0,1,2.72-.43,41.2,41.2,0,0,1,5.31,2.47C39.89,34.19,39.62,34.57,39.35,35ZM7.28,32.74c1.25-1.35,2.12-1.3,3.63-1.21a15.9,15.9,0,0,0,2,0c1.32-.07,2.67,1.34,3.39,2.23a12.31,12.31,0,0,0-1,1,6.21,6.21,0,0,0-3.34-1.31,5.16,5.16,0,0,0-3.73.81C7.86,33.79,7.56,33.27,7.28,32.74Zm35.55-7.58a4.93,4.93,0,0,0-4.51,1.6,7.4,7.4,0,0,0-1.71,3.79l-.73-.3A8.73,8.73,0,0,1,38,25.76c.95-1,3-2.13,4.88-1.49C42.86,24.57,42.85,24.86,42.83,25.16ZM37,24.82a10.07,10.07,0,0,0-2.46,5.07,3.51,3.51,0,0,0-.79,0,11.67,11.67,0,0,1,2.9-6.08c1.45-1.43,4-2.54,6.08-1.9,0,.31.06.61.07.92A6.48,6.48,0,0,0,37,24.82Zm-7.9,4a3.76,3.76,0,0,1-2-.12,2.43,2.43,0,0,0-2,0,3.6,3.6,0,0,0-1.47,2.39c0,.12-.07.24-.1.35-.24,0-.47,0-.7,0-.18-.41-.37-.79-.56-1.16l.22-.39c.87-1.64,1.84-3.08,4-2.63a26.37,26.37,0,0,0,2.78.38c1.58.14,2.37.22,3.25,1.26a8,8,0,0,0-.18,1.22C31.13,28.63,30.26,28.62,29.13,28.8Zm1.92,1.85a18.51,18.51,0,0,1-6.1.87v0c.17-.6.38-1.35.79-1.57a1.24,1.24,0,0,1,.94,0,5,5,0,0,0,2.65.18A1.56,1.56,0,0,1,31.05,30.65Zm-1.58-4.33A24.07,24.07,0,0,1,26.82,26c-3.08-.63-4.5,1.5-5.29,2.94-.33-.56-.65-1.06-1-1.51a6.1,6.1,0,0,1,5.83-2.8c3.3.4,5.77.87,7,1.85-.14.34-.27.67-.38,1A5.68,5.68,0,0,0,29.47,26.32Zm-2.92-3.07a7.35,7.35,0,0,0-6.85,3,12.88,12.88,0,0,0-1.17-1.17,9.47,9.47,0,0,1,7.68-3.23,17.58,17.58,0,0,1,8.33,2.45,9.61,9.61,0,0,0-.53.87C32.48,24.16,30,23.66,26.55,23.25ZM11.77,21.63A3.55,3.55,0,0,0,10,23.47a6.76,6.76,0,0,0-2.29-.08c2-2.87,3.28-3.46,6.66-3.5a5.45,5.45,0,0,1,2.89.64,16.37,16.37,0,0,0-1.32,1A6.21,6.21,0,0,0,11.77,21.63Zm3,1a11.73,11.73,0,0,0-.92,1.12,10.92,10.92,0,0,1-2.48-.09,2.07,2.07,0,0,1,.94-.84A4.32,4.32,0,0,1,14.79,22.67ZM26,19.2a19.5,19.5,0,0,1,10.1,3.33l-.39.35-.36.39a18.94,18.94,0,0,0-9.07-2.72,10.81,10.81,0,0,0-8.88,3.78,4.77,4.77,0,0,0-1.73-.63A13.58,13.58,0,0,1,26,19.2Zm-9.35-6.65a3.46,3.46,0,0,0-2.35.57,4,4,0,0,0-.24-.46,4,4,0,0,1,2.46-1.09,3.42,3.42,0,0,1,2.31.72c-.26.31-.51.63-.75,1A2.83,2.83,0,0,0,16.67,12.55Zm.68,1.88c-.2.36-.4.74-.59,1.14A12.73,12.73,0,0,0,15,15.44a9.16,9.16,0,0,0-.19-1,2.47,2.47,0,0,1,1.69-.57A1.51,1.51,0,0,1,17.35,14.43Zm-10.62,2A1.37,1.37,0,0,1,8.37,17a13.58,13.58,0,0,0-2.54,1.92A18.28,18.28,0,0,1,6.73,16.41ZM7.4,15c.18-.33.38-.66.58-1a2.62,2.62,0,0,1,1.95.17A2.74,2.74,0,0,1,11,15.92a11.76,11.76,0,0,0-1.45.49A2.6,2.6,0,0,0,7.4,15Zm3.24-2A3.45,3.45,0,0,0,9,12.59L9.43,12a3.2,3.2,0,0,1,2.6.32,2.63,2.63,0,0,1,.65.64l0,0a5.76,5.76,0,0,1,.88,2.47c-.42,0-.84.09-1.24.15A4.08,4.08,0,0,0,10.64,13.06Zm2.62-1.47a3.47,3.47,0,0,0-.37-.3,5.83,5.83,0,0,1,3.76-2,5.61,5.61,0,0,1,4.17,1.24,8.22,8.22,0,0,0-1,.79,4.84,4.84,0,0,0-3.35-1.1A5.34,5.34,0,0,0,13.26,11.59Zm9.4-.49a4.05,4.05,0,0,1,3.35.3,7.1,7.1,0,0,0,3.81.68,5.94,5.94,0,0,1,4.76,1.57,13.53,13.53,0,0,0-1.85.79,6.63,6.63,0,0,0-3.83-1,5.81,5.81,0,0,1-2.4-.38c-2.64-1.13-5.35,0-7.33,3.12a9.94,9.94,0,0,0-1.05-.36C19.35,13.4,21,11.69,22.66,11.1ZM26,14.34a7.13,7.13,0,0,0,2.92.49,5.8,5.8,0,0,1,2.5.41,12.89,12.89,0,0,0-1.75,1.39,6.54,6.54,0,0,0-4.87-.69A4.59,4.59,0,0,0,22,18a10.46,10.46,0,0,0-1.58-1.15C21.32,15.42,23.3,13.2,26,14.34Zm2.73,3.32a3.93,3.93,0,0,0-.26.41,18,18,0,0,0-2.37-.22A14,14,0,0,0,23.7,18a3.57,3.57,0,0,1,1.41-.73A5.13,5.13,0,0,1,28.69,17.66ZM42.54,20.5a3.4,3.4,0,0,0-.46-.07,4.65,4.65,0,0,0-2.6-1.78,3,3,0,0,0-3.11,1.13,4.27,4.27,0,0,1-.92.74,20,20,0,0,0-2.35-1.14A5.79,5.79,0,0,1,38.43,17a8.43,8.43,0,0,1,3.82,2.17C42.36,19.62,42.46,20.06,42.54,20.5Zm-2.25,0a9,9,0,0,0-3,1.19l-.17-.13-.39-.28a6.36,6.36,0,0,0,.6-.54c.7-.66,1.1-1,1.81-.81A3.6,3.6,0,0,1,40.29,20.51Zm-1.68-4.82c-3.54-.49-5.65,1.75-6.85,3.19a18.83,18.83,0,0,0-1.91-.53c1.17-1.45,4.86-4.1,7.71-3.76A6.88,6.88,0,0,1,41,15.83h0c.16.34.32.69.46,1A7,7,0,0,0,38.61,15.69Zm1.2-2a9.58,9.58,0,0,0-2.09-.46,6.2,6.2,0,0,0-1.55,0l-.07-.06a1.53,1.53,0,0,1,.72-.77,2.51,2.51,0,0,1,2-.13C39.16,12.76,39.49,13.23,39.81,13.71Zm-3.63-2.45a3,3,0,0,0-1.12,1,8.06,8.06,0,0,0-1.42-.9,2.34,2.34,0,0,1,1-1.14,2.49,2.49,0,0,1,2.12-.11c.25.23.48.46.71.7A3.49,3.49,0,0,0,36.18,11.26ZM34,9.08a3.66,3.66,0,0,0-1.65,1.85,7.09,7.09,0,0,0-1.46-.2,3,3,0,0,1,1.19-2.14,2.47,2.47,0,0,1,2.18-.4l.75.52A3.42,3.42,0,0,0,34,9.08ZM5.13,24a19.2,19.2,0,0,1,.17-2.53,11.37,11.37,0,0,1,9.08-4.68,9,9,0,0,1,6.36,1.91,16.58,16.58,0,0,0-2.25,1,6.59,6.59,0,0,0-4.14-1.19c-4.23,0-5.82,1-8.5,5.18l-.32.5v0l-.39.26C5.14,24.34,5.13,24.17,5.13,24Zm.12,2.14c2.06-1.77,3.26-1.57,5-1.26a12.81,12.81,0,0,0,4.59.15c1.07-.17,2.58.54,4.24,2.68a.55.55,0,0,0,.15.2,22.69,22.69,0,0,1,2.16,3.65,10.32,10.32,0,0,0-1.43.3c-1.48-2.49-3.7-5.21-6.25-4.9a11.62,11.62,0,0,1-3.07-.08,5.42,5.42,0,0,0-5.06,1.33A17.91,17.91,0,0,1,5.25,26.14ZM6,29.67a4.32,4.32,0,0,1,4.5-1.46,12.7,12.7,0,0,0,3.4.09c1.4-.17,3.13,1.29,4.79,4a8.43,8.43,0,0,0-1.3.69c-1-1.27-2.66-2.89-4.55-2.79a15.84,15.84,0,0,1-1.85,0,4.93,4.93,0,0,0-4.33,1.26A18,18,0,0,1,6,29.67Zm33.84-1.24a4.66,4.66,0,0,0-1.21,3.06l-.72-.35a6,6,0,0,1,1.4-3.47,3.57,3.57,0,0,1,3.39-1.16c0,.3-.09.6-.14.9A3.38,3.38,0,0,0,39.84,28.43ZM9,35.39l0,0a3.94,3.94,0,0,1,2.79-.55,4.79,4.79,0,0,1,2.62,1A21.68,21.68,0,0,0,12.52,39,19.1,19.1,0,0,1,9,35.39ZM35.44,39a4.93,4.93,0,0,0-3.23-2,4.14,4.14,0,0,0-2.7.93,3,3,0,0,1-2.65.7c-3.67-.88-5.4,2.56-6.05,3.86l0,.08c-.57-.1-1.13-.22-1.68-.37,1-2,2.65-5.21,6.61-4.63a8.11,8.11,0,0,0,5.19-1A3.74,3.74,0,0,1,33,36a8.94,8.94,0,0,1,3.51,2,.1.1,0,0,1,0,0C36.21,38.38,35.83,38.69,35.44,39ZM22.19,42.78c.92-1.75,2.17-3.34,4.36-2.82a4.29,4.29,0,0,0,3.7-.88,2.93,2.93,0,0,1,1.86-.72,3.64,3.64,0,0,1,2.23,1.41A18.7,18.7,0,0,1,24,42.87,18,18,0,0,1,22.19,42.78Zm15.34-5.64-.1-.12a10.3,10.3,0,0,0-4.2-2.34,4.79,4.79,0,0,0-2.91.71,7,7,0,0,1-4.42.87c-4.94-.74-7,3.4-8,5.39l-.08.17a16,16,0,0,1-1.54-.62l0-.09c1.3-2.55,3.26-6.42,8.54-5.9a13.46,13.46,0,0,0,6.68-1.05,4.37,4.37,0,0,1,2.39-.5A19.54,19.54,0,0,1,38.53,36h0C38.22,36.41,37.88,36.78,37.53,37.14Z"/></g></g></svg>