<svg xmlns="http://www.w3.org/2000/svg" viewBox="0 0 48 48"><defs><style>.cls-1{fill:#fff;}</style></defs><g id="Postive"><circle class="cls-1" cx="24" cy="24" r="24"/><path d="M44,21.44C42.7,7.81,26.38-.61,14.51,6.18h0c-.24.13-.49.24-.72.39h0l-.58.36h0a8.19,8.19,0,0,0-.72.48h0l-.58.43v0A20.25,20.25,0,0,0,4,26.64c0-.12,0-.24,0-.36A20.25,20.25,0,0,0,10,38.59l-.37-.35c.37.37.77.73,1.17,1.08l-.26-.22.63.53h0c.28.23.57.44.85.66v0l.46.34h0l.72.48h0a19.8,19.8,0,0,0,2.11,1.17L15,42.1a20.74,20.74,0,0,0,2.72,1.12l-.09,0,1.34.4-.22-.06c.48.12,1,.23,1.45.33l-.28-.06a20.25,20.25,0,0,0,15.26-2.95h0A20.28,20.28,0,0,0,44,21.44ZM11.19,37.72c-.47-.45-.93-.92-1.36-1.42a16,16,0,0,1-1.09-1.37q-.53-.74-1-1.53A18.59,18.59,0,0,1,5.47,27V27c0-.28-.08-.56-.11-.84V26c0-.26,0-.53-.07-.8V25c0-.33,0-.67,0-1a18.88,18.88,0,0,1,5.5-13.27c.15-.14.31-.27.46-.42Zm1.3,1.1-.58-.46V9.67l.58-.46Zm1.3.93-.58-.4V8.67l.3-.22c.09-.06.19-.11.28-.18Zm6.82,2.71a18.71,18.71,0,0,1-6.1-2.26V7.82q.66-.39,1.35-.72a18.35,18.35,0,0,1,4.75-1.55Zm.42-21,.12-.38A.71.71,0,0,1,21,21.43Zm11.55-8.28h0a.67.67,0,0,1,0,1.34h0ZM28,21.84a.67.67,0,0,1,0,1.32Zm-5.79-11.3a.67.67,0,0,1,.48.64.66.66,0,0,1-.48.64Zm8.31,13.65a.24.24,0,0,0-.07.17l0,1.69a.22.22,0,0,1-.07.17l-1,1.06.46.45A1.22,1.22,0,0,1,28,29.46L27.56,29l-1.83,1.84-.51.51v1.8a.25.25,0,0,0,.25.24h2.32a.23.23,0,0,0,.17-.07l2.11-2.1a.24.24,0,0,1,.41.11l.28,1.1a.24.24,0,0,0,.18.18l.54.13a.24.24,0,0,1,.11.41L29,35.79a.22.22,0,0,1-.17.07H25.22l.44,4.32H22.33l-.08-8.71a.25.25,0,0,0-.08-.18V12.65a1.5,1.5,0,0,0,1.29-1.47,1.48,1.48,0,0,0-1.29-1.46V9.06a1.23,1.23,0,0,1,2.45,0v2.12h.64a1.23,1.23,0,0,1,1.22,1.23h0a1.22,1.22,0,0,1-1.22,1.22h-.64v1.77h0a1.48,1.48,0,0,0,0,3h0v6.52a.22.22,0,0,1-.07.17L22.42,27.2a.24.24,0,0,0,0,.35L23.83,29a.23.23,0,0,0,.34,0l3.73-3.72a.24.24,0,0,0,.07-.18V24A1.48,1.48,0,0,0,28,21v-5.6a1.23,1.23,0,1,1,2.45,0V20.2a.25.25,0,0,0,.42.18l1.66-1.67a.23.23,0,0,0,.08-.17V15.3h0a1.48,1.48,0,0,0,0-3h0v-.55a1.22,1.22,0,1,1,2.44,0v4.93h.65a1.23,1.23,0,1,1,0,2.45H35v.36a.24.24,0,0,1-.07.18Zm-5.86-6.63h0a.67.67,0,1,1,0-1.34h0Zm15,13.76-2.9,1h0l-1.78-.86a.2.2,0,0,1-.1-.08l-.9-1.34a.24.24,0,0,1,.07-.34l1.1-.74a.28.28,0,0,1,.25,0l1.41.68a.25.25,0,0,0,.19,0L38.81,29a1.23,1.23,0,0,1,.81,2.32Z"/><path d="M7.24,35.31l0,0-.13-.19Z"/><path d="M5.78,32.77l0,.09-.15-.32C5.71,32.62,5.75,32.7,5.78,32.77Z"/><path class="cls-1" d="M3.81,25v0c0-.31,0-.61,0-.92C3.79,24.36,3.8,24.65,3.81,25Z"/><path class="cls-1" d="M11.13,39.59l.06,0h0Z"/><path class="cls-1" d="M3.92,26.28c0,.12,0,.24,0,.36s0,.23,0,.35,0,.08,0,.12a.13.13,0,0,0,0,.06c0-.12,0-.25,0-.38S3.94,26.45,3.92,26.28Z"/><path class="cls-1" d="M3.83,25.27v0a1.94,1.94,0,0,0,0,.24l0,.42V26l0-.44Z"/><path class="cls-1" d="M19,4.44l-.24.07.46-.12Z"/><path class="cls-1" d="M13.21,41.09h0l.31.19-.27-.18Z"/><path class="cls-1" d="M15.18,5.82l-.67.36h0Z"/><path class="cls-1" d="M12.49,7.41h0l-.58.41v0Z"/><path class="cls-1" d="M4.43,19a17.24,17.24,0,0,1,.73-2.24A17.24,17.24,0,0,0,4.43,19Z"/><path class="cls-1" d="M13.79,6.57h0l-.58.36h0Z"/><path class="cls-1" d="M12.49,40.62,12,40.28v0l.45.32Z"/><path class="cls-1" d="M9.56,38.14l-.08-.08.17.18.37.35Z"/><path class="cls-1" d="M6.51,34.13c-.09-.14-.16-.28-.24-.42s-.22-.41-.32-.62-.19-.37-.28-.56l0-.06a19.19,19.19,0,0,1-.9-2.32l-.09-.26c-.06-.21-.12-.42-.17-.63a1.21,1.21,0,0,1,0-.18.53.53,0,0,0,0,.12,1.6,1.6,0,0,0,0,.21l.12.4v0a2.17,2.17,0,0,1,.07.24c0,.13.09.25.13.38s.09.26.13.38v0c0,.12.09.24.13.35l.12.3a1.22,1.22,0,0,0,.07.17c0,.09.07.19.11.28a.3.3,0,0,1,0,.1l.21.44,0,0,.15.32v0l.33.66.22.38h0l.16.28,0,.07c.07.13.15.26.23.39l.22.35a1.3,1.3,0,0,1,.1.15l.13.19,0,0h0l.22.3-.06-.09C7.12,35.13,6.8,34.64,6.51,34.13Z"/><path class="cls-1" d="M4.06,27.29a.13.13,0,0,1,0-.06s0,0,0,.06.05.3.08.44,0,.17,0,.25l0,.15c0-.08,0-.16,0-.23S4.09,27.49,4.06,27.29Z"/><path class="cls-1" d="M18.74,43.53l.22.06.29.06h0Z"/><path class="cls-1" d="M7.89,36.18l-.24-.3.61.8.3.35.08.09h0C8.37,36.81,8.13,36.49,7.89,36.18Z"/><path class="cls-1" d="M4.25,28.29a.3.3,0,0,1,0-.1l0,.1s0,0,0,.07.07.29.1.43,0,.06,0,.08,0,.1,0,.16l0-.13C4.34,28.7,4.29,28.5,4.25,28.29Z"/><path class="cls-1" d="M15.32,42.26h0L15,42.1Z"/><path class="cls-1" d="M19.91,43.8l.28.06.21,0h0Z"/><path class="cls-1" d="M17.62,43.19l.09,0,.41.12L18,43.29Z"/><path class="cls-1" d="M10.36,38.91l-.08-.07.28.26.26.22Z"/></g></svg>