<svg xmlns="http://www.w3.org/2000/svg" viewBox="0 0 150 150" width="55.6" height="55.6"><title>water_quality</title><g id="Layer_2" data-name="Layer 2"><g id="Postive"><path d="M64.2,71.71a1.49,1.49,0,0,0,1.12.51,1.52,1.52,0,0,0,1-.38,1.5,1.5,0,0,0,.12-2.12,10.69,10.69,0,0,1-2.72-7.09c0-2.38,3.06-10.11,9.91-22A1.5,1.5,0,0,0,71,39.12c-6.46,11.23-10.31,20-10.31,23.51A13.68,13.68,0,0,0,64.2,71.71Z"/><path d="M147.64,56.26A75.07,75.07,0,1,0,150,75,74.91,74.91,0,0,0,147.64,56.26ZM130.73,102H98.21a4.58,4.58,0,0,0-4.64,4.51h0A4.58,4.58,0,0,0,98.21,111h17.27a4.51,4.51,0,1,1,0,9H38a4.51,4.51,0,1,1,0-9h23.1a4.58,4.58,0,0,0,4.64-4.51h0A4.58,4.58,0,0,0,61.05,102H19.77a4.51,4.51,0,1,1,0-9h32a4.51,4.51,0,1,0,0-9h-9.3a4.51,4.51,0,1,1,0-9H55.4a23.68,23.68,0,0,0,39.22,0H123a4.51,4.51,0,1,1,0,9h-6.19a4.51,4.51,0,1,0,0,9h13.94a4.51,4.51,0,1,1,0,9ZM93.35,62.63c0,9.77-8.23,17.72-18.34,17.72S56.66,72.4,56.66,62.63c0-6.82,9.6-24.11,18.35-37.7C83.75,38.52,93.35,55.81,93.35,62.63Z"/></g></g></svg>