<svg xmlns="http://www.w3.org/2000/svg" viewBox="0 0 56 56"><defs><style>.cls-1{fill:#fff;}</style></defs><g id="Postive"><path d="M55.78,24.43C53.91,5.55,31.3-6.12,14.86,3.29h0c-.34.18-.68.34-1,.55h0l-.8.5h0a11.52,11.52,0,0,0-1,.66h0c-.28.19-.54.4-.8.59v0a28,28,0,0,0-11,26.07l-.06-.5A28,28,0,0,0,8.63,48.2c-.17-.17-.35-.32-.51-.49.52.52,1.07,1,1.62,1.5-.12-.11-.25-.2-.36-.31.29.25.58.5.88.74h0c.38.32.78.61,1.18.91l0,0,.65.47h0l1,.66h0A26.57,26.57,0,0,0,16,53.28l-.45-.22a29.6,29.6,0,0,0,3.77,1.56l-.13,0c.62.2,1.24.38,1.87.55L20.72,55c.66.17,1.33.32,2,.46l-.39-.08a28.09,28.09,0,0,0,21.15-4.09h0A28.15,28.15,0,0,0,55.78,24.43ZM10.26,47a27.07,27.07,0,0,1-1.9-2c-.52-.61-1-1.25-1.5-1.9s-1-1.39-1.37-2.12a25.82,25.82,0,0,1-3.16-8.87v-.07c-.06-.38-.11-.77-.15-1.16l0-.19c0-.36-.06-.73-.08-1.1l0-.17v-.08c0-.47,0-.92,0-1.37A25.65,25.65,0,0,1,5.1,15.71,25.84,25.84,0,0,1,9.62,9.62c.2-.21.43-.39.64-.59Zm1.8,1.53c-.27-.21-.54-.42-.8-.64V8.12c.26-.22.53-.42.8-.63Zm1.8,1.28c-.27-.17-.54-.36-.8-.54V6.74c.14-.09.26-.21.4-.3l.4-.25Zm9.45,3.76a25.74,25.74,0,0,1-8.45-3.14V5.57c.61-.36,1.23-.7,1.87-1a26.25,26.25,0,0,1,6.58-2.14Zm.57-29.14.17-.53A.88.88,0,0,1,23.88,24.42ZM39.88,13h0a.93.93,0,0,1,0,1.86h0ZM33.51,25a.92.92,0,0,1,.8.91.93.93,0,0,1-.8.92Zm-8-15.65a.92.92,0,0,1,.67.88.94.94,0,0,1-.67.89ZM37,28.24a.37.37,0,0,0-.1.24l0,2.34a.4.4,0,0,1-.1.24l-1.46,1.46.63.63a1.69,1.69,0,0,1-2.39,2.4l-.63-.61L30.4,37.49l-.7.7v2.5A.33.33,0,0,0,30,41h3.22a.34.34,0,0,0,.24-.09L36.41,38a.34.34,0,0,1,.57.15l.39,1.53a.34.34,0,0,0,.25.25l.74.18a.34.34,0,0,1,.16.57l-3.63,3.63a.35.35,0,0,1-.24.1H29.7l.61,6H25.69l-.12-12.06a.32.32,0,0,0-.1-.26V12.25a2,2,0,0,0,0-4.06V7.28a1.7,1.7,0,0,1,3.39,0v2.94h.89a1.7,1.7,0,0,1,1.69,1.7h0a1.7,1.7,0,0,1-1.69,1.7h-.89v2.46h0a2.05,2.05,0,0,0,0,4.1h0v9a.35.35,0,0,1-.1.24l-3,3a.34.34,0,0,0,0,.48l2,2a.34.34,0,0,0,.48,0l5.17-5.17a.35.35,0,0,0,.1-.24V28a2,2,0,0,0,0-4.09V16.09a1.7,1.7,0,1,1,3.39,0v6.63a.34.34,0,0,0,.58.24l2.31-2.3a.36.36,0,0,0,.09-.24V15.93h0a2,2,0,1,0,0-4.1h0v-.76a1.7,1.7,0,0,1,3.4,0V17.9h.9a1.7,1.7,0,0,1,0,3.39h-.9v.51a.37.37,0,0,1-.1.24Zm-8.13-9.18h0a.93.93,0,0,1,0-1.86h0ZM49.65,38.12l-4,1.41h0l-2.47-1.19a.37.37,0,0,1-.13-.12l-1.25-1.85a.34.34,0,0,1,.1-.47l1.53-1a.35.35,0,0,1,.34,0l2,.95a.34.34,0,0,0,.26,0l2.57-.89a1.7,1.7,0,1,1,1.12,3.2Z"/><path d="M4.78,43.66l0,.06c-.06-.08-.11-.17-.17-.26Z"/><path d="M2.76,40.14l.06.11c-.07-.14-.14-.29-.2-.43Z"/><path class="cls-1" d="M0,29.3v0c0-.43,0-.85,0-1.28C0,28.48,0,28.89,0,29.3Z"/><path class="cls-1" d="M10.18,49.58l.08.07h0Z"/><path class="cls-1" d="M.18,31.14l.06.5.06.48,0,.17s0,.06,0,.09c0-.18,0-.35-.07-.53Z"/><path class="cls-1" d="M.06,29.74v0c0,.11,0,.22,0,.33s0,.39.05.59,0,.1,0,.15c0-.21,0-.41-.05-.61Z"/><path class="cls-1" d="M21,.88l-.33.1.64-.17Z"/><path class="cls-1" d="M13.06,51.67h0l.42.27-.38-.24Z"/><path class="cls-1" d="M15.79,2.8c-.32.15-.62.32-.93.49h0C15.17,3.13,15.47,3,15.79,2.8Z"/><path class="cls-1" d="M12.06,5h0c-.27.19-.54.38-.8.58v0C11.52,5.4,11.78,5.19,12.06,5Z"/><path class="cls-1" d="M.88,21a29.71,29.71,0,0,1,1-3.11A29.71,29.71,0,0,0,.88,21Z"/><path class="cls-1" d="M13.86,3.84h0l-.8.49h0Z"/><path class="cls-1" d="M12.06,51l-.65-.47,0,0c.2.15.41.31.62.45Z"/><path class="cls-1" d="M8,47.58l-.12-.12.24.25c.16.17.34.32.51.49Z"/><path class="cls-1" d="M3.76,42l-.32-.58L3,40.58c-.13-.26-.26-.52-.38-.78l0-.08A29.8,29.8,0,0,1,1.32,36.5a3.58,3.58,0,0,0-.11-.35c-.09-.29-.17-.58-.25-.88A2.17,2.17,0,0,0,.89,35s0,.11,0,.16a2.29,2.29,0,0,0,.08.28c.05.19.1.38.16.57v0c0,.11.07.22.1.33l.18.53.18.53v0l.18.48c0,.14.11.28.16.41a2.44,2.44,0,0,0,.1.24l.16.39.06.13c.09.21.18.42.28.62l0,.07c.06.14.13.29.2.43l0,0c.15.31.3.61.46.9l.3.53v0l.23.39.06.1.32.54c.11.16.21.32.31.48l.14.21c.06.09.11.18.17.26l0,.05h0l.31.42-.08-.12C4.62,43.4,4.17,42.72,3.76,42Z"/><path class="cls-1" d="M.37,32.54s0,0,0-.08,0,.06,0,.09c0,.2.07.4.11.6l.06.35c0,.07,0,.14,0,.2a3,3,0,0,1-.06-.32C.47,33.1.42,32.82.37,32.54Z"/><path class="cls-1" d="M20.72,55l.31.08.39.09h0Z"/><path class="cls-1" d="M5.68,44.85c-.11-.14-.23-.27-.33-.41.27.37.55.74.85,1.11l.4.49.12.13,0,0C6.35,45.73,6,45.29,5.68,44.85Z"/><path class="cls-1" d="M.64,33.93s0-.09,0-.14l0,.13,0,.1c0,.2.09.4.13.6l0,.11A1.74,1.74,0,0,1,.87,35a1.16,1.16,0,0,0,0-.18C.76,34.49.7,34.21.64,33.93Z"/><path class="cls-1" d="M16,53.28h0l-.47-.23Z"/><path class="cls-1" d="M22.33,55.42l.39.08.3,0h0Z"/><path class="cls-1" d="M19.16,54.57l.13,0,.57.17-.23-.07Z"/><path class="cls-1" d="M9.1,48.64,9,48.55l.38.35c.11.11.24.2.36.31Z"/></g></svg>