<svg xmlns="http://www.w3.org/2000/svg" viewBox="0 0 48 48"><defs><style>.cls-1{fill:#fff;}</style></defs><g id="Layer_2" data-name="Layer 2"><g id="Postive"><circle class="cls-1" cx="24" cy="24" r="24"/><rect x="31.14" y="28.04" width="0.98" height="0.98"/><rect x="19.99" y="28.04" width="0.98" height="0.98"/><rect x="27.1" y="27.06" width="0.98" height="0.98"/><rect x="24" y="32.09" width="0.98" height="0.98"/><path d="M43.58,19A20.25,20.25,0,0,0,29.05,4.42,20,20,0,0,0,24,3.78a20.29,20.29,0,0,0-8.77,2,22,22,0,0,0-2.54,1.46,21.44,21.44,0,0,0-3,2.47A20.22,20.22,0,0,0,38.3,38.3a21.44,21.44,0,0,0,2.47-3,22,22,0,0,0,1.46-2.54,20.29,20.29,0,0,0,2-8.77A20,20,0,0,0,43.58,19ZM39,31.27H30.26A1.24,1.24,0,0,0,29,32.49h0a1.23,1.23,0,0,0,1.25,1.21h4.65a1.22,1.22,0,1,1,0,2.43H14a1.22,1.22,0,1,1,0-2.43h6.23a1.23,1.23,0,0,0,1.25-1.21h0a1.24,1.24,0,0,0-1.25-1.22H9.11a1.22,1.22,0,1,1,0-2.43h8.62a1.22,1.22,0,1,0,0-2.43h-2.5a1.22,1.22,0,1,1,0-2.43h2.83a8,8,0,0,0,10.5,1.34A7.49,7.49,0,0,0,30.08,24h6.86a1.22,1.22,0,1,1,0,2.43H35.27a1.22,1.22,0,1,0,0,2.43H39a1.22,1.22,0,1,1,0,2.43ZM17.39,18.66A6.68,6.68,0,1,1,27.8,24.2a6.6,6.6,0,0,1-3.73,1.15A6.69,6.69,0,0,1,17.39,18.66Z"/><path d="M19.79,18.61a1.37,1.37,0,0,0-.2.72v1.45h0v.49a.4.4,0,0,0,.8,0v-.09h.51a.4.4,0,1,0,0-.8h-.51V19.33a.58.58,0,0,1,.58-.57,1.36,1.36,0,0,0,.66-.18L22,19a.4.4,0,0,0,.29.12A.38.38,0,0,0,22.6,19a.41.41,0,0,0,0-.58L22.19,18a1.33,1.33,0,0,0,.16-.62V15.2a.41.41,0,1,0-.81,0v.08H21a.41.41,0,1,0,0,.81h.51v1.29A.58.58,0,0,1,21,18a1.57,1.57,0,0,0-.57.12L20,17.62a.4.4,0,0,0-.57.57Z"/><path d="M24,23.33A1,1,0,0,0,25,22.7h.84a.94.94,0,0,0,.94-.94V19.91a.41.41,0,1,0-.81,0v1.85a.13.13,0,0,1-.13.13H25A1,1,0,1,0,24,23.33Z"/><path d="M26.23,17.37a1.44,1.44,0,1,0-1.44-1.44A1.44,1.44,0,0,0,26.23,17.37Zm0-2.06a.63.63,0,1,1-.63.62A.62.62,0,0,1,26.23,15.31Z"/></g></g></svg>