<svg xmlns="http://www.w3.org/2000/svg" viewBox="0 0 150 150" width="55.6" height="55.6"><title>sea_level_rise</title><g id="Layer_2" data-name="Layer 2"><g id="Postive"><path d="M136.91,117.33c.36-.52.7-1,1-1.58.23-.36.47-.72.69-1.08.33-.52.65-1,1-1.58s.45-.78.67-1.17.6-1,.89-1.59.71-1.35,1.05-2,.62-1.28.92-1.93c.22-.49.45-1,.66-1.47s.43-1,.63-1.5.43-1.07.64-1.61.36-.93.53-1.4c.34-.95.66-1.9,1-2.87.11-.36.21-.73.32-1.09.21-.7.41-1.41.6-2.12l.33-1.28c.17-.71.33-1.41.48-2.12.09-.39.18-.77.25-1.16.22-1.07.41-2.15.58-3.23,0-.18,0-.36.07-.54.14-1,.26-1.9.37-2.86,0-.37.07-.74.1-1.11.08-.82.14-1.64.19-2.47,0-.35.05-.7.06-1,.05-1.15.09-2.31.09-3.48A75,75,0,1,0,0,75c0,1.17,0,2.33.09,3.48,0,.35,0,.7.06,1,.05.83.11,1.66.19,2.48,0,.36.06.72.1,1.09.11,1,.23,2,.38,2.94,0,.15,0,.3.06.45.16,1.09.36,2.17.58,3.25.07.37.16.75.24,1.13.15.72.32,1.44.5,2.16.1.41.2.82.31,1.23.2.76.42,1.51.64,2.27.1.31.18.63.28.94.31,1,.64,2,1,2.91.16.44.33.87.5,1.31s.44,1.16.68,1.73.38.93.58,1.39.5,1.12.76,1.67.44,1,.68,1.45c.39.81.81,1.61,1.23,2.41.26.48.53,1,.79,1.42s.52.91.79,1.36.57,1,.87,1.44.55.86.83,1.29.6.94.91,1.39h0a75,75,0,0,0,123.88.09ZM64.36,91.41a1.5,1.5,0,0,0,0-3V69a1.5,1.5,0,0,0,0-3V46.5a1.5,1.5,0,0,0,0-3V24.05a1.5,1.5,0,0,0,0-3V15.72a.72.72,0,0,1,.72-.72H85.17a.73.73,0,0,1,.73.72v5.33H75.13a1.5,1.5,0,0,0,0,3H85.9V28.5H78.73a1.5,1.5,0,0,0,0,3H85.9V36H82.33a1.5,1.5,0,0,0,0,3H85.9v4.5H75.13a1.5,1.5,0,0,0,0,3H85.9V51H78.73a1.5,1.5,0,0,0,0,3H85.9v4.5H82.33a1.5,1.5,0,0,0,0,3H85.9V66H75.13a1.5,1.5,0,0,0,0,3H85.9v4.46H78.73a1.5,1.5,0,1,0,0,3H85.9v4.5H82.33a1.5,1.5,0,0,0,0,3H85.9v4.5H75.13a1.5,1.5,0,0,0,0,3H85.9v4.45H78.73a1.5,1.5,0,0,0,0,3H85.9v4.5H82.33a1.5,1.5,0,0,0,0,3H85.9v6a20.4,20.4,0,0,0-11-2.89,20.35,20.35,0,0,0-10.54,2.63ZM75,145a69.92,69.92,0,0,1-56.27-28.42,15.19,15.19,0,0,1,8.27-2.1c5.23,0,7.71,1.65,10.59,3.56,3.1,2.07,6.62,4.4,13.36,4.4s10.26-2.33,13.36-4.4c2.87-1.91,5.36-3.56,10.59-3.56s7.72,1.65,10.59,3.56c3.1,2.07,6.62,4.4,13.36,4.4s10.26-2.33,13.36-4.4c2.87-1.91,5.36-3.56,10.59-3.56a15.43,15.43,0,0,1,8.41,2.18A69.92,69.92,0,0,1,75,145Z"/></g></g></svg>