<svg xmlns="http://www.w3.org/2000/svg" viewBox="0 0 56 56"><defs><style>.cls-1{fill:none;}</style></defs><g id="Postive"><path class="cls-1" d="M14.94,29.26a.79.79,0,0,0-.76-.57.91.91,0,0,0-.23,0,.8.8,0,0,0,.23,1.56.57.57,0,0,0,.22,0A.78.78,0,0,0,14.94,29.26Z"/><polygon class="cls-1" points="32.02 30.76 28.91 32.62 29.82 36.3 25.61 46.18 16.77 42.46 18.06 39.38 24.6 42.24 25.05 41.2 18.5 38.35 19.59 35.75 25.91 38.27 26.33 37.23 20.02 34.71 20.89 32.63 24.29 30.54 22.94 26.54 20.45 27.37 21.13 29.4 18.8 30.84 13.34 43.86 27 49.62 32.59 36.52 31.93 33.88 34.08 32.59 36.03 28.23 33.64 27.16 32.02 30.76"/><path class="cls-1" d="M10.05,31.58a2.23,2.23,0,1,0,2.23,2.23A2.23,2.23,0,0,0,10.05,31.58Zm0,3.33a1.1,1.1,0,1,1,1.11-1.1A1.1,1.1,0,0,1,10.05,34.91Z"/><rect class="cls-1" x="29.02" y="27.38" width="3.4" height="1.13" transform="translate(-8.43 41.79) rotate(-61.77)"/><path class="cls-1" d="M6.55,27.74a.62.62,0,0,0-.23,0,.78.78,0,0,0-.53,1,.8.8,0,0,0,.76.57,1,1,0,0,0,.23,0,.79.79,0,0,0,.53-1A.8.8,0,0,0,6.55,27.74Z"/><path class="cls-1" d="M50.44,34.17a.85.85,0,0,0-.23,0,.81.81,0,0,0-.54,1,.79.79,0,0,0,.76.57.85.85,0,0,0,.23,0,.8.8,0,0,0,.54-1A.79.79,0,0,0,50.44,34.17Z"/><polygon class="cls-1" points="40.34 10.02 32.64 6.75 30.69 10.61 38.38 13.89 40.34 10.02"/><path class="cls-1" d="M44.6,37.11a2.23,2.23,0,1,0,2.23,2.23A2.23,2.23,0,0,0,44.6,37.11Zm0,3.33a1.1,1.1,0,1,1,1.1-1.1A1.1,1.1,0,0,1,44.6,40.44Z"/><path class="cls-1" d="M44.38,35a2.23,2.23,0,1,0-2.23-2.22A2.23,2.23,0,0,0,44.38,35Zm0-3.33a1.11,1.11,0,1,1-1.1,1.11A1.11,1.11,0,0,1,44.38,31.62Z"/><path class="cls-1" d="M40.32,35.54a.66.66,0,0,0-.23,0,.78.78,0,0,0-.53,1,.8.8,0,0,0,.76.57.93.93,0,0,0,.23,0,.79.79,0,0,0,.53-1A.8.8,0,0,0,40.32,35.54Z"/><path class="cls-1" d="M46,19.82a7.43,7.43,0,0,0-4.7,1.56A6.7,6.7,0,0,1,37,22.81h-.15l-.07-7.17L30.29,13l-6.17,3-2.79,6.47a6.91,6.91,0,0,1-2.28.35,6.7,6.7,0,0,1-4.28-1.43,7.43,7.43,0,0,0-4.7-1.56,7.09,7.09,0,0,0-3.76,1l1.31,2.28a4.4,4.4,0,0,1,2.45-.61,4.9,4.9,0,0,1,3.24,1.12,9.33,9.33,0,0,0,5.74,1.87,9.28,9.28,0,0,0,5.74-1.87,5.26,5.26,0,0,1,6.49,0,9.74,9.74,0,0,0,11.48,0A4.9,4.9,0,0,1,46,22.45a4.43,4.43,0,0,1,2.49.64l1.32-2.27A7,7,0,0,0,46,19.82ZM32.73,21.38A7.42,7.42,0,0,0,28,19.82a7.16,7.16,0,0,0-2.95.56l1.06-2.45,4.24-2.06,3.8,1.54.05,4.85A10.65,10.65,0,0,1,32.73,21.38Z"/><path d="M28,0A28,28,0,1,0,56,28,28,28,0,0,0,28,0ZM50.66,35.73a.85.85,0,0,1-.23,0,.79.79,0,0,1-.76-.57.81.81,0,0,1,.54-1,.85.85,0,0,1,.23,0,.79.79,0,0,1,.76.57A.8.8,0,0,1,50.66,35.73Zm-18-29L40.34,10l-2,3.87-7.69-3.28ZM6.78,29.3a1,1,0,0,1-.23,0,.8.8,0,0,1-.76-.57.78.78,0,0,1,.53-1,.62.62,0,0,1,.23,0,.8.8,0,0,1,.76.57A.79.79,0,0,1,6.78,29.3ZM10.05,36a2.23,2.23,0,1,1,2.23-2.23A2.23,2.23,0,0,1,10.05,36Zm3.37-6.33a.79.79,0,0,1,.53-1,.91.91,0,0,1,.23,0,.79.79,0,0,1,.76.57.78.78,0,0,1-.54,1,.57.57,0,0,1-.22,0A.79.79,0,0,1,13.42,29.71Zm20.66,2.88-2.15,1.29.65,2.64L27,49.62,13.34,43.86l5.45-13,2.34-1.44-.68-2,2.49-.83,1.35,4-3.4,2.09L20,34.71l6.31,2.52-.42,1-6.33-2.52-1.08,2.6,6.55,2.85-.45,1-6.54-2.86-1.28,3.08,8.83,3.72,4.21-9.88-.91-3.68L32,30.76l1.62-3.6L36,28.24Zm-4.66-3.42,1.61-3,1,.53-1.61,3ZM40.55,37.1a.93.93,0,0,1-.23,0,.8.8,0,0,1-.76-.57.78.78,0,0,1,.53-1,.66.66,0,0,1,.23,0,.8.8,0,0,1,.76.57A.79.79,0,0,1,40.55,37.1Zm4.05,4.47a2.23,2.23,0,1,1,2.23-2.23A2.23,2.23,0,0,1,44.6,41.57Zm-2.45-8.84A2.23,2.23,0,1,1,44.38,35,2.23,2.23,0,0,1,42.15,32.73ZM46,22.45a4.9,4.9,0,0,0-3.24,1.12,9.74,9.74,0,0,1-11.48,0,5.26,5.26,0,0,0-6.49,0,9.28,9.28,0,0,1-5.74,1.87,9.33,9.33,0,0,1-5.74-1.87,4.9,4.9,0,0,0-3.24-1.12,4.4,4.4,0,0,0-2.45.61L6.31,20.78a7.09,7.09,0,0,1,3.76-1,7.43,7.43,0,0,1,4.7,1.56,6.7,6.7,0,0,0,4.28,1.43,6.91,6.91,0,0,0,2.28-.35L24.12,16l6.17-3,6.51,2.63.07,7.17H37a6.7,6.7,0,0,0,4.28-1.43A7.43,7.43,0,0,1,46,19.82a7,7,0,0,1,3.81,1l-1.32,2.27A4.43,4.43,0,0,0,46,22.45Z"/><path d="M30.39,15.87l-4.24,2.06-1.06,2.45A7.16,7.16,0,0,1,28,19.82a7.42,7.42,0,0,1,4.69,1.56,10.65,10.65,0,0,0,1.51.88l-.05-4.85Z"/><circle cx="44.6" cy="39.34" r="1.1"/><circle cx="44.38" cy="32.73" r="1.1"/><path d="M10.05,32.71a1.1,1.1,0,1,0,1.11,1.1A1.1,1.1,0,0,0,10.05,32.71Z"/></g></svg>