<svg xmlns="http://www.w3.org/2000/svg" viewBox="0 0 48 48"><defs><style>.cls-1{fill:#fff;}</style></defs><g id="Postive"><path class="cls-1" d="M22.66,11.16a.67.67,0,0,0-.48-.64V11.8A.66.66,0,0,0,22.66,11.16Z"/><path class="cls-1" d="M24.56,25.05a.23.23,0,0,0,.07-.17V18.35h0a1.48,1.48,0,0,1,0-3h0V13.62h.64a1.22,1.22,0,0,0,1.22-1.22h0a1.23,1.23,0,0,0-1.22-1.23h-.64V9a1.23,1.23,0,1,0-2.45,0V9.7a1.48,1.48,0,0,1,0,2.93V24.37l.88,2.18Z"/><path class="cls-1" d="M28.56,22.49a.69.69,0,0,0-.58-.67v1.33A.68.68,0,0,0,28.56,22.49Z"/><path class="cls-1" d="M33.27,13.8a.67.67,0,0,0-.67-.67h0v1.35h0A.67.67,0,0,0,33.27,13.8Z"/><path class="cls-1" d="M24,0A24,24,0,1,0,48,24,24,24,0,0,0,24,0Zm0,44.22A20.23,20.23,0,0,1,9.7,38.3a21.44,21.44,0,0,1-2.47-3,22,22,0,0,1-1.46-2.54,20.29,20.29,0,0,1-2-8.77A20,20,0,0,1,4.42,19,20.25,20.25,0,0,1,19,4.42,20,20,0,0,1,24,3.78a20.29,20.29,0,0,1,8.77,2,22,22,0,0,1,2.54,1.46,21.44,21.44,0,0,1,3,2.47A20.22,20.22,0,0,1,24,44.22Z"/><path class="cls-1" d="M21,21.42a.72.72,0,0,0,.12-.39Z"/><path class="cls-1" d="M14.37,22.59h.57c.66,0,1.05-.35,1.05-.81s-.43-.8-1.07-.8a2.9,2.9,0,0,0-.55,0Z"/><path class="cls-1" d="M38.83,29,37,29.64a.25.25,0,0,1-.19,0L35.37,29a.25.25,0,0,0-.25,0L34,29.7A.24.24,0,0,0,34,30l.9,1.34a.14.14,0,0,0,.09.08l1.78.86h0l2.91-1a1.23,1.23,0,0,0-.8-2.32Z"/><path class="cls-1" d="M31.48,32.75,31,32.62a.24.24,0,0,1-.18-.18l-.29-1.1a.24.24,0,0,0-.41-.11L28,33.33a.21.21,0,0,1-.17.08H25.47a.25.25,0,0,1-.25-.25v-1.8l.51-.51L27.56,29l.45.44a1.22,1.22,0,1,0,1.73-1.73l-.45-.45,1.05-1.06a.28.28,0,0,0,.07-.17l0-1.69a.21.21,0,0,1,.07-.17L35,19.7a.22.22,0,0,0,.07-.17v-.37h.65a1.23,1.23,0,1,0,0-2.45H35V11.77a1.23,1.23,0,0,0-2.45,0v.56h0a1.49,1.49,0,0,1,0,3h0v3.24a.24.24,0,0,1-.07.18l-1.66,1.66a.24.24,0,0,1-.42-.17V15.4a1.23,1.23,0,1,0-2.45,0V21A1.48,1.48,0,0,1,28,24V25a.24.24,0,0,1-.07.17l-3.74,3.73a.2.2,0,0,1-.12.06l.39,1H22.18v1.31a.26.26,0,0,1,.07.19l.08,8.71h3.34l-.45-4.32H28.8a.25.25,0,0,0,.18-.08l2.62-2.62A.24.24,0,0,0,31.48,32.75Z"/><path class="cls-1" d="M24,16.87a.67.67,0,0,0,.67.67h0V16.2h0A.67.67,0,0,0,24,16.87Z"/><path d="M16.81,24a1.31,1.31,0,0,1-.41,1,2.45,2.45,0,0,1-1.68.45,7.41,7.41,0,0,1-1-.05V20.6a5.8,5.8,0,0,1,1.14-.1,2,2,0,0,1,1.34.35,1,1,0,0,1,.4.86,1.16,1.16,0,0,1-.82,1.07h0A1.26,1.26,0,0,1,16.81,24Zm-1.87-1.42c.67,0,1.06-.34,1.06-.81s-.43-.8-1.07-.8a3,3,0,0,0-.56,0v1.57ZM16.15,24c0-.67-.57-.94-1.26-.94h-.52v1.85a2.65,2.65,0,0,0,.53,0C15.55,25,16.15,24.71,16.15,24Z"/><path d="M43.58,19A20.12,20.12,0,0,0,38.3,9.7a20.88,20.88,0,0,0-3-2.47,21.18,21.18,0,0,0-2.54-1.46A20.29,20.29,0,0,0,19,4.42a19.71,19.71,0,0,0-5.59,2.39A20.23,20.23,0,0,0,4.42,19a20.24,20.24,0,0,0,.33,11.24,20.7,20.7,0,0,0,1,2.58,19.91,19.91,0,0,0,1.46,2.54A20.22,20.22,0,0,0,44.22,24,20,20,0,0,0,43.58,19Zm-11-5.81h0a.68.68,0,0,1,.67.67.66.66,0,0,1-.67.67h0ZM28,21.83a.65.65,0,0,1,.58.65.68.68,0,0,1-.58.67Zm-5.8-11.31a.67.67,0,0,1,.48.64.66.66,0,0,1-.48.64Zm0,2.11a1.47,1.47,0,0,0,1.29-1.47,1.49,1.49,0,0,0-1.29-1.47V9a1.23,1.23,0,0,1,2.46,0v2.12h.63a1.23,1.23,0,0,1,0,2.46h-.63v1.77h0a1.48,1.48,0,0,0,0,3h0v6.52a.25.25,0,0,1-.08.18l-1.5,1.5-.88-2.18h0V12.63Zm2.46,3.57v1.34h0a.67.67,0,0,1,0-1.34ZM9.37,27.81l5.94-14.68,6,14.68ZM21.15,21a.66.66,0,0,1-.12.38ZM15.31,7.39l0,.09,0-.09ZM31.6,33.16,29,35.79a.28.28,0,0,1-.17.07H25.23l.44,4.32H22.34l-.09-8.71a.25.25,0,0,0-.07-.19V30h2.27l-.4-1-.49-1.23L24.05,29a.29.29,0,0,0,.13-.05l3.73-3.74A.22.22,0,0,0,28,25V24A1.48,1.48,0,0,0,28,21V15.4a1.23,1.23,0,0,1,2.45,0v4.79a.24.24,0,0,0,.42.17l1.66-1.66a.23.23,0,0,0,.08-.17V15.28h0a1.48,1.48,0,0,0,0-3h0v-.56a1.22,1.22,0,1,1,2.44,0v4.94h.65a1.23,1.23,0,1,1,0,2.45H35v.37a.22.22,0,0,1-.07.17L30.5,24.17a.29.29,0,0,0-.07.18l0,1.69a.26.26,0,0,1-.07.17l-1.05,1.05.46.46a1.24,1.24,0,0,1,0,1.73,1.2,1.2,0,0,1-1.73,0L27.57,29l-1.83,1.84-.51.51v1.8a.25.25,0,0,0,.24.25h2.32a.24.24,0,0,0,.17-.07l2.11-2.11a.24.24,0,0,1,.41.11l.29,1.11a.24.24,0,0,0,.18.17l.54.13A.24.24,0,0,1,31.6,33.16Zm8-1.85-2.9,1L35,31.47a.22.22,0,0,1-.1-.09L34,30A.25.25,0,0,1,34,29.7L35.13,29a.23.23,0,0,1,.24,0l1.42.68a.25.25,0,0,0,.19,0L38.83,29a1.22,1.22,0,1,1,.8,2.31Z"/></g></svg>