<?xml version="1.0" encoding="UTF-8"?>
<svg width="48px" height="48px" viewBox="0 0 48 48" version="1.1" xmlns="http://www.w3.org/2000/svg" xmlns:xlink="http://www.w3.org/1999/xlink">
    <title>Coral_Reef_Impact_Bleaching_48×48</title>
    <g id="map-markers" stroke="none" stroke-width="1" fill="none" fill-rule="evenodd">
        <g id="coral-reef-impacts-icons" transform="translate(-66.000000, -72.000000)" fill-rule="nonzero">
            <g id="Coral_Reef_Impact_Bleaching_48×48" transform="translate(66.000000, 72.000000)">
                <path d="M24,0 C10.745166,0 0,10.745166 0,24 C0,37.254834 10.745166,48 24,48 C37.254834,48 48,37.254834 48,24 C48,17.6348042 45.4714358,11.5303103 40.9705627,7.02943725 C36.4696897,2.52856417 30.3651958,0 24,0 Z" id="Path" fill="#FFFFFF"></path>
                <path d="M16.2,20.85 C16.4694473,21.05118 16.619742,21.3743134 16.6,21.71 C16.5846294,22.1639225 16.3065325,22.5629605 15.8953446,22.7379559 L15.78,22.78 C16.3700618,22.8894808 16.8010188,23.3999348 16.81,24 C16.8236142,24.3768043 16.6742104,24.7412038 16.4,25 C15.9138782,25.3504096 15.3161883,25.5105051 14.72,25.45 C14.3859206,25.4558984 14.0518248,25.4391936 13.72,25.4 L13.72,20.6 C14.0957744,20.5291683 14.4776326,20.4956719 14.86,20.5 C15.3340955,20.4533545 15.8092718,20.5774677 16.2,20.85 Z M14.89,23.06 L14.37,23.06 L14.37,24.91 C14.5462228,24.9277111 14.7237772,24.9277111 14.9,24.91 C15.55,25 16.15,24.71 16.15,24 C16.15,23.33 15.58,23.06 14.89,23.06 Z M14.37,20.97 L14.37,22.54 L14.94,22.58 C15.61,22.58 16,22.24 16,21.77 C16,21.3 15.57,20.97 14.93,20.97 C14.7437416,20.9525397 14.5562584,20.9525397 14.37,20.97 Z" id="Shape" fill="#000000"></path>
                <path d="M19,4.42 C23.6032686,3.24520094 28.4728279,3.72295568 32.76,5.77 C33.639351,6.19745578 34.4880475,6.68528921 35.3,7.23 C36.3746078,7.95828562 37.3789563,8.78519921 38.3,9.7 C40.8667256,12.2669309 42.6911771,15.4804534 43.58,19 C44.0033532,20.6330047 44.2183941,22.3130117 44.2202176,24 C44.2611707,32.9162036 38.4572193,40.8069471 29.9334175,43.4232775 C21.4096158,46.0396079 12.178184,42.763886 7.21,35.36 C6.66161668,34.5503367 6.17362925,33.7013723 5.75,32.82 C5.35949626,31.9832663 5.02541675,31.1213411 4.75,30.24 C3.58053813,26.5997131 3.4661219,22.702627 4.42,19 C5.72507433,13.9258246 8.94786625,9.55587647 13.41,6.81 C15.1385157,5.72902851 17.0242761,4.92277315 19,4.42 Z M34.44,10.6634489 C34.0625307,10.4455169 33.5974693,10.4455169 33.22,10.6634489 C32.8425307,10.881381 32.61,11.284136 32.61,11.72 L32.61,11.72 L32.61,12.28 C33.4384271,12.28 34.11,12.9515729 34.11,13.78 C34.11,14.6084271 33.4384271,15.28 32.61,15.28 L32.61,15.28 L32.61,18.53 C32.6087495,18.5954713 32.5796511,18.6573055 32.53,18.7 L32.53,18.7 L30.87,20.36 C30.8026592,20.4366287 30.6942356,20.4623139 30.5996746,20.4240392 C30.5051136,20.3857645 30.4450813,20.2918948 30.45,20.19 L30.45,20.19 L30.45,15.4 C30.3926781,14.7662089 29.861378,14.2807926 29.225,14.2807926 C28.588622,14.2807926 28.0573219,14.7662089 28,15.4 L28,15.4 L28,20.9999999 C28.8284271,20.9999999 29.5,21.6715729 29.5,22.4999999 C29.5,23.3284271 28.8284271,23.9999999 28,23.9999999 L28,23.9999999 L28,24.9999999 C28.011549,25.0813116 27.9768456,25.1622861 27.91,25.21 L27.91,25.21 L24.18,28.95 C24.141372,28.97698 24.0967517,28.9941416 24.05,28.9999999 L24.05,28.9999999 L24.45,29.9999999 L22.18,29.9999999 L22.18,31.28 C22.229085,31.3306269 22.2545067,31.3996288 22.25,31.47 L22.25,31.47 L22.34,40.18 L25.67,40.18 L25.23,35.86 L28.83,35.86 C28.8929302,35.8564656 28.9528272,35.8318022 29,35.79 L29,35.79 L31.6,33.16 C31.6712536,33.1003832 31.7016995,33.0049977 31.6781613,32.9151244 C31.654623,32.8252512 31.5813293,32.7570356 31.49,32.74 L31.49,32.74 L30.95,32.61 C30.8631456,32.5910438 30.7938843,32.5256303 30.77,32.44 L30.77,32.44 L30.48,31.33 C30.4602701,31.2432078 30.3941278,31.1744621 30.3081615,31.151398 C30.2221952,31.1283339 30.1305245,31.1547395 30.07,31.22 L30.07,31.22 L27.96,33.33 C27.914871,33.374973 27.8537117,33.4001562 27.79,33.4 L27.79,33.4 L25.47,33.4 C25.335849,33.3946297 25.2298926,33.2842584 25.23,33.15 L25.23,33.15 L25.23,31.35 L25.74,30.84 L27.57,28.9999999 L28.04,29.45 C28.2662447,29.6852947 28.5785796,29.8182699 28.905,29.8182699 C29.2314204,29.8182699 29.5437553,29.6852947 29.77,29.45 C30.2387096,28.9685741 30.2387096,28.2014259 29.77,27.72 L29.77,27.72 L29.31,27.26 L30.36,26.21 C30.4032579,26.1637492 30.4281486,26.1033005 30.43,26.04 L30.43,26.04 L30.43,24.35 C30.432082,24.2837644 30.456786,24.2202398 30.5,24.17 L30.5,24.17 L34.93,19.65 C34.9770272,19.6062662 35.0025973,19.5441674 35,19.48 L35,19.48 L35,19.11 L35.7,19.11 C36.1640754,19.1519723 36.6120242,18.928099 36.8570347,18.5317437 C37.1020452,18.1353884 37.1020452,17.6346116 36.8570347,17.2382563 C36.6120242,16.841901 36.1640754,16.6180277 35.7,16.66 L35.7,16.66 L35.05,16.66 L35.05,11.72 C35.05,11.284136 34.8174693,10.881381 34.44,10.6634489 Z M40.0302594,29.2310898 C39.7001781,28.9451847 39.2426418,28.8570937 38.83,29 L38.83,29 L36.98,29.68 C36.9191347,29.7050045 36.8508653,29.7050045 36.79,29.68 L36.79,29.68 L35.37,29 C35.2963416,28.9549522 35.2036584,28.9549522 35.13,29 L35.13,29 L34,29.7 C33.9333333,29.7888889 33.9333333,29.9111111 34,30 L34,30 L34.9,31.38 C34.9231176,31.4197062 34.9580865,31.4511782 35,31.47 L35,31.47 L36.7,32.31 L39.6,31.31 L39.63,31.31 C40.0426418,31.1670938 40.3476989,30.8149012 40.4302594,30.3860898 C40.5128199,29.9572785 40.3603407,29.5169949 40.0302594,29.2310898 Z M15.31,13.13 L9.37,27.81 L21.31,27.81 L15.31,13.13 Z M23.43,7.77 C22.7506898,7.77 22.2,8.32068976 22.2,9 L22.2,9 L22.2,9.69 C22.936415,9.78974311 23.4867491,10.416868 23.49,11.16 C23.4956148,11.9064625 22.9408688,12.538615 22.2,12.63 L22.2,12.63 L22.2,24.37 L23.08,26.55 L24.58,25.05 C24.6301763,25.0034765 24.6590903,24.9384198 24.66,24.87 L24.66,24.87 L24.66,18.35 L24.51554,18.3431334 C23.7548881,18.2704487 23.16,17.6296961 23.16,16.85 C23.16,16.0215729 23.8315729,15.35 24.66,15.35 L24.66,15.35 L24.66,13.58 L25.29,13.58 C25.9693102,13.58 26.52,13.0293102 26.52,12.35 C26.52,11.6706898 25.9693102,11.12 25.29,11.12 L25.29,11.12 L24.66,11.12 L24.66,9 C24.66,8.32068976 24.1093102,7.77 23.43,7.77 Z M28,21.83 L28,23.15 C28.3322927,23.1005988 28.5787117,22.8159424 28.58,22.48 C28.581938,22.1466648 28.3314029,21.8658926 28,21.83 L28,21.83 Z M24.66,16.2 C24.2899692,16.2 23.99,16.4999692 23.99,16.87 C23.99,17.2400308 24.2899692,17.54 24.66,17.54 L24.66,17.54 Z M32.58,13.19 L32.58,14.53 C32.7585168,14.5327259 32.9305223,14.4630125 33.0567674,14.3367674 C33.1830125,14.2105223 33.2527259,14.0385168 33.25,13.86 C33.24463,13.4922165 32.9477835,13.19537 32.58,13.19 L32.58,13.19 Z M22.2,10.52 L22.2,11.8 C22.485794,11.7189943 22.6822568,11.4570438 22.68,11.16 C22.6788973,10.8640724 22.4837817,10.6039183 22.2,10.52 L22.2,10.52 Z" id="Shape" fill="#000000"></path>
            </g>
        </g>
    </g>
</svg>