<svg xmlns="http://www.w3.org/2000/svg" viewBox="0 0 48 48"><defs><style>.cls-1{fill:#fff;}</style></defs><g id="Postive"><circle class="cls-1" cx="24" cy="24" r="24"/><path d="M37.08,37.57a2.79,2.79,0,0,0-1,.47,1.82,1.82,0,0,1-1.17.39,3.44,3.44,0,0,1-.7-6.81,3.26,3.26,0,0,1,.7-.07.41.41,0,0,0,0-.81,4.12,4.12,0,0,0-.86.09,4.25,4.25,0,0,0,.86,8.41h.22A17.2,17.2,0,0,0,37.08,37.57ZM44.22,24c0,.34,0,.69,0,1l0,.42c0,.2,0,.4-.05.6s0,.35-.07.53,0,.32-.06.48-.07.4-.1.6,0,.26-.07.38-.1.45-.16.67l-.06.3-.21.73-.06.22c-.08.26-.17.52-.26.78a.88.88,0,0,0,0,.15c-.1.27-.21.54-.32.81a.42.42,0,0,1,0,.1c-.12.28-.24.56-.37.84l0,0c-.13.29-.28.57-.43.85h0a20.44,20.44,0,0,1-6.65,7.3c-.34.22-.68.43-1,.64a20.19,20.19,0,0,1-25.4-4.24h0a18.27,18.27,0,0,1-1.16-1.47c-.38-.53-.74-1.09-1.07-1.65A20.25,20.25,0,0,1,4,27.22a.13.13,0,0,0,0-.06l-.12-.9a.77.77,0,0,0,0-.15c0-.28-.05-.57-.06-.85,0-.07,0-.14,0-.2,0-.35,0-.71,0-1.06a20.57,20.57,0,0,1,.64-5.06A20.1,20.1,0,0,1,9.71,9.7a19.73,19.73,0,0,1,3-2.47,21.18,21.18,0,0,1,2.54-1.46,20.08,20.08,0,0,1,8.76-2,20.57,20.57,0,0,1,5.06.63A20.28,20.28,0,0,1,43.59,18.94,20.57,20.57,0,0,1,44.22,24ZM38,36.65l.59-.69a2.64,2.64,0,0,0-.92-.15,2.6,2.6,0,0,0-1.62.54,1.8,1.8,0,0,1-1.17.39,1.7,1.7,0,0,1-1.7-1.7,1.82,1.82,0,0,1,1-1.64.4.4,0,0,0,.2-.53.42.42,0,0,0-.54-.2A2.63,2.63,0,0,0,32.37,35a2.51,2.51,0,0,0,2.51,2.51A2.58,2.58,0,0,0,36.5,37a1.82,1.82,0,0,1,1.17-.4A1.69,1.69,0,0,1,38,36.65Zm-4.83,3.83a6.21,6.21,0,0,1-3.56-8.4H7a18.83,18.83,0,0,0,26.21,8.4Zm-5.58-9.2V14.62H19.71V31.28Zm-8.69,0V19.71H16.73V31.28ZM17.7,18.9V9.68H11.91v7.44h.81V31.28h3.2V18.9ZM11.91,31.28V17.93h-4V31.28Z"/><path class="cls-1" d="M38.59,36l-.59.69a1.69,1.69,0,0,0-.33,0,1.82,1.82,0,0,0-1.17.4,2.58,2.58,0,0,1-1.62.53A2.51,2.51,0,0,1,32.37,35a2.63,2.63,0,0,1,1.52-2.37.42.42,0,0,1,.54.2.4.4,0,0,1-.2.53,1.82,1.82,0,0,0-1,1.64,1.7,1.7,0,0,0,1.7,1.7,1.8,1.8,0,0,0,1.17-.39,2.6,2.6,0,0,1,1.62-.54A2.64,2.64,0,0,1,38.59,36Z"/><path class="cls-1" d="M36.07,38a2.79,2.79,0,0,1,1-.47,17.2,17.2,0,0,1-2,1.66H34.9A4.25,4.25,0,0,1,34,30.83a4.12,4.12,0,0,1,.86-.09.41.41,0,0,1,0,.81,3.26,3.26,0,0,0-.7.07,3.44,3.44,0,0,0,.7,6.81A1.82,1.82,0,0,0,36.07,38Z"/><path class="cls-1" d="M29.06,34.65a6.19,6.19,0,0,0,4.11,5.83A18.83,18.83,0,0,1,7,32.08H29.61A6.17,6.17,0,0,0,29.06,34.65ZM26.32,36.5V33.87H23.7V36.5Zm-.86,3.94a.79.79,0,1,0-1-.53A.79.79,0,0,0,25.46,40.44Zm-3.16.33V38.15H19.67v2.62Zm-1.24-4.41a.8.8,0,1,0-1-.54A.81.81,0,0,0,21.06,36.36Zm-3.21-.45V33.28H15.22v2.63Zm-.63,3.23a.8.8,0,0,0,.54-1,.8.8,0,1,0-.54,1Zm-4.64-3.22a.79.79,0,1,0-1-.53A.8.8,0,0,0,12.58,35.92Z"/><path class="cls-1" d="M27.59,14.62V31.28H19.71V14.62h7.88ZM27,19.79v-.41a.15.15,0,0,0-.15-.15H20.46a.16.16,0,0,0-.16.15v.41a.16.16,0,0,0,.16.16h6.38A.16.16,0,0,0,27,19.79Zm0-1.1v-.41a.16.16,0,0,0-.15-.16H20.46a.16.16,0,0,0-.16.16v.41a.16.16,0,0,0,.16.15h6.38A.15.15,0,0,0,27,18.69Zm0-1.11v-.41a.15.15,0,0,0-.15-.15H20.46a.16.16,0,0,0-.16.15v.41a.16.16,0,0,0,.16.16h6.38A.16.16,0,0,0,27,17.58Zm0-1.1v-.41a.16.16,0,0,0-.15-.16H20.46a.16.16,0,0,0-.16.16v.41a.16.16,0,0,0,.16.15h6.38A.15.15,0,0,0,27,16.48Z"/><path d="M27,19.38v.41a.16.16,0,0,1-.15.16H20.46a.16.16,0,0,1-.16-.16v-.41a.16.16,0,0,1,.16-.15h6.38A.15.15,0,0,1,27,19.38Z"/><path d="M27,18.28v.41a.15.15,0,0,1-.15.15H20.46a.16.16,0,0,1-.16-.15v-.41a.16.16,0,0,1,.16-.16h6.38A.16.16,0,0,1,27,18.28Z"/><path d="M27,17.17v.41a.16.16,0,0,1-.15.16H20.46a.16.16,0,0,1-.16-.16v-.41a.16.16,0,0,1,.16-.15h6.38A.15.15,0,0,1,27,17.17Z"/><path d="M27,16.07v.41a.15.15,0,0,1-.15.15H20.46a.16.16,0,0,1-.16-.15v-.41a.16.16,0,0,1,.16-.16h6.38A.16.16,0,0,1,27,16.07Z"/><rect x="23.7" y="33.87" width="2.62" height="2.63"/><path d="M26,39.45a.79.79,0,1,1-1-.53A.79.79,0,0,1,26,39.45Z"/><rect x="19.67" y="38.15" width="2.63" height="2.62"/><path d="M21.6,35.37a.8.8,0,1,1-1-.54A.81.81,0,0,1,21.6,35.37Z"/><rect class="cls-1" x="16.73" y="19.71" width="2.17" height="11.57"/><rect x="15.22" y="33.28" width="2.63" height="2.63"/><path d="M17.76,38.15a.8.8,0,0,1-.54,1,.79.79,0,1,1,.54-1Z"/><path class="cls-1" d="M17.7,9.68V18.9H15.92V31.28h-3.2V17.12h-.81V9.68ZM17,12.83v-.45a.13.13,0,0,0-.13-.13H12.73a.13.13,0,0,0-.14.13v.45a.13.13,0,0,0,.14.13h4.12A.13.13,0,0,0,17,12.83Zm0-1.1v-.44a.13.13,0,0,0-.13-.14H12.73a.14.14,0,0,0-.14.14v.44a.14.14,0,0,0,.14.14h4.12A.13.13,0,0,0,17,11.73Z"/><path d="M17,12.38v.45a.13.13,0,0,1-.13.13H12.73a.13.13,0,0,1-.14-.13v-.45a.13.13,0,0,1,.14-.13h4.12A.13.13,0,0,1,17,12.38Z"/><path d="M17,11.29v.44a.13.13,0,0,1-.13.14H12.73a.14.14,0,0,1-.14-.14v-.44a.14.14,0,0,1,.14-.14h4.12A.13.13,0,0,1,17,11.29Z"/><path d="M13.12,34.93a.8.8,0,1,1-1-.53A.8.8,0,0,1,13.12,34.93Z"/><path class="cls-1" d="M11.91,17.93V31.28h-4V17.93Zm-.72,6.31v-.45a.13.13,0,0,0-.14-.13H8.71a.13.13,0,0,0-.13.13v.45a.13.13,0,0,0,.13.13h2.34A.13.13,0,0,0,11.19,24.24Zm0-1.11v-.44a.14.14,0,0,0-.14-.14H8.71a.13.13,0,0,0-.13.14v.44a.13.13,0,0,0,.13.14h2.34A.14.14,0,0,0,11.19,23.13Zm0-1.1v-.45a.13.13,0,0,0-.14-.13H8.71a.13.13,0,0,0-.13.13V22a.13.13,0,0,0,.13.13h2.34A.13.13,0,0,0,11.19,22Zm0-1.11v-.44a.14.14,0,0,0-.14-.14H8.71a.13.13,0,0,0-.13.14v.44a.13.13,0,0,0,.13.14h2.34A.14.14,0,0,0,11.19,20.92Zm0-1.1v-.45a.13.13,0,0,0-.14-.13H8.71a.13.13,0,0,0-.13.13v.45a.13.13,0,0,0,.13.13h2.34A.13.13,0,0,0,11.19,19.82Z"/><path d="M11.19,23.79v.45a.13.13,0,0,1-.14.13H8.71a.13.13,0,0,1-.13-.13v-.45a.13.13,0,0,1,.13-.13h2.34A.13.13,0,0,1,11.19,23.79Z"/><path d="M11.19,22.69v.44a.14.14,0,0,1-.14.14H8.71a.13.13,0,0,1-.13-.14v-.44a.13.13,0,0,1,.13-.14h2.34A.14.14,0,0,1,11.19,22.69Z"/><path d="M11.19,21.58V22a.13.13,0,0,1-.14.13H8.71A.13.13,0,0,1,8.58,22v-.45a.13.13,0,0,1,.13-.13h2.34A.13.13,0,0,1,11.19,21.58Z"/><path d="M11.19,20.48v.44a.14.14,0,0,1-.14.14H8.71a.13.13,0,0,1-.13-.14v-.44a.13.13,0,0,1,.13-.14h2.34A.14.14,0,0,1,11.19,20.48Z"/><path d="M11.19,19.37v.45a.13.13,0,0,1-.14.13H8.71a.13.13,0,0,1-.13-.13v-.45a.13.13,0,0,1,.13-.13h2.34A.13.13,0,0,1,11.19,19.37Z"/></g></svg>