<svg xmlns="http://www.w3.org/2000/svg" viewBox="0 0 150 150" width="55.6" height="55.6"><title>algae_blooms</title><g id="Layer_2" data-name="Layer 2"><g id="Postive"><rect x="101.49" y="90" width="3.64" height="3.64"/><rect x="60.13" y="90" width="3.64" height="3.64"/><rect x="86.49" y="86.36" width="3.64" height="3.64"/><rect x="75" y="105" width="3.64" height="3.64"/><path d="M147.64,56.26A75.31,75.31,0,1,0,150,75,75.14,75.14,0,0,0,147.64,56.26ZM130.73,102H98.21a4.58,4.58,0,0,0-4.64,4.51h0A4.58,4.58,0,0,0,98.21,111h17.27a4.51,4.51,0,1,1,0,9H38a4.51,4.51,0,1,1,0-9h23.1a4.58,4.58,0,0,0,4.64-4.51h0A4.58,4.58,0,0,0,61.05,102H19.77a4.51,4.51,0,1,1,0-9h32a4.51,4.51,0,1,0,0-9h-9.3a4.51,4.51,0,1,1,0-9H53a29.76,29.76,0,0,0,38.94,5,30.18,30.18,0,0,0,5.65-5H123a4.51,4.51,0,1,1,0,9h-6.19a4.51,4.51,0,1,0,0,9h13.94a4.51,4.51,0,1,1,0,9ZM50.46,55.2A24.8,24.8,0,1,1,75.25,80,24.81,24.81,0,0,1,50.46,55.2Z"/><path d="M59.4,55a5.11,5.11,0,0,0-.77,2.68v5.37h0v1.8a1.5,1.5,0,0,0,3,0v-.3h1.89a1.5,1.5,0,0,0,0-3H61.63V57.68a2.12,2.12,0,0,1,2.12-2.12,5,5,0,0,0,2.45-.66l1.5,1.5a1.47,1.47,0,0,0,1.06.44,1.45,1.45,0,0,0,1.06-.44,1.49,1.49,0,0,0,0-2.12l-1.53-1.53a5,5,0,0,0,.58-2.32V42.36a1.5,1.5,0,0,0-3,0v.3H64a1.5,1.5,0,1,0,0,3h1.89v4.77a2.12,2.12,0,0,1-2.12,2.13,5,5,0,0,0-2.09.46L60,51.35a1.5,1.5,0,1,0-2.12,2.12Z"/><path d="M75,72.51a3.82,3.82,0,0,0,3.52-2.33h3.11a3.5,3.5,0,0,0,3.5-3.5V59.83a1.5,1.5,0,1,0-3,0v6.85a.5.5,0,0,1-.5.5H78.52A3.83,3.83,0,1,0,75,72.51Z"/><path d="M83.26,50.4a5.33,5.33,0,1,0-5.33-5.32A5.33,5.33,0,0,0,83.26,50.4Zm0-7.65a2.33,2.33,0,1,1-2.33,2.33A2.32,2.32,0,0,1,83.26,42.75Z"/></g></g></svg>