<svg xmlns="http://www.w3.org/2000/svg" viewBox="0 0 56 56"><g id="Postive"><path d="M39.62,11.11A1.57,1.57,0,1,0,41,12.89,1.59,1.59,0,0,0,39.62,11.11Z"/><path d="M28,0A28,28,0,1,0,56,28,28,28,0,0,0,28,0ZM39.49,16.06a3.42,3.42,0,0,1-1.66-.4c-.27-.14-.42-.07-.6.15A6.72,6.72,0,0,0,35.8,20a43.34,43.34,0,0,0,.63,6.11c.25,2.27.51,4.54.62,6.83A12.83,12.83,0,0,1,35.6,40a11.38,11.38,0,0,1-7.46,5.54,13.42,13.42,0,0,1-4.28.38,1.84,1.84,0,0,0-.33,0l-1.42-.18c-.73-.2-1.48-.37-2.2-.61a12.88,12.88,0,0,1-7.6-6.26,9.92,9.92,0,0,1-1.08-4.78,12.61,12.61,0,0,1,2-7,9.89,9.89,0,0,1,4.17-3.46,1.63,1.63,0,0,1,.45-.06,1.79,1.79,0,0,1,0,.47c-.46,1.07-1.39,8.73-1.43,9.21-.25-.2-1.37-2.33-1.57-2.5-.42-.35-.63-.29-.75.24a8.71,8.71,0,0,0,2.16,8.46A11.38,11.38,0,0,0,28,42.81a7.43,7.43,0,0,0,5.95-5.93A16.46,16.46,0,0,0,34.32,32c-.29-2.86-.65-5.71-1-8.56A21.38,21.38,0,0,1,33.15,19a8.61,8.61,0,0,1,2-5,4.32,4.32,0,0,0,1-2.08A3.3,3.3,0,0,1,39.87,9.3a3.39,3.39,0,0,1-.38,6.76Z"/></g></svg>