<svg xmlns="http://www.w3.org/2000/svg" viewBox="0 0 56 56"><g id="Postive"><path d="M56,28c0,.48,0,1,0,1.44,0,.19,0,.38,0,.57s0,.56-.07.84-.06.48-.09.73,0,.44-.08.66-.1.56-.15.84l-.09.53c-.07.31-.14.62-.22.93l-.09.41c-.09.34-.19.67-.29,1,0,.1-.05.2-.08.31-.11.36-.24.71-.36,1.07l-.08.21c-.13.38-.28.75-.43,1.12l-.06.14c-.16.39-.33.78-.51,1.16l0,.07c-.19.4-.39.79-.59,1.18h0a28.12,28.12,0,0,1-9.2,10.1c-.47.32-.95.61-1.44.89A28,28,0,0,1,6.86,46.35h0a24.46,24.46,0,0,1-1.61-2c-.53-.73-1-1.5-1.48-2.28a27.58,27.58,0,0,1-3.4-9.56s0-.05,0-.08C.28,32,.22,31.55.18,31.13l0-.2c0-.39-.07-.78-.09-1.18a2.46,2.46,0,0,1,0-.28C0,29,0,28.5,0,28a27.78,27.78,0,0,1,.88-7A28,28,0,0,1,12.34,4.79a27.25,27.25,0,0,1,3.52-2A28,28,0,0,1,28,0a28.38,28.38,0,0,1,7,.88A28,28,0,0,1,56,28ZM47.38,45.52c.27-.31.55-.62.81-1a3.74,3.74,0,0,0-1.26-.2,3.64,3.64,0,0,0-2.25.73,2.48,2.48,0,0,1-1.62.55A2.36,2.36,0,0,1,40.7,43.3,2.51,2.51,0,0,1,42.16,41a.56.56,0,0,0-.47-1,3.63,3.63,0,0,0-2.11,3.29,3.48,3.48,0,0,0,3.48,3.47A3.63,3.63,0,0,0,45.3,46a2.5,2.5,0,0,1,1.63-.55A3.19,3.19,0,0,1,47.38,45.52Zm-1.24,1.27a3.59,3.59,0,0,0-1.43.66,2.58,2.58,0,0,1-1.63.55,4.77,4.77,0,0,1-1-9.44,4.41,4.41,0,0,1,1-.1.56.56,0,0,0,0-1.12,5.76,5.76,0,0,0-1.18.12,5.89,5.89,0,0,0,1.18,11.66l.31,0A26.47,26.47,0,0,0,46.14,46.79Zm-5.45,4A8.55,8.55,0,0,1,35.77,39.2H32.06V37.86H27.42V39.2H24.27a2.23,2.23,0,0,0-1.66-.75,2.3,2.3,0,0,0-.64.09,2.21,2.21,0,0,0-1,.66H18v-1H13.37v1H10.74a2.23,2.23,0,0,0-2.06-1.42,2,2,0,0,0-.64.1A2.19,2.19,0,0,0,6.61,39.2H4.39A26.19,26.19,0,0,0,25.42,54a24.49,24.49,0,0,0,2.58.13A26,26,0,0,0,40.69,50.83Z"/><rect x="31.5" y="46.37" width="2.64" height="2.64"/><rect x="28.42" y="39.2" width="2.64" height="2.3"/><rect x="28.42" y="38.86" width="2.64" height="0.34"/><path d="M28.91,45.3a1.1,1.1,0,0,1-.74,1.37,1.18,1.18,0,0,1-.31,0,1.1,1.1,0,0,1-.32-2.16,1.19,1.19,0,0,1,.32-.05A1.1,1.1,0,0,1,28.91,45.3Z"/><polygon points="28.25 49.39 28.25 52.03 25.61 52.03 25.61 49.39 27.86 49.39 28.25 49.39"/><path d="M23.66,40.36a1.09,1.09,0,0,1-.74,1.37,1.18,1.18,0,0,1-.31.05,1.1,1.1,0,0,1-.32-2.16,1.19,1.19,0,0,1,.32,0A1.1,1.1,0,0,1,23.66,40.36Z"/><rect x="20.66" y="43.99" width="2.64" height="2.64"/><path d="M19.78,48.84a1.1,1.1,0,1,1-1.37-.75,1.17,1.17,0,0,1,.32,0A1.1,1.1,0,0,1,19.78,48.84Z"/><rect x="14.37" y="39.2" width="2.64" height="2.64"/><path d="M15.78,44.53a1.12,1.12,0,1,1-1.06-.79A1.1,1.1,0,0,1,15.78,44.53Z"/><path d="M9.73,39.7a1.1,1.1,0,1,1-1.79-.5H9.41A1,1,0,0,1,9.73,39.7Z"/><path d="M9.41,39.2H7.94A1.12,1.12,0,0,1,8.36,39a1.17,1.17,0,0,1,.32,0A1.05,1.05,0,0,1,9.41,39.2Z"/></g></svg>