<svg xmlns="http://www.w3.org/2000/svg" viewBox="0 0 150 150" width="55.6" height="55.6"><title>sewage_runoff</title><g id="Layer_2" data-name="Layer 2"><g id="Postive"><path d="M147.64,56.26A74.92,74.92,0,0,0,75,0c-1.3,0-2.6,0-3.89.1L70,.18c-.92.06-1.85.12-2.77.22-.38,0-.75.09-1.13.14-.89.1-1.78.21-2.66.34l-1.06.19c-.9.15-1.79.3-2.68.49-.31.06-.61.14-.92.21-.92.2-1.84.41-2.75.65-.26.06-.52.14-.77.21-1,.26-1.9.53-2.84.82l-.61.21c-1,.32-2,.65-2.93,1l-.46.19c-1,.38-2,.77-3,1.2l-.34.15c-1,.44-2,.9-3,1.39l-.22.11c-1,.51-2.05,1-3.06,1.6l-.12.07c-1,.57-2.06,1.17-3.06,1.79l0,0A75.08,75.08,0,0,0,1.5,60h0A74.55,74.55,0,0,0,.38,67.39a1.09,1.09,0,0,1,0,.18C.25,68.76.16,70,.1,71.16S0,73.71,0,75A75,75,0,1,0,147.64,56.26ZM130.73,102H98.21a4.58,4.58,0,0,0-4.64,4.51h0A4.58,4.58,0,0,0,98.21,111h17.27a4.51,4.51,0,1,1,0,9H38a4.51,4.51,0,1,1,0-9h23.1a4.58,4.58,0,0,0,4.64-4.51h0A4.58,4.58,0,0,0,61.05,102H19.77a4.51,4.51,0,1,1,0-9h32a4.51,4.51,0,1,0,0-9h-9.3a4.51,4.51,0,1,1,0-9H71c-.52,2.62-2.36,2.63-3,2.63a2.5,2.5,0,0,0,0,5c4.59,0,7.78-3.23,8.11-8.22.39-5.88-3.27-14.26-10.78-18.9v-8A29,29,0,0,1,83,74.08v3.66a2.5,2.5,0,0,0,5,0V74.08a34.05,34.05,0,0,0-22.65-32V34.72A41,41,0,0,1,95,74.08c0,5.31,3,8.49,8,8.49a2.5,2.5,0,0,0,0-5c-1.37,0-2.69-.23-2.94-2.63H123a4.51,4.51,0,1,1,0,9h-6.19a4.51,4.51,0,1,0,0,9h13.94a4.51,4.51,0,1,1,0,9ZM60.36,40.72V66.58H50.51V19h9.85v21.7ZM28.7,22.57H45.51V60H6.64A69.92,69.92,0,0,1,28.7,22.57Z"/></g></g></svg>