<svg xmlns="http://www.w3.org/2000/svg" viewBox="0 0 48 48"><defs><style>.cls-1{fill:#fff;}</style></defs><g id="Postive"><circle class="cls-1" cx="24" cy="24" r="24"/><path d="M18.19,21.84c-.14-.22-.27-.44-.43-.68L17,22.42s0,.11,0,.15c.17.29.36.58.54.88l.21.32c.26-.43.52-.83.76-1.24,0,0,0-.11,0-.16Z"/><path d="M20.46,22.12a10,10,0,0,1-.6-.94l-.05,0c-.25.39-.49.78-.73,1.17a.25.25,0,0,0,0,.17c.16.27.32.52.49.78s.17.27.27.43c.21-.34.38-.66.6-.95A.5.5,0,0,0,20.46,22.12Z"/><path d="M19.58,27.52a.16.16,0,0,0,0-.15c-.24-.4-.49-.8-.76-1.22-.26.43-.52.83-.77,1.24a.13.13,0,0,0,0,.12l.77,1.25C19.07,28.33,19.33,27.93,19.58,27.52Z"/><path d="M18,24.2l.76,1.23c.22-.34.39-.67.62-1a.49.49,0,0,0,0-.68c-.22-.3-.4-.63-.61-1L18,24.05A.19.19,0,0,0,18,24.2Z"/><path d="M16.22,23.63c-.1.16-.27.33-.27.49s.17.34.27.51l.5.8c.27-.42.52-.82.77-1.23a.19.19,0,0,0,0-.15l-.77-1.23Z"/><path d="M16.39,28.22c.11.18.22.35.33.54.27-.42.52-.83.77-1.23a.19.19,0,0,0,0-.15c-.25-.4-.5-.81-.77-1.23L16,27.38a.23.23,0,0,0,0,.18C16.11,27.78,16.25,28,16.39,28.22Z"/><path d="M17.8,27a9.13,9.13,0,0,1,.53-.84.57.57,0,0,0,0-.82c-.21-.27-.37-.58-.57-.89-.27.43-.53.84-.78,1.26a.22.22,0,0,0,0,.11l.76,1.22Z"/><path d="M20.61,25.86a.17.17,0,0,0,0-.12c-.26-.41-.51-.82-.79-1.25l-.78,1.25a.14.14,0,0,0,0,.11l.77,1.25C20.11,26.67,20.37,26.27,20.61,25.86Z"/><path d="M15,20.08l-.37-.58c-.23.37-.44.73-.67,1.07A.34.34,0,0,0,14,21c.23.34.44.7.68,1.07l.77-1.26s0-.1,0-.15Z"/><path d="M13.61,17.83c-.23.36-.43.71-.66,1a.4.4,0,0,0,0,.55c.23.32.43.67.66,1,.26-.43.52-.83.77-1.24a.13.13,0,0,0,0-.12Z"/><path d="M11.75,20.8l.82,1.31.77-1.24a.15.15,0,0,0,0-.13l-.77-1.24Z"/><path d="M10.76,22.39a.17.17,0,0,0,0,.14l.78,1.24L12,23c.1-.17.29-.34.29-.52s-.19-.35-.3-.52-.31-.51-.49-.78Z"/><path d="M18,20.74a.15.15,0,0,0,0,.13c.24.41.5.81.76,1.24.27-.43.53-.83.77-1.24a.15.15,0,0,0,0-.13c-.25-.41-.5-.82-.77-1.24Z"/><path d="M17.76,17.84,17,19.09a.14.14,0,0,0,0,.11l.77,1.24c.2-.3.37-.58.54-.86s.25-.29.25-.43-.15-.3-.24-.45Z"/><path d="M16,20.73a.17.17,0,0,0,0,.12l.78,1.26.78-1.25a.15.15,0,0,0,0-.13c-.25-.41-.5-.81-.77-1.23C16.46,19.92,16.2,20.33,16,20.73Z"/><path d="M14.91,22.4a.13.13,0,0,0,0,.12l.77,1.24a1,1,0,0,0,.1-.15c.17-.26.31-.54.5-.78a.51.51,0,0,0,0-.73c-.22-.29-.39-.61-.6-.94C15.42,21.59,15.16,22,14.91,22.4Z"/><path d="M10.76,25.72a.23.23,0,0,0,0,.18c.13.22.27.44.41.66l.34.54c.26-.43.52-.83.76-1.23a.19.19,0,0,0,0-.15l-.76-1.23C11.26,24.91,11,25.31,10.76,25.72Z"/><path d="M21.14,25.74a.17.17,0,0,0,0,.1l.78,1.26.26-.41V24.9l-.26-.41Z"/><path d="M21.15,22.41a.19.19,0,0,0,0,.16c.22.36.44.72.67,1.08,0,0,0,.06.08.11l.25-.39V21.71c-.09-.17-.19-.33-.28-.51C21.65,21.6,21.39,22,21.15,22.41Z"/><path d="M22.18,20.68V19.1a3.19,3.19,0,0,0-.09.63A3.33,3.33,0,0,0,22.18,20.68Z"/><path d="M16.26,26.19a.55.55,0,0,0,0-.79c-.21-.28-.38-.6-.58-.91l-.76,1.22a.17.17,0,0,0,0,.14l.77,1.25C15.88,26.78,16.05,26.47,16.26,26.19Z"/><path d="M23.48,26.13l0,0s0,0,0,0Z"/><path d="M8.89,17.17a.16.16,0,0,0-.07.25l.23.3c.18-.23.18-.23,0-.47C9,17.18,9,17.1,8.89,17.17Z"/><path d="M21.15,29.06a.13.13,0,0,0,0,.12l.77,1.24.26-.4v-1.8l-.26-.4Z"/><path d="M14.65,25.43a8.88,8.88,0,0,1,.58-.91.54.54,0,0,0,0-.78,10.12,10.12,0,0,1-.58-.91c-.27.43-.53.83-.78,1.24a.13.13,0,0,0,0,.12C14.12,24.6,14.38,25,14.65,25.43Z"/><path d="M14.38,25.85a.19.19,0,0,0,0-.13c-.26-.4-.51-.81-.77-1.23-.27.42-.52.82-.77,1.23a.17.17,0,0,0,0,.14c.25.41.51.81.77,1.24Z"/><path d="M14.57,28.64a.76.76,0,0,0,.08.11l.76-1.22a.14.14,0,0,0,0-.14c-.24-.41-.5-.81-.77-1.24l-.77,1.25a.19.19,0,0,0,0,.16C14.12,27.92,14.34,28.28,14.57,28.64Z"/><path d="M21.54,27.73a.41.41,0,0,0,0-.55c-.23-.33-.42-.68-.65-1-.26.43-.52.83-.77,1.24a.2.2,0,0,0,0,.15c.25.4.5.79.76,1.22C21.11,28.4,21.31,28.05,21.54,27.73Z"/><path d="M12.57,25.43l.77-1.24a.14.14,0,0,0,0-.11c-.25-.41-.51-.82-.79-1.26l-.77,1.25s0,.11,0,.16l.52.83Z"/><path d="M10.49,19.5c-.1.16-.19.29-.27.43a.49.49,0,0,0-.07.19L10,21.25a.44.44,0,0,0,0,.16l.44.7c.21-.34.38-.67.6-1a.5.5,0,0,0,0-.7C10.87,20.15,10.69,19.83,10.49,19.5Z"/><path d="M13.6,21.16l-.76,1.24a.17.17,0,0,0,0,.12c.26.41.52.82.78,1.25l.79-1.25a.17.17,0,0,0,0-.12C14.12,22,13.87,21.58,13.6,21.16Z"/><path d="M21.22,30l-.34-.53c-.26.42-.52.82-.76,1.23a.2.2,0,0,0,0,.15c.2.34.41.67.63,1a2.79,2.79,0,0,0,.9-1,.23.23,0,0,0,0-.18C21.5,30.45,21.36,30.24,21.22,30Z"/><path d="M9.45,27.1c.26-.43.52-.83.76-1.24a.15.15,0,0,0,0-.13c-.25-.41-.51-.81-.77-1.24l-.78,1.25a.13.13,0,0,0,0,.12C8.92,26.27,9.18,26.67,9.45,27.1Z"/><path d="M9,24.42c.2-.31.2-.31,0-.61l0,0c-.09.37-.17.73-.27,1.12l.07,0Z"/><path d="M38.3,9.7a21.44,21.44,0,0,0-3-2.47,22,22,0,0,0-2.54-1.46,20.29,20.29,0,0,0-8.77-2A20,20,0,0,0,19,4.42,20.25,20.25,0,0,0,4.42,19,20,20,0,0,0,3.78,24a20.29,20.29,0,0,0,2,8.77,22,22,0,0,0,1.46,2.54,21.44,21.44,0,0,0,2.47,3A20.22,20.22,0,0,0,38.3,9.7Zm-5.72,3.43h0a.68.68,0,0,1,0,1.35h0ZM28,21.82a.69.69,0,0,1,.58.67.68.68,0,0,1-.58.66Zm-5.8-11.3a.67.67,0,0,1,.48.64.66.66,0,0,1-.48.64ZM31.6,33.16,29,35.78a.25.25,0,0,1-.18.08H25.22l.45,4.32H22.33l-.08-8.71a.26.26,0,0,0-.07-.19V31a7.58,7.58,0,0,1-4.52,2.82c-.52.11-1.06.14-1.6.21v0a7.83,7.83,0,0,1-7.61-6.12A7.93,7.93,0,0,1,9.39,22a3.54,3.54,0,0,0,.37-2,2.67,2.67,0,0,0-.9-1.86,2.44,2.44,0,0,1-.35-.43.51.51,0,0,1,.23-.8,1.58,1.58,0,0,1,1.15-.06,6.29,6.29,0,0,1,1,.36A1.13,1.13,0,0,0,12,17.07a6.27,6.27,0,0,0,.59-.42,3.73,3.73,0,0,0,.3-.26,1.09,1.09,0,0,1,1.23-.19c.53.2,1.08.34,1.63.49a1,1,0,0,0,.81-.14l.89-.57a1.18,1.18,0,0,1,1.32,0c.31.2.62.42.92.63a1.25,1.25,0,0,0,1.4.11,3.11,3.11,0,0,1,1.11-.34V12.63a1.48,1.48,0,0,0,0-2.93V9a1.23,1.23,0,1,1,2.45,0v2.12h.64a1.23,1.23,0,0,1,1.22,1.23h0a1.22,1.22,0,0,1-1.22,1.22h-.64v1.77h0a1.49,1.49,0,0,0-1.44,1.14c.31.19.35.52.07.89h0a1.48,1.48,0,0,0,1.37.92h0v6.53a.23.23,0,0,1-.07.17l-.69.69a7.72,7.72,0,0,1-.4,2.85l.36.35a.23.23,0,0,0,.34,0l3.74-3.73A.24.24,0,0,0,28,25V24A1.48,1.48,0,0,0,28,21V15.4a1.23,1.23,0,1,1,2.45,0v4.79a.24.24,0,0,0,.42.17l1.66-1.66a.24.24,0,0,0,.07-.18V15.28h0a1.49,1.49,0,0,0,0-3h0v-.56a1.23,1.23,0,0,1,2.45,0v4.94h.65a1.23,1.23,0,1,1,0,2.45H35v.37a.22.22,0,0,1-.07.17L30.5,24.18a.21.21,0,0,0-.07.17l0,1.69a.28.28,0,0,1-.07.17l-1.05,1.06.45.45A1.22,1.22,0,1,1,28,29.45L27.56,29l-1.83,1.84-.51.51v1.8a.25.25,0,0,0,.25.25h2.32a.21.21,0,0,0,.17-.08l2.11-2.1a.24.24,0,0,1,.41.11l.29,1.1a.24.24,0,0,0,.18.18l.53.13A.24.24,0,0,1,31.6,33.16Zm-7-15.62h0a.67.67,0,0,1,0-1.34h0Zm15,13.77-2.91,1h0l-1.78-.86a.14.14,0,0,1-.09-.08L34,30A.24.24,0,0,1,34,29.7L35.12,29a.25.25,0,0,1,.25,0l1.41.68a.25.25,0,0,0,.19,0L38.83,29a1.23,1.23,0,0,1,.8,2.32Z"/><path d="M9.19,27.41l-.51-.81,0,0c.07.44.15.89.22,1.34H8.9c.1-.16.2-.31.29-.47A.14.14,0,0,0,9.19,27.41Z"/><path d="M10.2,29l-.75-1.22a3.83,3.83,0,0,1-.25.39.49.49,0,0,0-.06.6c.19.39.37.78.57,1.21l.5-.81A.2.2,0,0,0,10.2,29Z"/><path d="M14,16.57c-.31-.15-.5-.15-.67,0l.33.53Z"/><path d="M10.75,19.19c.25.42.51.83.78,1.25.26-.42.52-.83.77-1.25a.13.13,0,0,0,0-.12c-.25-.4-.51-.81-.77-1.24-.27.43-.53.84-.78,1.26A.09.09,0,0,0,10.75,19.19Z"/><path d="M13.35,17.53a.14.14,0,0,0,0-.09l-.37-.6-1.15.77c.22.36.46.75.73,1.17Z"/><path d="M11.23,30.68l-.64-1-.11-.15-.54.86.93,1.11a6.62,6.62,0,0,0,.36-.58A.23.23,0,0,0,11.23,30.68Z"/><path d="M10.42,18.67l.08.1c.24-.4.48-.77.71-1.14l-.49-.19-.7-.26s-.16,0-.18,0-.22.18-.11.36C10,17.94,10.19,18.31,10.42,18.67Z"/><path d="M10.13,18.93c-.18-.3-.37-.6-.56-.9l-.13-.19-.1.18a2.76,2.76,0,0,1,.73,1.38C10.28,19.17,10.28,19.17,10.13,18.93Z"/><path d="M9.45,23.77c.26-.43.52-.84.77-1.24a.13.13,0,0,0,0-.12l-.34-.56c-.06.11-.11.2-.15.29-.18.34-.36.69-.53,1a.23.23,0,0,0,0,.16C9.26,23.48,9.35,23.61,9.45,23.77Z"/><path d="M16.24,33.58l.92-.08-.44-.69Z"/><path d="M17.76,31.14,17,32.39a.15.15,0,0,0,0,.14l.49.8s.05.07.06.07c.18,0,.4-.06.52-.18a3.56,3.56,0,0,0,.45-.69s0-.12,0-.15C18.29,32,18,31.57,17.76,31.14Z"/><path d="M11.16,31.73l1.12.82a4,4,0,0,0-.76-1.39Z"/><path d="M19.07,32.39a.14.14,0,0,0,0,.11l.23.36,1.18-.72-.63-1Z"/><path d="M18.64,33.07l0,0,.25-.1-.12-.2Z"/><path d="M9.73,24.23l.43.69.33.51a7.07,7.07,0,0,1,.55-.86.62.62,0,0,0,0-.89,7.74,7.74,0,0,1-.54-.85c-.28.43-.53.84-.78,1.25C9.69,24.11,9.71,24.19,9.73,24.23Z"/><path d="M13.32,30.68c-.2-.31-.4-.63-.59-.95-.05-.08-.11-.15-.17-.25-.26.43-.52.83-.76,1.23a.16.16,0,0,0,0,.15l.76,1.23c.28-.44.54-.85.79-1.26C13.37,30.8,13.34,30.72,13.32,30.68Z"/><path d="M14.38,32.39l-.78-1.25c-.26.43-.52.83-.77,1.24,0,0,0,.06,0,.08a1.91,1.91,0,0,0,.37.51,2.25,2.25,0,0,0,.64.25.18.18,0,0,0,.15-.06c.14-.2.27-.42.4-.63A.17.17,0,0,0,14.38,32.39Z"/><path d="M16.46,32.4c-.25-.42-.51-.83-.78-1.26-.26.43-.51.82-.76,1.22a.2.2,0,0,0,0,.15l.61,1a.21.21,0,0,0,.34,0l.58-.95A.13.13,0,0,0,16.46,32.4Z"/><path d="M14.3,33.36l.79.15-.45-.7Z"/><path d="M22.13,16.78l-.36.09c.05.09.1.16.15.24C22,17,22.05,16.91,22.13,16.78Z"/><path d="M18.54,29.18a.19.19,0,0,0,0-.16c-.22-.37-.45-.74-.68-1.1l-.08-.09c-.26.42-.51.81-.75,1.21a.2.2,0,0,0,0,.15l.77,1.23C18,30,18.29,29.59,18.54,29.18Z"/><path d="M16.44,31.64c.09.14.18.29.29.45l.76-1.24a.17.17,0,0,0,0-.14c-.25-.41-.5-.81-.77-1.23-.26.42-.52.82-.76,1.23a.23.23,0,0,0,0,.18Z"/><path d="M18.8,32.09l.78-1.25a.17.17,0,0,0,0-.12c-.25-.41-.51-.82-.78-1.24L18,30.73a.13.13,0,0,0,0,.12C18.28,31.26,18.54,31.66,18.8,32.09Z"/><path d="M20.62,29.18a.13.13,0,0,0,0-.12c-.25-.41-.51-.81-.78-1.24l-.52.83c-.09.15-.26.31-.26.46s.17.32.26.48l.52.83C20.11,30,20.37,29.59,20.62,29.18Z"/><path d="M16.24,29.55a.61.61,0,0,0,0-.87,9.1,9.1,0,0,1-.56-.86L14.92,29a.19.19,0,0,0,0,.15l.76,1.23C15.87,30.12,16,29.82,16.24,29.55Z"/><path d="M14.65,32.09c.26-.43.52-.83.77-1.24a.25.25,0,0,0,0-.12c-.26-.41-.52-.82-.78-1.25-.28.43-.53.84-.79,1.25a.14.14,0,0,0,0,.11C14.12,31.25,14.37,31.66,14.65,32.09Z"/><path d="M9.73,27.54c.13.22.26.44.4.65l.36.57c.22-.37.43-.71.65-1a.38.38,0,0,0,0-.52c-.24-.33-.44-.68-.66-1.05-.27.43-.53.83-.78,1.24A.16.16,0,0,0,9.73,27.54Z"/><path d="M12.3,29.19a.14.14,0,0,0,0-.14l-.76-1.23c-.27.42-.52.82-.77,1.23a.13.13,0,0,0,0,.12c.25.42.51.83.78,1.26C11.79,30,12.05,29.59,12.3,29.19Z"/><path d="M13.6,30.42c.27-.42.53-.83.78-1.24a.15.15,0,0,0,0-.13c-.25-.41-.51-.81-.77-1.24-.27.43-.52.82-.76,1.22a.17.17,0,0,0,0,.15Z"/><path d="M13,28c.12-.18.31-.37.31-.56s-.19-.37-.31-.55l-.47-.75-.78,1.26a.14.14,0,0,0,0,.11c.25.4.51.81.77,1.24C12.73,28.49,12.88,28.26,13,28Z"/><path d="M21.48,23.76c-.22-.28-.39-.61-.6-.93l-.76,1.22a.16.16,0,0,0,0,.15c.24.4.49.8.76,1.23.21-.32.38-.64.6-.93A.52.52,0,0,0,21.48,23.76Z"/><path d="M21.7,19.81a3.09,3.09,0,0,1,.32-1.4.39.39,0,0,0-.05-.5l0-.07-.78,1.25s0,.07,0,.09l.54.87A1.06,1.06,0,0,0,21.7,19.81Z"/><path d="M19.26,19.52a10.31,10.31,0,0,1,.58.92c.28-.43.53-.84.78-1.25a.2.2,0,0,0,0-.15l-.44-.7-.32-.5c-.2.32-.37.64-.58.92A.53.53,0,0,0,19.26,19.52Z"/><path d="M18,17.48c0,.17.19.34.29.51l.49.79c.18-.28.34-.53.49-.78s.29-.35.29-.53-.19-.34-.28-.52a1.73,1.73,0,0,0-.63-.57L18.3,17C18.2,17.14,18,17.31,18,17.48Z"/><path d="M18.33,16.22a1,1,0,0,0-1,.27l.4.63C18,16.8,18.14,16.51,18.33,16.22Z"/><path d="M21.67,20.75l-.79-1.25-.77,1.24a.15.15,0,0,0,0,.13c.25.41.51.81.77,1.24l.78-1.25A.14.14,0,0,0,21.67,20.75Zm-.64.67.12-.39A.72.72,0,0,1,21,21.42Z"/><path d="M16.53,18.47l.2.31.76-1.23a.19.19,0,0,0,0-.15c-.14-.24-.29-.47-.43-.7a4.6,4.6,0,0,1-.67.33.63.63,0,0,0-.42.34.17.17,0,0,0,0,.21C16.16,17.88,16.35,18.17,16.53,18.47Z"/><path d="M20.88,18.78l.79-1.26a.12.12,0,0,0,0-.1c-.08-.15-.18-.29-.26-.43l0,0a1.85,1.85,0,0,1-1.1.26c-.08,0-.19.18-.15.25C20.35,17.94,20.61,18.35,20.88,18.78Z"/><path d="M14.64,18.78c.22-.34.39-.66.61-1a.48.48,0,0,0,0-.71c-.07-.07-.12-.16-.2-.19a6.6,6.6,0,0,0-.63-.2.15.15,0,0,0-.14.06,8.09,8.09,0,0,0-.44.69C14.1,17.9,14.36,18.33,14.64,18.78Z"/><path d="M14.92,19.22c.25.4.5.79.76,1.22.28-.43.54-.84.79-1.25,0,0,0-.11,0-.15l-.58-.92a3.23,3.23,0,0,0-.18-.28c-.26.42-.52.82-.76,1.23A.16.16,0,0,0,14.92,19.22Z"/></g></svg>