<svg xmlns="http://www.w3.org/2000/svg" viewBox="0 0 56 56"><g id="Postive"><path d="M56,28q0,.72,0,1.44c0,.19,0,.38,0,.57s0,.56-.07.84-.06.48-.09.73-.05.44-.08.66l-.15.84c0,.17-.06.35-.1.53s-.14.62-.21.92c0,.14-.06.28-.1.42-.08.34-.18.67-.28,1,0,.1-.05.2-.09.3-.11.36-.23.72-.35,1.07,0,.08,0,.15-.08.22-.13.38-.28.75-.43,1.12l-.06.14c-.16.39-.34.77-.52,1.16l0,.07c-.19.39-.39.79-.6,1.18h0a28.27,28.27,0,0,1-9.21,10.1c-.46.31-.95.61-1.43.89A28,28,0,0,1,6.86,46.35h0q-.86-1-1.62-2c-.52-.74-1-1.5-1.47-2.28A27.8,27.8,0,0,1,.36,32.46s0-.05,0-.08C.28,32,.23,31.55.18,31.13c0-.06,0-.13,0-.2,0-.39-.07-.79-.1-1.18a2.46,2.46,0,0,0,0-.28c0-.49,0-1,0-1.47A28,28,0,0,1,8.21,8.2a27.85,27.85,0,0,1,7.66-5.44A27.86,27.86,0,0,1,28,0,28,28,0,0,1,55.12,21,27.92,27.92,0,0,1,56,28ZM47.38,45.52c.28-.31.55-.63.82-1a3.76,3.76,0,0,0-1.27-.2,3.63,3.63,0,0,0-2.24.73,2.5,2.5,0,0,1-1.62.55,2.36,2.36,0,0,1-2.36-2.35A2.51,2.51,0,0,1,42.16,41a.56.56,0,0,0,.28-.74.57.57,0,0,0-.75-.28,3.64,3.64,0,0,0-2.1,3.29,3.48,3.48,0,0,0,3.48,3.47A3.57,3.57,0,0,0,45.31,46a2.53,2.53,0,0,1,1.62-.54A3,3,0,0,1,47.38,45.52Zm-1.23,1.27a3.86,3.86,0,0,0-1.44.65,2.48,2.48,0,0,1-1.62.55,4.76,4.76,0,0,1-1-9.43,4.34,4.34,0,0,1,1-.1.56.56,0,0,0,0-1.12,5.89,5.89,0,1,0,0,11.77h.31A27.55,27.55,0,0,0,46.15,46.79Zm-5.45,4A8.58,8.58,0,0,1,35,42.75a8.67,8.67,0,0,1,.77-3.55H4.4A26.08,26.08,0,0,0,40.7,50.83ZM34.2,32.71H6.4C7.93,33.89,9.28,35,10.68,36a2.51,2.51,0,0,0,1.36.47c5.19,0,10.39,0,15.58.06a4.79,4.79,0,0,0,4-1.51A28.58,28.58,0,0,1,34.2,32.71ZM19,31.82H30.5L19.08,6.5l-.11,0ZM17.81,31c0-5.49,0-11,0-16.48,0-.24,0-.47-.05-.7h-.15c-2.39,6-4.78,11.93-7.23,18.06,2.29,0,4.43,0,6.56,0C17.62,31.91,17.81,31.71,17.81,31Z"/></g></svg>