<svg xmlns="http://www.w3.org/2000/svg" viewBox="0 0 48 48"><defs><style>.cls-1{fill:#fff;}</style></defs><g id="Postive"><circle class="cls-1" cx="24" cy="24" r="24"/><path d="M17.48,8.5V26.75H25.8L17.55,8.47Zm-5,21.6c3.75,0,7.5,0,11.25,0a3.44,3.44,0,0,0,2.89-1.09,22.57,22.57,0,0,1,1.86-1.65H8.4c1.11.85,2.08,1.63,3.09,2.36A1.78,1.78,0,0,0,12.47,30.1ZM16,26.81c.5,0,.64-.14.64-.64,0-4,0-7.93,0-11.9,0-.17,0-.34,0-.5h-.12c-1.71,4.3-3.44,8.62-5.21,13C12.91,26.8,14.46,26.77,16,26.81ZM34.14,41.49A20.21,20.21,0,0,1,8.73,37.25h0q-.62-.7-1.17-1.47c-.38-.53-.73-1.08-1.06-1.65A20.18,20.18,0,0,1,4,27.22s0,0,0-.06c-.05-.29-.09-.6-.12-.9a.68.68,0,0,1,0-.14c0-.29-.05-.57-.07-.86,0-.07,0-.13,0-.2,0-.35,0-.71,0-1.06A20.09,20.09,0,0,1,9.7,9.7a20.6,20.6,0,0,1,5.53-3.93,20.29,20.29,0,0,1,8.77-2,20,20,0,0,1,5.05.64A20.22,20.22,0,0,1,43.58,19,20,20,0,0,1,44.22,24c0,.35,0,.69,0,1,0,.14,0,.28,0,.42s0,.41,0,.61l-.07.52c0,.16,0,.32-.06.48s-.07.41-.11.6,0,.26-.07.38-.1.45-.15.68,0,.2-.07.3-.13.48-.2.72c0,.07,0,.15-.07.23-.08.26-.16.52-.26.77a1,1,0,0,1-.05.16c-.1.26-.2.54-.32.8l0,.11c-.12.28-.25.55-.38.83,0,0,0,0,0,0-.14.29-.28.58-.43.85h0A19.72,19.72,0,0,1,39,37.61a20.44,20.44,0,0,1-3.77,3.24C34.84,41.07,34.49,41.29,34.14,41.49Zm.76-3.05a3.45,3.45,0,0,1-.7-6.82,4.05,4.05,0,0,1,.7-.07.4.4,0,0,0,0-.8,4.11,4.11,0,0,0-.86.08,4.25,4.25,0,0,0,.86,8.42h.22a17.58,17.58,0,0,0,2-1.68,2.82,2.82,0,0,0-1,.48A1.84,1.84,0,0,1,34.9,38.44ZM32.37,35a2.51,2.51,0,0,0,2.5,2.52A2.61,2.61,0,0,0,36.5,37a1.8,1.8,0,0,1,1.17-.4,1.51,1.51,0,0,1,.32,0c.21-.22.4-.45.59-.68a2.69,2.69,0,0,0-2.53.38,1.83,1.83,0,0,1-1.18.4A1.71,1.71,0,0,1,33.18,35a1.8,1.8,0,0,1,1-1.63.41.41,0,0,0,.2-.54.41.41,0,0,0-.54-.2A2.62,2.62,0,0,0,32.37,35Zm-3.76-2.95H7a18.86,18.86,0,0,0,26.21,8.4,6.21,6.21,0,0,1-4.12-5.84,6.14,6.14,0,0,1,.56-2.56Z"/></g></svg>