<svg xmlns="http://www.w3.org/2000/svg" viewBox="0 0 150 150" width="55.6" height="55.6"><title>alert</title><g id="Layer_2" data-name="Layer 2"><g id="Postive"><path d="M147.64,56.26A75.07,75.07,0,1,0,150,75,74.91,74.91,0,0,0,147.64,56.26ZM57.3,106.9a2.5,2.5,0,0,1-1.22,4.69,2.41,2.41,0,0,1-1.21-.32,41.47,41.47,0,0,1-6.35-68.19,2.5,2.5,0,1,1,3.19,3.84,36.48,36.48,0,0,0,5.59,60ZM82.63,90h-15l-7.5-60h30Zm-15,15h15v15h-15Zm27.5,6.27a2.41,2.41,0,0,1-1.21.32,2.5,2.5,0,0,1-1.22-4.69,36.48,36.48,0,0,0,5.59-60,2.5,2.5,0,1,1,3.19-3.84,41.47,41.47,0,0,1-6.35,68.19Z"/></g></g></svg>