<svg xmlns="http://www.w3.org/2000/svg" viewBox="0 0 48 48"><defs><style>.cls-1{fill:#fff;}.cls-2{fill:none;stroke:#fff;stroke-miterlimit:10;stroke-width:0.72px;}</style></defs><g id="Postive"><circle class="cls-1" cx="24" cy="24" r="24"/><rect x="12.59" y="11.16" width="4.39" height="0.71" rx="0.13"/><rect x="12.59" y="12.25" width="4.39" height="0.71" rx="0.13"/><rect x="8.58" y="20.34" width="2.61" height="0.72" rx="0.13"/><rect x="8.58" y="19.24" width="2.61" height="0.72" rx="0.13"/><rect x="8.58" y="21.45" width="2.61" height="0.72" rx="0.13"/><rect x="8.58" y="23.66" width="2.61" height="0.72" rx="0.13"/><rect x="8.58" y="22.55" width="2.61" height="0.72" rx="0.13"/><path d="M44.22,24c0,.34,0,.69,0,1l0,.41,0,.61c0,.17,0,.35-.07.52l-.06.48c0,.2-.07.4-.11.61l-.06.38-.16.67c0,.09,0,.19-.07.3s-.13.48-.2.73l-.06.22c-.08.26-.17.51-.26.77a.94.94,0,0,0-.06.15c-.1.28-.2.55-.31.81a.69.69,0,0,0,0,.1c-.12.29-.24.57-.37.84l0,0c-.13.29-.28.57-.43.85h0A20.39,20.39,0,0,1,39,37.61a20.06,20.06,0,0,1-3.77,3.23c-.34.24-.69.45-1,.65A20.21,20.21,0,0,1,8.73,37.25h0q-.62-.7-1.17-1.47c-.38-.53-.73-1.09-1.06-1.65A20,20,0,0,1,4,27.22a.13.13,0,0,1,0-.06q-.08-.45-.12-.9c0-.05,0-.1,0-.15,0-.28-.05-.56-.07-.85,0-.06,0-.13,0-.2,0-.35,0-.7,0-1.06A20.26,20.26,0,0,1,12.69,7.24a19.41,19.41,0,0,1,2.54-1.46A20.23,20.23,0,0,1,43.59,19,20.49,20.49,0,0,1,44.22,24ZM38,36.65c.2-.22.39-.45.58-.68a2.54,2.54,0,0,0-.91-.15,2.58,2.58,0,0,0-1.62.53,1.84,1.84,0,0,1-1.17.39,1.7,1.7,0,0,1-1.7-1.69,1.81,1.81,0,0,1,1-1.64.41.41,0,0,0,.19-.54.39.39,0,0,0-.53-.19,2.6,2.6,0,0,0-1.52,2.37,2.5,2.5,0,0,0,2.51,2.5A2.55,2.55,0,0,0,36.49,37a1.85,1.85,0,0,1,1.18-.39A1.77,1.77,0,0,1,38,36.65Zm-.9.92a2.47,2.47,0,0,0-1,.47,1.83,1.83,0,0,1-1.18.4,3.45,3.45,0,0,1-.69-6.82,3.23,3.23,0,0,1,.69-.07.41.41,0,0,0,0-.81,4,4,0,0,0-.85.09,4.25,4.25,0,0,0,.85,8.42l.23,0A19.55,19.55,0,0,0,37.1,37.57Zm-3.93,2.91a6.17,6.17,0,0,1-3.56-8.39H7A18.89,18.89,0,0,0,24,42.87,18.62,18.62,0,0,0,33.17,40.48ZM17.7,18.91V17.12h-5V31.28h3.2V18.91ZM11.9,31.28V17.93h-4V31.28Z"/><polyline class="cls-2" points="19.98 15.12 19.98 30.84 28.13 30.84"/><polyline class="cls-2" points="17.06 20.32 17.06 30.84 18.96 30.84"/><line class="cls-2" x1="21.56" y1="17.29" x2="21.56" y2="30.84"/><line class="cls-2" x1="23.32" y1="22.14" x2="23.32" y2="30.84"/><line class="cls-2" x1="13.08" y1="12.97" x2="13.08" y2="17.26"/><line class="cls-2" x1="25.12" y1="29.01" x2="19.8" y2="29.01"/><line class="cls-2" x1="17.55" y1="15.97" x2="12.74" y2="15.97"/><line class="cls-2" x1="16.33" y1="14.41" x2="12.71" y2="14.41"/><line class="cls-2" x1="18.3" y1="29.03" x2="17.14" y2="29.03"/><line class="cls-2" x1="18.3" y1="27.17" x2="17.14" y2="27.17"/></g></svg>