<svg xmlns="http://www.w3.org/2000/svg" viewBox="0 0 48 48"><defs><style>.cls-1{fill:#fff;}.cls-2{stroke:#fff;stroke-miterlimit:10;stroke-width:0.72px;}</style></defs><g id="Postive"><circle class="cls-1" cx="24" cy="24" r="24"/><path d="M24,42.87a18.72,18.72,0,0,0,9.17-2.38,6.19,6.19,0,0,1-3.56-8.41H7A18.87,18.87,0,0,0,24,42.87Zm10.87-5.32A2.61,2.61,0,0,0,36.5,37a1.8,1.8,0,0,1,1.17-.39,1.57,1.57,0,0,1,.32,0c.21-.23.4-.45.59-.68a2.62,2.62,0,0,0-.91-.15,2.58,2.58,0,0,0-1.62.53,1.83,1.83,0,0,1-1.18.39,1.69,1.69,0,0,1-1.69-1.69,1.8,1.8,0,0,1,1-1.64.41.41,0,0,0,.2-.54.4.4,0,0,0-.54-.19,2.6,2.6,0,0,0-1.51,2.37A2.5,2.5,0,0,0,34.87,37.55ZM6.5,34.12A20.18,20.18,0,0,1,4,27.22s0,0,0-.06q-.08-.45-.12-.9a.77.77,0,0,1,0-.15c0-.28-.05-.56-.07-.85,0-.06,0-.13,0-.2,0-.35,0-.7,0-1.06A20.49,20.49,0,0,1,4.41,19,20.28,20.28,0,0,1,9.7,9.71a19.7,19.7,0,0,1,3-2.47,18.67,18.67,0,0,1,2.53-1.46A20.22,20.22,0,0,1,44.22,24c0,.35,0,.69,0,1,0,.13,0,.27,0,.41s0,.4,0,.6,0,.36-.07.53,0,.32-.06.48-.07.4-.1.61,0,.25-.08.38-.1.45-.15.67,0,.19-.07.3-.13.48-.2.72c0,.08,0,.15-.07.23-.08.26-.16.51-.26.77a.88.88,0,0,1-.05.15c-.1.28-.2.54-.32.81a.29.29,0,0,1,0,.1c-.12.28-.25.57-.38.84,0,0,0,0,0,0-.14.29-.28.57-.43.85h0a20.08,20.08,0,0,1-6.64,7.3c-.34.23-.69.43-1,.64A20.22,20.22,0,0,1,8.73,37.25c-.41-.48-.8-1-1.17-1.48S6.83,34.68,6.5,34.12Zm27.7-2.5a3.26,3.26,0,0,1,.7-.07.41.41,0,0,0,0-.81,4.12,4.12,0,0,0-.86.09,4.25,4.25,0,0,0,.86,8.42l.22,0a18.51,18.51,0,0,0,2-1.66,2.67,2.67,0,0,0-1,.47,1.84,1.84,0,0,1-1.17.4,3.45,3.45,0,0,1-.7-6.82Z"/><rect class="cls-2" x="13.8" y="31.72" width="2.63" height="2.63"/><rect class="cls-2" x="18.34" y="35.18" width="2.63" height="2.63"/><rect class="cls-2" x="26.17" y="36.9" width="2.63" height="2.63"/><rect class="cls-2" x="21.92" y="39.08" width="2.63" height="2.63"/><rect class="cls-2" x="23.94" y="31.48" width="2.63" height="2.63"/><path d="M23.9,37.92a1.2,1.2,0,0,1-1.15-.86,1.18,1.18,0,0,1,.09-.92,1.23,1.23,0,0,1,.72-.58,1.27,1.27,0,0,1,.34-.05,1.21,1.21,0,0,1,.34,2.36,1.33,1.33,0,0,1-.34.05Z"/><path class="cls-1" d="M23.9,35.92a.8.8,0,0,1,.22,1.56.83.83,0,0,1-.22,0A.8.8,0,0,1,23.67,36a.91.91,0,0,1,.23,0m0-.81a1.76,1.76,0,0,0-.46.06,1.61,1.61,0,0,0,.46,3.16,1.69,1.69,0,0,0,.45-.07,1.61,1.61,0,0,0-.45-3.15Z"/><path d="M17.3,40.47a1.21,1.21,0,0,1-1.15-.86A1.21,1.21,0,0,1,17,38.12a1.06,1.06,0,0,1,.35,0,1.21,1.21,0,0,1,1.15.86,1.16,1.16,0,0,1-.1.91,1.14,1.14,0,0,1-.71.58,1,1,0,0,1-.35,0Z"/><path class="cls-1" d="M17.31,38.47A.8.8,0,0,1,17.53,40a.57.57,0,0,1-.22,0,.8.8,0,0,1-.23-1.56.59.59,0,0,1,.23,0m0-.81a1.43,1.43,0,0,0-.46.07,1.6,1.6,0,0,0-1.09,2,1.62,1.62,0,0,0,1.55,1.15,1.41,1.41,0,0,0,.45-.07,1.61,1.61,0,0,0,1-.77,1.65,1.65,0,0,0,.13-1.23,1.62,1.62,0,0,0-1.54-1.15Z"/><path d="M10.05,33.87A1.2,1.2,0,0,1,8.9,33,1.16,1.16,0,0,1,9,32.1a1.19,1.19,0,0,1,.72-.58,1.27,1.27,0,0,1,.34-.05,1.2,1.2,0,0,1,.34,2.35,1,1,0,0,1-.34,0Z"/><path class="cls-1" d="M10.05,31.88a.79.79,0,0,1,.76.57.78.78,0,0,1-.54,1,.57.57,0,0,1-.22,0,.81.81,0,0,1-.77-.57.8.8,0,0,1,.54-1,.91.91,0,0,1,.23,0m0-.82a1.77,1.77,0,0,0-.46.07,1.64,1.64,0,0,0-1,.77,1.62,1.62,0,0,0,1.42,2.38,1.47,1.47,0,0,0,.46-.07,1.61,1.61,0,0,0,1.08-2,1.63,1.63,0,0,0-1.54-1.15Z"/><path d="M20.11,34.35A1.2,1.2,0,0,1,19.76,32a1.41,1.41,0,0,1,.35-.05,1.21,1.21,0,0,1,1.15.86,1.2,1.2,0,0,1-.81,1.49A1,1,0,0,1,20.11,34.35Z"/><path class="cls-1" d="M20.11,32.36a.79.79,0,0,1,.22,1.55.57.57,0,0,1-.22,0,.81.81,0,0,1-.77-.57.8.8,0,0,1,.54-1,.91.91,0,0,1,.23,0m0-.82a1.43,1.43,0,0,0-.46.07,1.61,1.61,0,0,0,.46,3.15,1.41,1.41,0,0,0,.45-.07,1.61,1.61,0,0,0-.45-3.15Z"/><path d="M14.41,37.36a1.21,1.21,0,0,1-1.06-1.77,1.19,1.19,0,0,1,.72-.58,1,1,0,0,1,.34,0,1.2,1.2,0,0,1,1.15.86,1.19,1.19,0,0,1-.81,1.49,1,1,0,0,1-.34,0Z"/><path class="cls-1" d="M14.41,35.36a.8.8,0,0,1,.23,1.56.62.62,0,0,1-.23,0,.8.8,0,0,1-.76-.57.78.78,0,0,1,.54-1,.57.57,0,0,1,.22,0m0-.81a1.47,1.47,0,0,0-.46.07,1.61,1.61,0,0,0,.46,3.15,1.43,1.43,0,0,0,.46-.07,1.61,1.61,0,0,0-.46-3.15Z"/></g></svg>