<svg xmlns="http://www.w3.org/2000/svg" viewBox="0 0 48 48"><defs><style>.cls-1{fill:#fff;}</style></defs><g id="Postive"><circle class="cls-1" cx="24" cy="24" r="24"/><path class="cls-1" d="M39.75,18.81l-1,1.64A3.18,3.18,0,0,0,37,20a3.64,3.64,0,0,0-2.35.8,7,7,0,0,1-8.28,0,3.84,3.84,0,0,0-4.69,0,6.66,6.66,0,0,1-4.15,1.36,6.65,6.65,0,0,1-4.14-1.36,3.59,3.59,0,0,0-2.34-.8,3.2,3.2,0,0,0-1.77.44l-.95-1.64a5.09,5.09,0,0,1,2.72-.7,5.4,5.4,0,0,1,3.39,1.12,4.81,4.81,0,0,0,3.09,1A4.75,4.75,0,0,0,19.18,20l2-4.66,4.45-2.17,4.7,1.91,0,5.17h.11a4.85,4.85,0,0,0,3.09-1A5.39,5.39,0,0,1,37,18.09,5.11,5.11,0,0,1,39.75,18.81Zm-11.25,1,0-3.5-2.75-1.11-3.06,1.48-.77,1.77a5.75,5.75,0,0,1,5.53.73A7.11,7.11,0,0,0,28.5,19.85Z"/><path d="M24,3.78A20.22,20.22,0,1,1,3.78,24,20.22,20.22,0,0,1,24,3.78ZM38.79,20.45l1-1.64A5.11,5.11,0,0,0,37,18.09a5.39,5.39,0,0,0-3.4,1.13,4.85,4.85,0,0,1-3.09,1H30.4l0-5.17-4.7-1.91L21.2,15.33l-2,4.66a4.75,4.75,0,0,1-1.65.26,4.81,4.81,0,0,1-3.09-1,5.4,5.4,0,0,0-3.39-1.12,5.09,5.09,0,0,0-2.72.7l.95,1.64A3.2,3.2,0,0,1,11.05,20a3.59,3.59,0,0,1,2.34.8,6.65,6.65,0,0,0,4.14,1.36,6.66,6.66,0,0,0,4.15-1.36,3.84,3.84,0,0,1,4.69,0,7,7,0,0,0,8.28,0A3.64,3.64,0,0,1,37,20,3.18,3.18,0,0,1,38.79,20.45ZM31.5,13.81,32.91,11,27.35,8.65l-1.41,2.79Zm-3.59,10.3a1.55,1.55,0,0,0-.23-1.21,1.58,1.58,0,0,0-1-.69l-.32,0A1.61,1.61,0,0,0,26,25.36a1.66,1.66,0,0,0,.32,0A1.61,1.61,0,0,0,27.91,24.11Zm-1.36,4.54a.57.57,0,1,0-.33-1.1.56.56,0,0,0-.38.71A.57.57,0,0,0,26.55,28.65ZM23.7,32.3a.57.57,0,0,0-.32-1.1.57.57,0,1,0,.32,1.1Zm-.73,4A1.6,1.6,0,0,0,23.1,35a1.63,1.63,0,0,0-1.54-1.15,1.43,1.43,0,0,0-.46.07,1.64,1.64,0,0,0-1,.77,1.62,1.62,0,0,0,1.42,2.38A1.47,1.47,0,0,0,22,37,1.55,1.55,0,0,0,23,36.26Zm.85-8.56a1.61,1.61,0,1,0-1.61,1.61A1.61,1.61,0,0,0,23.82,27.7ZM22,24.13a.57.57,0,0,0,.39-.71.57.57,0,1,0-1.1.32A.57.57,0,0,0,22,24.13Zm-1.79,7.55a.57.57,0,0,0,.38-.71.57.57,0,1,0-.38.71Zm-.13,7.74A.57.57,0,1,0,19.4,39,.57.57,0,0,0,20.11,39.42Zm-.43-14.79a.57.57,0,1,0-.33-1.1.58.58,0,0,0-.39.71A.58.58,0,0,0,19.68,24.63Zm-1.61,2.29a.57.57,0,1,0-.33-1.1.56.56,0,0,0-.38.71A.58.58,0,0,0,18.07,26.92ZM18,36.33a.58.58,0,1,0-.72-.39A.58.58,0,0,0,18,36.33ZM18,32.65a1.61,1.61,0,0,0-1.41-2.38,1.77,1.77,0,0,0-.46.07,1.61,1.61,0,0,0,.45,3.15,1.76,1.76,0,0,0,.46-.06A1.65,1.65,0,0,0,18,32.65Zm-1.43,6a.58.58,0,1,0-.71-.39A.58.58,0,0,0,16.52,38.62Zm-2.47-2.36a.57.57,0,0,0,.38-.71.58.58,0,0,0-.71-.39.57.57,0,1,0,.33,1.1Z"/><polygon class="cls-1" points="32.91 11.02 31.5 13.81 25.94 11.44 27.35 8.65 32.91 11.02"/><path d="M28.47,16.35l0,3.5a7.11,7.11,0,0,1-1.08-.63,5.75,5.75,0,0,0-5.53-.73l.77-1.77,3.06-1.48Z"/><path class="cls-1" d="M27.68,22.9a1.55,1.55,0,0,1,.23,1.21,1.61,1.61,0,0,1-1.57,1.28,1.66,1.66,0,0,1-.32,0,1.61,1.61,0,0,1,.32-3.18l.32,0A1.58,1.58,0,0,1,27.68,22.9Zm-.56,1A.8.8,0,0,0,26.5,23h-.16a.79.79,0,0,0-.78.64.78.78,0,0,0,.62.93l.16,0A.8.8,0,0,0,27.12,23.94Z"/><path d="M26.5,23a.8.8,0,0,1-.16,1.58l-.16,0a.78.78,0,0,1-.62-.93.79.79,0,0,1,.78-.64Z"/><path class="cls-1" d="M26.94,27.94a.58.58,0,0,1-.39.71.57.57,0,0,1-.71-.39.56.56,0,0,1,.38-.71A.58.58,0,0,1,26.94,27.94Z"/><path class="cls-1" d="M24.09,31.59a.57.57,0,0,1-1.1.33.58.58,0,0,1,.39-.72A.57.57,0,0,1,24.09,31.59Z"/><path class="cls-1" d="M23.1,35A1.6,1.6,0,0,1,23,36.26,1.55,1.55,0,0,1,22,37a1.47,1.47,0,0,1-.46.07,1.62,1.62,0,0,1-1.42-2.38,1.64,1.64,0,0,1,1-.77,1.43,1.43,0,0,1,.46-.07A1.63,1.63,0,0,1,23.1,35Zm-1.32,1.22a.78.78,0,0,0,.54-1,.8.8,0,0,0-.76-.57.93.93,0,0,0-.23,0,.8.8,0,0,0-.54,1,.81.81,0,0,0,.77.57A.57.57,0,0,0,21.78,36.25Z"/><path class="cls-1" d="M22.21,26.09a1.61,1.61,0,1,1-1.6,1.61A1.61,1.61,0,0,1,22.21,26.09ZM23,27.7a.8.8,0,0,0-.8-.8.79.79,0,0,0-.79.8.79.79,0,0,0,.79.79A.79.79,0,0,0,23,27.7Z"/><path class="cls-1" d="M22.42,23.42A.57.57,0,1,1,21.7,23,.58.58,0,0,1,22.42,23.42Z"/><path d="M22.21,26.9a.8.8,0,0,1,.8.8.79.79,0,0,1-.8.79.79.79,0,0,1-.79-.79A.79.79,0,0,1,22.21,26.9Z"/><path d="M22.32,35.26a.78.78,0,0,1-.54,1,.57.57,0,0,1-.22,0,.81.81,0,0,1-.77-.57.8.8,0,0,1,.54-1,.93.93,0,0,1,.23,0A.8.8,0,0,1,22.32,35.26Z"/><path class="cls-1" d="M20.62,31a.57.57,0,0,1-.38.71.57.57,0,1,1,.38-.71Z"/><path class="cls-1" d="M20.5,38.71a.57.57,0,1,1-.71-.39A.57.57,0,0,1,20.5,38.71Z"/><path class="cls-1" d="M20.07,23.91a.58.58,0,1,1-1.11.33.58.58,0,0,1,1.11-.33Z"/><path class="cls-1" d="M18.46,26.2a.58.58,0,0,1-.39.72.58.58,0,0,1-.71-.39.56.56,0,0,1,.38-.71A.58.58,0,0,1,18.46,26.2Z"/><path class="cls-1" d="M18.4,35.61a.58.58,0,1,1-.72-.39A.58.58,0,0,1,18.4,35.61Z"/><path class="cls-1" d="M18.08,31.43A1.62,1.62,0,0,1,18,32.65a1.65,1.65,0,0,1-1,.78,1.76,1.76,0,0,1-.46.06,1.61,1.61,0,0,1-.45-3.15,1.77,1.77,0,0,1,.46-.07A1.63,1.63,0,0,1,18.08,31.43Zm-1.32,1.22a.81.81,0,0,0,.54-1,.79.79,0,0,0-.76-.57.85.85,0,0,0-.23,0,.81.81,0,0,0-.54,1,.79.79,0,0,0,.76.57A.85.85,0,0,0,16.76,32.65Z"/><path d="M17.3,31.66a.81.81,0,0,1-.54,1,.85.85,0,0,1-.23,0,.79.79,0,0,1-.76-.57.81.81,0,0,1,.54-1,.85.85,0,0,1,.23,0A.79.79,0,0,1,17.3,31.66Z"/><path class="cls-1" d="M16.91,37.9a.57.57,0,1,1-.71-.39A.58.58,0,0,1,16.91,37.9Z"/><path class="cls-1" d="M14.43,35.55a.57.57,0,0,1-.38.71.57.57,0,1,1,.38-.71Z"/></g></svg>