<svg xmlns="http://www.w3.org/2000/svg" viewBox="0 0 48 48"><defs><style>.cls-1{fill:#fff;}</style></defs><g id="Postive"><circle class="cls-1" cx="24" cy="24" r="24"/><circle cx="24" cy="24" r="20.22" transform="translate(-9.94 24) rotate(-45)"/><g id="KzFJne.tif"><path class="cls-1" d="M21.73,37.82q-.39,0-.78,0h-.29l-1.08-.14L19,37.52c-.38-.1-.77-.2-1.15-.32a10.21,10.21,0,0,1-6-4.93,8,8,0,0,1-.87-3.85,10,10,0,0,1,1.59-5.51A8,8,0,0,1,16,20.11a1.45,1.45,0,0,1,.57-.12h.92l0,.91a1.35,1.35,0,0,1-.09.6,40.17,40.17,0,0,0-.45,6c0,.38,0,.63,0,.69l-.14,1.59-1.23-1a8.15,8.15,0,0,1-1-1.23,5.28,5.28,0,0,0,1.53,4.17,7.31,7.31,0,0,0,5.39,2.5,8.47,8.47,0,0,0,2.24-.32,5.14,5.14,0,0,0,3.72-3.71A8.25,8.25,0,0,0,27.72,27c-.15-1.51-.33-3-.51-4.53L27,20.83a16,16,0,0,1-.13-3.38,7.11,7.11,0,0,1,1.63-4.06,2.11,2.11,0,0,0,.54-1.1,3.21,3.21,0,0,1,3.21-2.66l.42,0a3.29,3.29,0,0,1-.36,6.56h0a3.32,3.32,0,0,1-1.2-.21,4.19,4.19,0,0,0-.64,2.23,15.68,15.68,0,0,0,.26,2.86c.07.48.14,1,.19,1.43L31,23c.16,1.47.32,3,.4,4.5a10.08,10.08,0,0,1-1.15,5.56,9.06,9.06,0,0,1-5.92,4.41A10.2,10.2,0,0,1,21.73,37.82ZM32.25,12.64a.29.29,0,0,0-.28.26.28.28,0,0,0,.25.32h0a.31.31,0,0,0,.33-.25.25.25,0,0,0-.06-.21.28.28,0,0,0-.21-.12Z"/><path d="M32.26,10.47l.31,0a2.46,2.46,0,0,1-.27,4.89h-.06a2.41,2.41,0,0,1-1.14-.29.35.35,0,0,0-.18-.05.31.31,0,0,0-.25.15,4.87,4.87,0,0,0-1,3,31.09,31.09,0,0,0,.46,4.42c.17,1.64.37,3.28.45,4.93a9.36,9.36,0,0,1-1.05,5.11,8.24,8.24,0,0,1-5.39,4,9.49,9.49,0,0,1-2.37.29c-.24,0-.48,0-.72,0h0l-.21,0-1-.13c-.53-.15-1.07-.27-1.59-.44a9.31,9.31,0,0,1-5.49-4.52,7.15,7.15,0,0,1-.78-3.45,9.18,9.18,0,0,1,1.46-5.06,7.12,7.12,0,0,1,3-2.5,1.08,1.08,0,0,1,.32,0,1.27,1.27,0,0,1,0,.34c-.33.77-.51,6.6-.54,6.94-.18-.14-1.48-2-1.62-2.1a.57.57,0,0,0-.31-.15c-.11,0-.18.1-.23.33a6.25,6.25,0,0,0,1.56,6.1,8.13,8.13,0,0,0,6,2.77A9.06,9.06,0,0,0,24,34.7a6,6,0,0,0,4.3-4.29,9,9,0,0,0,.28-3.49c-.2-2.07-.47-4.12-.71-6.19a15.63,15.63,0,0,1-.13-3.21,6.26,6.26,0,0,1,1.44-3.59,2.93,2.93,0,0,0,.72-1.5,2.39,2.39,0,0,1,2.38-2m0,3.59a1.14,1.14,0,0,0,1.14-1,1.16,1.16,0,0,0-1-1.29h-.14a1.13,1.13,0,0,0-.14,2.26h.15m0-5.27a4,4,0,0,0-4,3.37,1.34,1.34,0,0,1-.36.69A8,8,0,0,0,26,17.37a17.36,17.36,0,0,0,.13,3.56l.2,1.64c.18,1.48.37,3,.51,4.52a7.15,7.15,0,0,1-.22,2.85,4.27,4.27,0,0,1-3.14,3.13,7.26,7.26,0,0,1-2,.3,6.5,6.5,0,0,1-4.78-2.24,5.27,5.27,0,0,1-.7-.91l1.49,1.2.27-3.16c0-.07,0-.34,0-.73a49.93,49.93,0,0,1,.41-5.78,2.12,2.12,0,0,0,.14-.82v0l.16-2-2,.21a2.33,2.33,0,0,0-.92.2,8.76,8.76,0,0,0-3.68,3.1,10.85,10.85,0,0,0-1.74,6,8.94,8.94,0,0,0,1,4.25A10.94,10.94,0,0,0,17.61,38c.42.15.83.25,1.22.35l.47.12.11,0,.12,0,1,.13.19,0,.2,0H21l.71,0a11.41,11.41,0,0,0,2.79-.35A9.87,9.87,0,0,0,31,33.5a10.92,10.92,0,0,0,1.26-6c-.07-1.54-.24-3.08-.41-4.56l0-.48c-.05-.49-.12-1-.2-1.46a15.3,15.3,0,0,1-.24-2.71A4,4,0,0,1,31.54,17a4.14,4.14,0,0,0,.7.06h.1a4.14,4.14,0,0,0,.45-8.24l-.53,0Z"/></g></g></svg>