<svg xmlns="http://www.w3.org/2000/svg" viewBox="0 0 56 56"><g id="Postive"><path d="M20,25l-.59-.94-1.08,1.74a.29.29,0,0,0,0,.21l.75,1.21.29.45c.37-.59.72-1.15,1.06-1.71a.29.29,0,0,0,0-.22C20.27,25.5,20.11,25.26,20,25Z"/><path d="M23.09,25.4c-.31-.4-.55-.86-.83-1.3,0,0-.06,0-.07.06-.34.53-.67,1.07-1,1.61a.26.26,0,0,0,0,.24c.21.37.44.72.66,1.08l.38.59c.29-.47.53-.92.83-1.32A.68.68,0,0,0,23.09,25.4Z"/><path d="M20.81,34.59c.37-.59.72-1.15,1.06-1.72a.23.23,0,0,0,0-.2c-.34-.56-.69-1.11-1.05-1.69-.37.59-.73,1.15-1.07,1.72a.15.15,0,0,0,0,.16Z"/><path d="M19.75,28.28c.34.56.69,1.12,1.06,1.71a15.44,15.44,0,0,1,.85-1.34.68.68,0,0,0,0-.94c-.31-.42-.56-.88-.85-1.34l-1.05,1.7A.2.2,0,0,0,19.75,28.28Z"/><path d="M17.23,27.48c-.14.23-.38.46-.38.69s.24.47.38.7.45.73.7,1.12L19,28.28a.22.22,0,0,0,0-.21l-1.05-1.7Z"/><path d="M17.46,33.85l.47.74c.36-.59.71-1.14,1.06-1.7a.22.22,0,0,0,0-.21c-.34-.56-.69-1.11-1.06-1.7l-1.05,1.7a.28.28,0,0,0,0,.25C17.07,33.24,17.27,33.54,17.46,33.85Z"/><path d="M19.41,32.22a13.68,13.68,0,0,1,.74-1.17.79.79,0,0,0,0-1.14c-.29-.37-.51-.8-.79-1.23l-1.08,1.74a.19.19,0,0,0,0,.16c.34.56.69,1.12,1.05,1.69Z"/><path d="M23.31,30.58a.19.19,0,0,0,0-.16c-.35-.58-.71-1.14-1.08-1.74-.38.6-.74,1.16-1.09,1.73a.2.2,0,0,0,0,.15l1.08,1.73C22.62,31.7,23,31.14,23.31,30.58Z"/><path d="M15.55,22.58l-.5-.81c-.33.52-.62,1-.94,1.48a.49.49,0,0,0,0,.65c.33.47.61,1,.94,1.48l1.08-1.74a.29.29,0,0,0,0-.2Z"/><path d="M13.61,19.46c-.32.5-.59,1-.91,1.43a.57.57,0,0,0,0,.76c.32.44.59.93.91,1.43l1.07-1.73a.25.25,0,0,0,0-.17Z"/><path d="M11,23.57l1.13,1.81,1.06-1.72a.19.19,0,0,0,0-.18c-.34-.56-.69-1.12-1.06-1.71C11.77,22.39,11.41,23,11,23.57Z"/><path d="M9.67,25.77a.25.25,0,0,0,0,.19c.35.56.7,1.13,1.08,1.72l.68-1.09c.14-.24.4-.48.4-.72s-.26-.48-.41-.72-.44-.71-.68-1.08Z"/><path d="M20.81,21.76c-.37.59-.73,1.16-1.07,1.72a.21.21,0,0,0,0,.19l1.07,1.71c.37-.6.72-1.15,1.06-1.71a.21.21,0,0,0,0-.19C21.53,22.91,21.17,22.35,20.81,21.76Z"/><path d="M19.36,19.46c-.37.61-.73,1.17-1.08,1.75a.17.17,0,0,0,0,.14l1.07,1.72.75-1.19c.12-.2.34-.4.34-.6s-.21-.42-.34-.62C19.87,20.27,19.63,19.88,19.36,19.46Z"/><path d="M16.86,23.47a.21.21,0,0,0,0,.17c.35.57.71,1.14,1.09,1.74L19,23.66a.25.25,0,0,0,0-.19l-1.06-1.7Z"/><path d="M15.41,25.79a.25.25,0,0,0,0,.17c.35.56.7,1.13,1.07,1.71l.14-.21a12.59,12.59,0,0,1,.7-1.09.7.7,0,0,0,0-1c-.3-.4-.54-.85-.83-1.3Z"/><path d="M9.67,30.38a.28.28,0,0,0,0,.25c.18.31.38.61.57.91l.47.75c.36-.59.72-1.15,1.06-1.71a.2.2,0,0,0,0-.2l-1-1.71C10.36,29.26,10,29.82,9.67,30.38Z"/><path d="M24.05,30.41a.14.14,0,0,0,0,.14l1.09,1.74.35-.57V29.24l-.35-.56C24.76,29.27,24.4,29.83,24.05,30.41Z"/><path d="M24.05,25.79a.28.28,0,0,0,0,.23c.3.5.62,1,.93,1.5l.12.14c.11-.18.22-.36.34-.54V24.83l-.39-.7C24.74,24.68,24.39,25.23,24.05,25.79Z"/><path d="M25.48,23.4V21.21a4.15,4.15,0,0,0-.13.87A4.78,4.78,0,0,0,25.48,23.4Z"/><path d="M17.28,31a.78.78,0,0,0,0-1.1c-.31-.39-.53-.83-.81-1.26-.36.58-.71,1.13-1.05,1.69a.21.21,0,0,0,0,.19l1.07,1.73C16.76,31.85,17,31.42,17.28,31Z"/><path d="M27.28,31l-.06.06s0,0,.06,0Z"/><path d="M7.08,18.54c-.14.09-.2.19-.1.34l.32.43c.25-.33.25-.33,0-.65C7.28,18.56,7.24,18.44,7.08,18.54Z"/><path d="M24.05,35a.25.25,0,0,0,0,.17l1.08,1.73c.11-.2.23-.38.34-.56V33.85l-.36-.57Z"/><path d="M14,28.26,15.05,30a12.61,12.61,0,0,1,.8-1.27.75.75,0,0,0,0-1.08,12,12,0,0,1-.8-1.27L14,28.1A.22.22,0,0,0,14,28.26Z"/><path d="M13.61,32.29l1.08-1.73a.21.21,0,0,0,0-.17l-1.06-1.72-1.07,1.71a.21.21,0,0,0,0,.19C12.88,31.14,13.24,31.7,13.61,32.29Z"/><path d="M14.94,34.43l.12.14c.36-.57.7-1.12,1-1.68a.23.23,0,0,0,0-.2c-.34-.56-.69-1.12-1.07-1.71-.37.6-.73,1.16-1.07,1.73a.26.26,0,0,0,0,.22Z"/><path d="M24.59,33.16a.57.57,0,0,0,0-.76c-.32-.45-.6-.93-.91-1.42-.36.59-.72,1.15-1.06,1.72a.23.23,0,0,0,0,.2c.34.55.69,1.1,1.05,1.69C24,34.09,24.27,33.61,24.59,33.16Z"/><path d="M12.17,30l1.07-1.72a.17.17,0,0,0,0-.14c-.35-.57-.71-1.14-1.08-1.75-.38.6-.73,1.16-1.07,1.72a.29.29,0,0,0,0,.22l.72,1.16Z"/><path d="M9.29,21.77c-.14.22-.27.41-.38.6a.79.79,0,0,0-.08.26c-.06.52-.12,1-.17,1.56a.41.41,0,0,0,0,.22l.61,1a13.64,13.64,0,0,1,.84-1.32.7.7,0,0,0,0-1C9.82,22.68,9.57,22.23,9.29,21.77Z"/><path d="M13.61,24.07c-.37.58-.72,1.15-1.07,1.71a.21.21,0,0,0,0,.17l1.08,1.73c.38-.59.74-1.16,1.09-1.73a.21.21,0,0,0,0-.17Z"/><path d="M24.15,36.33l-.47-.74-1.06,1.7a.26.26,0,0,0,0,.21l.88,1.4a3.64,3.64,0,0,0,1.24-1.41.26.26,0,0,0,0-.24C24.54,36.94,24.34,36.63,24.15,36.33Z"/><path d="M7.84,32.29c.38-.59.73-1.15,1.07-1.71a.23.23,0,0,0,0-.18L7.85,28.68,6.77,30.41a.17.17,0,0,0,0,.17C7.12,31.14,7.47,31.69,7.84,32.29Z"/><path d="M7.28,28.58c.27-.43.27-.43,0-.84l-.07,0c-.12.51-.23,1-.36,1.54l.09-.06Z"/><path d="M55.12,21A28,28,0,0,0,47.8,8.2a28.25,28.25,0,0,0-7.66-5.44A27.87,27.87,0,0,0,28,0a28.32,28.32,0,0,0-7,.88A28,28,0,0,0,.88,21,28.32,28.32,0,0,0,0,28,27.87,27.87,0,0,0,2.76,40.14a29.15,29.15,0,0,0,2,3.52A28.82,28.82,0,0,0,8.2,47.8,28,28,0,0,0,21,55.12,28.32,28.32,0,0,0,28,56,28,28,0,0,0,56,28,28.32,28.32,0,0,0,55.12,21ZM39.88,13h0a.93.93,0,0,1,0,1.86h0ZM33.51,25a.92.92,0,0,1,.8.91.93.93,0,0,1-.8.92Zm-8-15.65a.92.92,0,0,1,.67.88.94.94,0,0,1-.67.89Zm13,31.35-3.63,3.63a.35.35,0,0,1-.24.1H29.7l.61,6H25.69l-.12-12.06a.32.32,0,0,0-.1-.26v-.44a10.49,10.49,0,0,1-6.25,3.9c-.73.16-1.47.2-2.21.3v-.06A10.85,10.85,0,0,1,6.47,33.31a11,11,0,0,1,1.29-8.15,4.93,4.93,0,0,0,.53-2.81A3.74,3.74,0,0,0,7,19.78a3.48,3.48,0,0,1-.49-.6.7.7,0,0,1,.32-1.11A2.24,2.24,0,0,1,8.46,18a11.51,11.51,0,0,1,1.43.5,1.59,1.59,0,0,0,1.47-.07,9.45,9.45,0,0,0,.82-.59c.14-.11.27-.24.41-.36a1.52,1.52,0,0,1,1.69-.26c.74.27,1.51.46,2.27.67a1.34,1.34,0,0,0,1.13-.19q.6-.41,1.23-.78a1.6,1.6,0,0,1,1.82,0c.43.27.85.57,1.27.87a1.74,1.74,0,0,0,1.94.15,4.22,4.22,0,0,1,1.54-.46V12.25a2,2,0,0,0,0-4.06V7.28a1.7,1.7,0,0,1,3.39,0v2.94h.89a1.7,1.7,0,0,1,1.69,1.7h0a1.7,1.7,0,0,1-1.69,1.7h-.89v2.46h0a2,2,0,0,0-2,1.58c.43.26.49.72.1,1.23h0a2.06,2.06,0,0,0,1.9,1.28h0v9a.35.35,0,0,1-.1.24l-1,1a10.84,10.84,0,0,1-.55,3.95l.49.49a.34.34,0,0,0,.48,0l5.17-5.17a.35.35,0,0,0,.1-.24V28a2,2,0,0,0,0-4.09V16.09a1.7,1.7,0,1,1,3.39,0v6.63a.34.34,0,0,0,.58.24l2.31-2.3a.36.36,0,0,0,.09-.24V15.93h0a2,2,0,1,0,0-4.1h0v-.76a1.7,1.7,0,0,1,3.4,0V17.9h.9a1.7,1.7,0,0,1,0,3.39h-.9v.51a.37.37,0,0,1-.1.24L37,28.24a.37.37,0,0,0-.1.24l0,2.34a.4.4,0,0,1-.1.24l-1.46,1.46.63.63a1.69,1.69,0,0,1-2.39,2.4l-.63-.61L30.4,37.49l-.7.7v2.5A.33.33,0,0,0,30,41h3.22a.34.34,0,0,0,.24-.09L36.41,38a.34.34,0,0,1,.57.15l.39,1.53a.34.34,0,0,0,.25.25l.74.18A.34.34,0,0,1,38.52,40.69ZM28.87,19.06h0a.93.93,0,0,1,0-1.86h0ZM49.65,38.12l-4,1.41h0l-2.47-1.19a.37.37,0,0,1-.13-.12l-1.25-1.85a.34.34,0,0,1,.1-.47l1.53-1a.35.35,0,0,1,.34,0l2,.95a.34.34,0,0,0,.26,0l2.57-.89a1.7,1.7,0,1,1,1.12,3.2Z"/><path d="M7.49,32.72c-.23-.37-.46-.75-.7-1.12l-.07,0L7,33.49h.07l.4-.65A.15.15,0,0,0,7.49,32.72Z"/><path d="M8.9,35c-.34-.55-.69-1.1-1.05-1.69a5.07,5.07,0,0,1-.35.54.68.68,0,0,0-.08.83c.27.54.51,1.08.79,1.67L8.9,35.2A.27.27,0,0,0,8.9,35Z"/><path d="M14.08,17.71c-.43-.21-.69-.2-.93,0l.46.73C13.77,18.2,13.93,18,14.08,17.71Z"/><path d="M9.65,21.34c.35.57.7,1.14,1.08,1.74.37-.6.72-1.16,1.07-1.74a.15.15,0,0,0,0-.16c-.34-.57-.7-1.13-1.06-1.72L9.65,21.19A.14.14,0,0,0,9.65,21.34Z"/><path d="M13.25,19a.13.13,0,0,0,0-.12l-.51-.83c-.55.36-1.06.71-1.59,1.07.3.49.64,1,1,1.61Z"/><path d="M10.32,37.25c-.29-.49-.59-1-.89-1.44l-.15-.21-.75,1.2,1.29,1.54c.19-.3.36-.55.5-.81A.34.34,0,0,0,10.32,37.25Z"/><path d="M9.19,20.62l.11.13,1-1.58-.67-.25-1-.36c-.08,0-.23,0-.26.05s-.31.26-.15.5C8.57,19.61,8.88,20.12,9.19,20.62Z"/><path d="M8.8,21,8,19.73l-.18-.26-.15.25a3.68,3.68,0,0,1,1,1.91C9,21.31,9,21.31,8.8,21Z"/><path d="M7.85,27.68,8.92,26a.25.25,0,0,0,0-.17L8.45,25l-.22.39-.72,1.44c0,.07-.06.17,0,.22A7,7,0,0,0,7.85,27.68Z"/><path d="M17.25,41.27l1.27-.12-.6-1Z"/><path d="M19.36,37.89l-1.07,1.72a.23.23,0,0,0,0,.21c.22.37.45.73.68,1.09,0,0,.06.11.08.11a1.71,1.71,0,0,0,.72-.25,4.78,4.78,0,0,0,.62-1,.26.26,0,0,0,0-.21C20.09,39,19.74,38.49,19.36,37.89Z"/><path d="M10.22,38.7l1.55,1.14a5.65,5.65,0,0,0-1.06-1.93C10.55,38.17,10.4,38.42,10.22,38.7Z"/><path d="M21.17,39.62a.14.14,0,0,0,0,.14c.09.16.19.32.31.5l1.64-1-.87-1.38Z"/><path d="M20.58,40.56l0,0,.35-.14-.17-.27Z"/><path d="M8.25,28.32c.19.32.39.64.59,1l.45.7a11.71,11.71,0,0,1,.76-1.2.84.84,0,0,0,0-1.22,12.16,12.16,0,0,1-.75-1.19c-.38.6-.74,1.17-1.08,1.74A.24.24,0,0,0,8.25,28.32Z"/><path d="M13.21,37.26c-.27-.45-.55-.88-.82-1.32l-.23-.35c-.37.59-.72,1.15-1.06,1.71a.23.23,0,0,0,0,.2c.34.56.68,1.11,1.06,1.7l1.08-1.74A.29.29,0,0,0,13.21,37.26Z"/><path d="M14.68,39.62,13.6,37.89c-.36.59-.72,1.15-1.07,1.72,0,0,0,.08,0,.1a2.69,2.69,0,0,0,.51.71,3,3,0,0,0,.9.34.23.23,0,0,0,.2-.07c.19-.29.37-.58.55-.88A.21.21,0,0,0,14.68,39.62Z"/><path d="M17.57,39.63c-.35-.58-.71-1.14-1.08-1.74l-1.06,1.69a.24.24,0,0,0,0,.2c.27.46.55.91.84,1.36a.28.28,0,0,0,.46,0c.28-.44.55-.88.82-1.32A.24.24,0,0,0,17.57,39.63Z"/><path d="M14.56,41l1.1.21-.61-1Z"/><path d="M25.41,18l-.5.11.21.35Z"/><path d="M20.44,35.17a.26.26,0,0,0,0-.22l-.94-1.52-.11-.12c-.36.57-.71,1.12-1,1.67a.22.22,0,0,0,0,.21c.34.56.69,1.11,1.07,1.71C19.74,36.3,20.1,35.74,20.44,35.17Z"/><path d="M17.53,38.57l.4.63c.36-.59.72-1.15,1.06-1.71a.23.23,0,0,0,0-.2c-.34-.56-.69-1.12-1.06-1.7l-1.05,1.7a.28.28,0,0,0,0,.25C17.1,37.89,17.32,38.23,17.53,38.57Z"/><path d="M20.8,39.2l1.08-1.73a.17.17,0,0,0,0-.17c-.34-.56-.7-1.13-1.06-1.71-.37.59-.73,1.15-1.08,1.73a.18.18,0,0,0,0,.16C20.08,38.05,20.44,38.61,20.8,39.2Z"/><path d="M23.32,35.17a.22.22,0,0,0,0-.16l-1.07-1.73-.73,1.16c-.13.21-.36.42-.36.64s.23.44.36.66l.72,1.16Z"/><path d="M17.25,35.69a.83.83,0,0,0,0-1.2c-.29-.37-.5-.79-.77-1.21L15.42,35a.23.23,0,0,0,0,.2l1.07,1.71A11.88,11.88,0,0,1,17.25,35.69Z"/><path d="M15.05,39.2c.37-.6.72-1.15,1.06-1.71a.21.21,0,0,0,0-.17l-1.08-1.73c-.38.59-.74,1.16-1.09,1.73a.19.19,0,0,0,0,.15Z"/><path d="M8.23,32.9c.18.31.37.61.56.9l.5.79c.31-.5.59-1,.91-1.44a.54.54,0,0,0,0-.72c-.32-.46-.6-.95-.91-1.45-.38.59-.73,1.15-1.07,1.72A.23.23,0,0,0,8.23,32.9Z"/><path d="M10.73,36.9c.36-.59.72-1.15,1.06-1.72a.21.21,0,0,0,0-.19l-1.06-1.71L9.66,35a.17.17,0,0,0,0,.17C10,35.74,10.35,36.3,10.73,36.9Z"/><path d="M13.6,36.9l1.08-1.73a.17.17,0,0,0,0-.17c-.34-.57-.7-1.13-1.06-1.72L12.55,35a.26.26,0,0,0,0,.21Z"/><path d="M12.81,33.56c.16-.26.43-.52.44-.78s-.28-.51-.43-.76l-.65-1c-.38.6-.74,1.17-1.09,1.74a.2.2,0,0,0,0,.15l1.07,1.72C12.4,34.22,12.61,33.89,12.81,33.56Z"/><path d="M24.51,27.67c-.31-.4-.54-.85-.83-1.3l-1.05,1.7a.26.26,0,0,0,0,.21c.34.56.69,1.11,1.06,1.71.29-.46.53-.9.83-1.3A.72.72,0,0,0,24.51,27.67Z"/><path d="M24.82,22.19a4.22,4.22,0,0,1,.43-1.92.56.56,0,0,0-.06-.71l-.07-.09L24,21.2a.15.15,0,0,0,0,.13c.24.4.49.8.74,1.2A1,1,0,0,0,24.82,22.19Z"/><path d="M21.44,21.8c.3.39.52.83.81,1.27l1.08-1.73a.33.33,0,0,0,0-.21c-.2-.33-.41-.65-.61-1l-.43-.7a14.93,14.93,0,0,1-.82,1.28A.75.75,0,0,0,21.44,21.8Z"/><path d="M19.72,19c0,.24.26.47.4.71l.68,1.09c.24-.38.47-.73.68-1.08s.41-.49.41-.73-.28-.47-.4-.72a2.21,2.21,0,0,0-.87-.79l-.51.82C20,18.5,19.72,18.74,19.72,19Z"/><path d="M20.14,17.23a1.29,1.29,0,0,0-1.32.37l.55.87Z"/><path d="M24.77,23.5l-1.09-1.74-1.06,1.72a.21.21,0,0,0,0,.19c.34.56.69,1.12,1.06,1.71l1.08-1.73A.16.16,0,0,0,24.77,23.5Zm-.89.92.17-.53A.88.88,0,0,1,23.88,24.42Z"/><path d="M17.66,20.34c.08.14.17.27.27.43.36-.59.71-1.14,1.06-1.7a.26.26,0,0,0,0-.21c-.2-.33-.41-.65-.61-1a4.88,4.88,0,0,1-.92.45.93.93,0,0,0-.58.48.23.23,0,0,0,0,.29C17.15,19.52,17.4,19.93,17.66,20.34Z"/><path d="M23.68,20.77c.38-.6.74-1.17,1.09-1.74a.14.14,0,0,0,0-.14c-.12-.2-.24-.4-.37-.59l-.06,0a2.47,2.47,0,0,1-1.53.36c-.11,0-.26.25-.2.35Z"/><path d="M15.05,20.77c.29-.47.53-.91.83-1.31a.66.66,0,0,0,0-1c-.09-.09-.17-.22-.28-.26a6.28,6.28,0,0,0-.87-.27.21.21,0,0,0-.2.07c-.21.31-.4.63-.6.95C14.29,19.56,14.65,20.15,15.05,20.77Z"/><path d="M15.43,21.38c.34.55.68,1.1,1.06,1.69.37-.6.73-1.16,1.08-1.74a.31.31,0,0,0,0-.2l-.8-1.28-.25-.39c-.37.6-.72,1.15-1.06,1.71A.26.26,0,0,0,15.43,21.38Z"/></g></svg>