<svg xmlns="http://www.w3.org/2000/svg" viewBox="0 0 150 150" width="55.6" height="55.6"><title>erosion</title><g id="Layer_2" data-name="Layer 2"><g id="Postive"><path d="M143.66,105.18c.23-.52.46-1.05.68-1.57q.49-1.22,1-2.43h0a75.68,75.68,0,0,0,2.82-9.52c0-.21.1-.41.14-.62.15-.67.28-1.34.41-2,.08-.43.16-.86.23-1.29.1-.58.21-1.17.29-1.76.15-1,.27-2,.38-2.93,0-.4.07-.8.11-1.2.07-.78.13-1.55.17-2.34,0-.36.05-.73.06-1.09.06-1.13.09-2.27.09-3.41A74.92,74.92,0,0,0,75,0c-1.28,0-2.55,0-3.81.1s-2.31.15-3.46.26l-.28,0q-3.72.38-7.32,1.1h0A75,75,0,0,0,75,150c1.15,0,2.29,0,3.43-.09l.82,0c1.12-.06,2.24-.14,3.35-.25l.31,0q1.55-.17,3.06-.39l.8-.12c1.08-.17,2.15-.35,3.21-.57l.53-.11c.92-.2,1.84-.41,2.75-.64l.8-.2c1-.27,2-.55,3-.86l.7-.23c.83-.26,1.66-.54,2.48-.84l.8-.28c1-.36,1.9-.73,2.84-1.12l.83-.36c.74-.32,1.48-.66,2.22-1l.8-.38c.89-.43,1.76-.88,2.63-1.35.31-.16.62-.34.92-.51.67-.37,1.33-.74,2-1.13l.82-.49c.81-.49,1.6-1,2.39-1.53.34-.23.67-.45,1-.68.59-.4,1.17-.82,1.75-1.24l1-.77c.66-.5,1.3-1,1.94-1.52l1-.85c.52-.43,1-.88,1.53-1.32l1.3-1.18,1.44-1.37,1-1c.47-.47.92-1,1.37-1.43s.88-1,1.31-1.45.77-.87,1.14-1.32l.95-1.14c.44-.54.86-1.08,1.28-1.63s.78-1,1.16-1.56l.94-1.32.86-1.26c.47-.71.94-1.43,1.39-2.16h0q1.26-2.07,2.4-4.22h0v0c.65-1.22,1.25-2.46,1.83-3.72C143.33,105.93,143.49,105.55,143.66,105.18ZM124.5,117.89c-3.29,2.19-7,4.67-14.18,4.67a37.76,37.76,0,1,1,0-75.51,2.5,2.5,0,0,1,0,5A32.7,32.7,0,0,0,77.56,84.81a32.79,32.79,0,0,0,32.76,32.75c5.64,0,8.32-1.77,11.41-3.83,3.3-2.19,7-4.68,14.19-4.68h.2q-1.49,2.67-3.19,5.19C129.22,114.76,127,116.23,124.5,117.89Zm-35-81.48-2.63,2.8L83,38.55,80.39,36.1l1.32-3.37,3-1.9L88.8,33ZM75.17,20.12,73,25.25,69.2,26.62,67.06,23V20.71L71.28,18ZM68.42,38.21l4.25,1.28,1.23,3,2.64,4.46L73.27,57.22,66,61.83l-7.35-4.41-5-8.21L56,40.15,65.64,30Zm67.34,60.34c-5.64,0-8.31,1.78-11.41,3.84-3.29,2.19-7,4.67-14.18,4.67A21.81,21.81,0,0,1,88.38,85.27a22.82,22.82,0,0,1,13.21-20.64,2.5,2.5,0,1,1,2.09,4.54,17.8,17.8,0,0,0-10.3,16.1,16.81,16.81,0,0,0,16.79,16.79c5.64,0,8.32-1.78,11.41-3.84,3.29-2.19,7-4.67,14.18-4.67a23.82,23.82,0,0,1,6.49.83c-.47,1.61-1,3.21-1.55,4.77A18.67,18.67,0,0,0,135.76,98.55ZM5,75A70.11,70.11,0,0,1,60.13,6.61v18L46.91,38.86l-3.23,12.3,6.78,11.13,9.67,6V90a45,45,0,0,0,45,45H111A70,70,0,0,1,5,75Z"/></g></g></svg>