<svg xmlns="http://www.w3.org/2000/svg" viewBox="0 0 48 48"><defs><style>.cls-1{fill:#fff;}</style></defs><g id="Layer_2" data-name="Layer 2"><g id="Postive"><circle class="cls-1" cx="24" cy="24" r="24"/><path d="M38.3,9.7a21.44,21.44,0,0,0-3-2.47,22,22,0,0,0-2.54-1.46,20.29,20.29,0,0,0-8.77-2A20,20,0,0,0,19,4.42,20.25,20.25,0,0,0,4.42,19,20,20,0,0,0,3.78,24c0,.31,0,.63,0,.94,0,.09,0,.19,0,.28s0,.45.05.67l0,.29c0,.27.06.53.1.8,0,0,0,.08,0,.12q.06.43.15.87c0,.1,0,.21.07.31s.08.39.13.58l.09.33c0,.21.11.41.17.61s0,.17.07.26l.27.78c0,.12.09.24.13.35s.12.32.19.47l.15.38.21.45.18.39.33.65.22.38.21.37.23.39.23.34.24.38h0a20.22,20.22,0,0,0,33.4,0h0c.1-.14.19-.28.28-.42l.19-.29.26-.43L41.6,34l.24-.42.28-.56c.08-.17.17-.34.25-.52l.18-.39c.05-.14.11-.27.17-.41s.11-.28.17-.43l.14-.38c.09-.25.18-.51.26-.77l.09-.3c.06-.18.11-.37.16-.57l.09-.34c0-.19.09-.38.13-.57s.05-.21.07-.32q.09-.43.15-.87A.68.68,0,0,0,44,27c0-.26.07-.52.1-.77l0-.3c0-.22,0-.44,0-.67s0-.19,0-.28c0-.31,0-.63,0-.94A20.23,20.23,0,0,0,38.3,9.7Zm.49,6.8a3.44,3.44,0,0,0-1.9-.49,3.81,3.81,0,0,0-2.46.84,6.39,6.39,0,0,1-4,1.31,6.15,6.15,0,0,1-3.49-1v.34H25a.41.41,0,1,0,0,.81h1.93v1.21H26a.41.41,0,1,0,0,.81h1v1.21H24a.41.41,0,0,0,0,.81h2.91v1.2H25a.41.41,0,1,0,0,.81h1.93v1.21H26a.41.41,0,1,0,0,.81h1v1.22H24a.4.4,0,1,0,0,.8h2.91v1.2H25a.41.41,0,0,0-.41.41.4.4,0,0,0,.41.4h1.93v1.22H26a.4.4,0,0,0-.41.4.41.41,0,0,0,.41.41h1v1.85H24a.4.4,0,0,0-.4.4.41.41,0,0,0,.4.41h2.91v1.2H25a.4.4,0,1,0,0,.8h1.93v1.22H26a.41.41,0,1,0,0,.81h1v1.21H24a.41.41,0,0,0,0,.81h2.91v1.2H21.13V41.13a.38.38,0,0,0,.41-.37.41.41,0,0,0-.41-.4V35.12a.42.42,0,0,0,.41-.41.41.41,0,0,0-.41-.4V28.42a.4.4,0,1,0,0-.8V22.37a.41.41,0,1,0,0-.81V17.11a6.24,6.24,0,0,1-3.61,1.05,6.45,6.45,0,0,1-4-1.31A3.8,3.8,0,0,0,11.06,16a3.4,3.4,0,0,0-1.87.47l-.72-1.25a4.8,4.8,0,0,1,2.59-.66,5.17,5.17,0,0,1,3.25,1.08,5.34,5.34,0,0,0,6.41,0l.41-.27V10.26a.41.41,0,1,0,0-.81V8a.2.2,0,0,1,.2-.2h5.41a.2.2,0,0,1,.2.2V9.45H24a.41.41,0,0,0,0,.81h2.91v1.2H25a.41.41,0,1,0,0,.81h1.93v1.22H26a.4.4,0,1,0,0,.8h1v1.17l.29.19a5.32,5.32,0,0,0,6.4,0,5.2,5.2,0,0,1,3.26-1.08,4.84,4.84,0,0,1,2.63.69Z"/><path class="cls-1" d="M25.52,16.32a6.67,6.67,0,0,1,.91.53l.51.33v-.86Z"/></g></g></svg>