<svg xmlns="http://www.w3.org/2000/svg" viewBox="0 0 56 56"><defs><style>.cls-1{fill:none;}</style></defs><g id="Postive"><path class="cls-1" d="M11.25,19.6H5.65V38.08h5.6Zm-1,8.73a.18.18,0,0,1-.18.19H6.83a.18.18,0,0,1-.19-.19v-.62a.18.18,0,0,1,.19-.18h3.24a.18.18,0,0,1,.18.18Zm0-1.53a.18.18,0,0,1-.18.19H6.83a.18.18,0,0,1-.19-.19v-.62A.18.18,0,0,1,6.83,26h3.24a.18.18,0,0,1,.18.18Zm0-1.53a.18.18,0,0,1-.18.19H6.83a.18.18,0,0,1-.19-.19v-.62a.18.18,0,0,1,.19-.18h3.24a.18.18,0,0,1,.18.18Zm0-1.53a.18.18,0,0,1-.18.19H6.83a.18.18,0,0,1-.19-.19v-.62a.18.18,0,0,1,.19-.18h3.24a.18.18,0,0,1,.18.18Zm0-1.53a.18.18,0,0,1-.18.19H6.83a.18.18,0,0,1-.19-.19v-.62a.18.18,0,0,1,.19-.18h3.24a.18.18,0,0,1,.18.18Z"/><rect class="cls-1" x="17.92" y="22.06" width="3.01" height="16.02"/><path class="cls-1" d="M12.37,38.08H16.8V20.94h2.47V8.18h-8v10.3h1.12ZM12.2,10.4a.19.19,0,0,1,.18-.19h5.71a.19.19,0,0,1,.19.19V11a.18.18,0,0,1-.19.18H12.38A.18.18,0,0,1,12.2,11Zm0,2.14v-.62a.19.19,0,0,1,.18-.19h5.71a.19.19,0,0,1,.19.19v.62a.18.18,0,0,1-.19.18H12.38A.18.18,0,0,1,12.2,12.54Z"/><path class="cls-1" d="M35,42.75a8.48,8.48,0,0,1,.77-3.55H4.39A26.12,26.12,0,0,0,40.7,50.83,8.59,8.59,0,0,1,35,42.75Zm-7.43-1.07h3.64v3.64H27.57ZM13.83,44.52a2.22,2.22,0,0,1-1.33,1.07,1.93,1.93,0,0,1-.63.1,2.23,2.23,0,0,1-.64-4.37,2.3,2.3,0,0,1,.64-.09A2.24,2.24,0,0,1,14,42.83,2.21,2.21,0,0,1,13.83,44.52Zm2-3.66h3.64V44.5H15.84ZM20.25,49a2.2,2.2,0,0,1-1.32,1.07,2.28,2.28,0,0,1-.63.09,2.23,2.23,0,0,1-.64-4.36,2.3,2.3,0,0,1,.64-.09,2.23,2.23,0,0,1,2.13,1.59A2.19,2.19,0,0,1,20.25,49Zm5.39,2.25H22V47.59h3.64Zm-.07-6.11a2.19,2.19,0,0,1-1.33,1.07,1.93,1.93,0,0,1-.63.1,2.23,2.23,0,1,1,2-1.17Zm6.08,5.66a2.2,2.2,0,0,1-1.32,1.07,2.28,2.28,0,0,1-.63.09,2.23,2.23,0,0,1-.64-4.36,2.3,2.3,0,0,1,.64-.09,2.23,2.23,0,0,1,2.13,1.59A2.19,2.19,0,0,1,31.65,50.78Z"/><path class="cls-1" d="M33,38.08V15H22.05V38.08ZM22.88,17a.21.21,0,0,1,.21-.21h8.83a.21.21,0,0,1,.22.21v.57a.21.21,0,0,1-.22.21H23.09a.21.21,0,0,1-.21-.21Zm0,1.53a.21.21,0,0,1,.21-.21h8.83a.21.21,0,0,1,.22.21v.57a.21.21,0,0,1-.22.21H23.09a.21.21,0,0,1-.21-.21Zm0,1.53a.21.21,0,0,1,.21-.21h8.83a.21.21,0,0,1,.22.21v.57a.21.21,0,0,1-.22.21H23.09a.21.21,0,0,1-.21-.21Zm0,1.53a.21.21,0,0,1,.21-.21h8.83a.21.21,0,0,1,.22.21v.57a.21.21,0,0,1-.22.21H23.09a.21.21,0,0,1-.21-.21Z"/><path class="cls-1" d="M43.08,48a4.77,4.77,0,0,1-1-9.44,5.2,5.2,0,0,1,1-.09.56.56,0,0,0,0-1.12,5.88,5.88,0,0,0-5.88,5.88,5.89,5.89,0,0,0,5.88,5.89h.32a27.44,27.44,0,0,0,2.74-2.31,3.8,3.8,0,0,0-1.43.65A2.5,2.5,0,0,1,43.08,48Z"/><path class="cls-1" d="M44.68,45.1a2.48,2.48,0,0,1-1.62.55,2.36,2.36,0,0,1-2.35-2.36A2.49,2.49,0,0,1,42.16,41a.56.56,0,0,0,.27-.75.56.56,0,0,0-.74-.27,3.62,3.62,0,0,0-2.1,3.28,3.48,3.48,0,0,0,3.47,3.48A3.52,3.52,0,0,0,45.3,46a2.58,2.58,0,0,1,1.63-.55,3.09,3.09,0,0,1,.45,0c.28-.3.55-.62.81-.94a3.67,3.67,0,0,0-1.26-.21A3.58,3.58,0,0,0,44.68,45.1Z"/><rect x="12.2" y="10.21" width="6.08" height="0.99" rx="0.19"/><rect x="12.2" y="11.73" width="6.08" height="0.99" rx="0.19"/><rect x="6.64" y="22.94" width="3.61" height="0.99" rx="0.19"/><rect x="6.64" y="21.41" width="3.61" height="0.99" rx="0.19"/><rect x="6.64" y="24.47" width="3.61" height="0.99" rx="0.19"/><rect x="6.64" y="27.53" width="3.61" height="0.99" rx="0.19"/><rect x="22.88" y="21.4" width="9.26" height="0.99" rx="0.21"/><rect x="22.88" y="19.87" width="9.26" height="0.99" rx="0.21"/><rect x="22.88" y="16.81" width="9.26" height="0.99" rx="0.21"/><rect x="6.64" y="26" width="3.61" height="0.99" rx="0.19"/><rect x="22.88" y="18.34" width="9.26" height="0.99" rx="0.21"/><path d="M55.12,21A28,28,0,0,0,35,.88,28.32,28.32,0,0,0,28,0,27.87,27.87,0,0,0,15.86,2.76,27.95,27.95,0,0,0,0,28c0,.49,0,1,0,1.47a2.45,2.45,0,0,0,0,.27c0,.4.05.8.09,1.19l0,.2c.05.42.1.84.16,1.25,0,0,0,0,0,.08A27.73,27.73,0,0,0,3.76,42c.46.79,1,1.55,1.48,2.29s1,1.39,1.61,2h0A28,28,0,0,0,42,52.22c.49-.28,1-.58,1.44-.89h0a28.07,28.07,0,0,0,9.2-10.1h0c.21-.39.41-.79.6-1.19l0-.07c.18-.38.35-.76.52-1.15,0-.05,0-.1,0-.14.15-.37.3-.74.44-1.12l.07-.22c.13-.35.25-.71.36-1.07l.09-.31c.1-.33.19-.66.28-1,0-.14.06-.28.1-.42l.21-.93.09-.52c0-.28.11-.56.15-.84l.09-.67.09-.72.06-.84c0-.19,0-.38,0-.58,0-.47,0-.95,0-1.43A28.32,28.32,0,0,0,55.12,21ZM29.21,15H33V38.08H22.05V15ZM20.93,38.08h-3v-16h3ZM11.25,8.18h8V20.94H16.8V38.08H12.37V18.48H11.25ZM5.65,19.6h5.6V38.08H5.65ZM28,54.13A26.18,26.18,0,0,1,4.39,39.2H35.77A8.48,8.48,0,0,0,35,42.75a8.59,8.59,0,0,0,5.7,8.08A26,26,0,0,1,28,54.13Zm15.4-5h-.32A5.89,5.89,0,0,1,41.9,37.46a5.83,5.83,0,0,1,1.18-.12.56.56,0,0,1,0,1.12,5.2,5.2,0,0,0-1,.09,4.77,4.77,0,0,0,1,9.44,2.5,2.5,0,0,0,1.63-.55,3.8,3.8,0,0,1,1.43-.65A27.44,27.44,0,0,1,43.4,49.1Zm4-3.59a3.09,3.09,0,0,0-.45,0A2.58,2.58,0,0,0,45.3,46a3.52,3.52,0,0,1-2.24.74,3.48,3.48,0,0,1-3.47-3.48A3.62,3.62,0,0,1,41.69,40a.56.56,0,0,1,.74.27.56.56,0,0,1-.27.75,2.49,2.49,0,0,0-1.45,2.26,2.36,2.36,0,0,0,2.35,2.36,2.48,2.48,0,0,0,1.62-.55,3.58,3.58,0,0,1,2.25-.74,3.67,3.67,0,0,1,1.26.21C47.93,44.89,47.66,45.21,47.38,45.51Z"/><rect x="15.84" y="40.86" width="3.64" height="3.64"/><rect x="22" y="47.59" width="3.64" height="3.64"/><rect x="27.57" y="41.68" width="3.64" height="3.64"/><path d="M29.7,48.61a1.19,1.19,0,0,0-.32,0A1.1,1.1,0,1,0,30,50.77a1.1,1.1,0,0,0-.31-2.16Z"/><path d="M11.87,42.36a1.17,1.17,0,0,0-.32,0,1.11,1.11,0,1,0,1.37.75A1.1,1.1,0,0,0,11.87,42.36Z"/><path d="M23.61,43a1.09,1.09,0,0,0-1.06,1.41,1.12,1.12,0,0,0,1.06.79,1.1,1.1,0,1,0,0-2.2Z"/><path d="M18.3,46.81a1.19,1.19,0,0,0-.32,0A1.1,1.1,0,1,0,18.61,49a1.1,1.1,0,0,0-.31-2.16Z"/></g></svg>