<svg xmlns="http://www.w3.org/2000/svg" viewBox="0 0 56 56"><g id="Layer_2" data-name="Layer 2"><g id="Postive"><path d="M55.12,21A28,28,0,0,0,47.8,8.2a28.82,28.82,0,0,0-4.14-3.42,29.15,29.15,0,0,0-3.52-2A27.87,27.87,0,0,0,28,0a28.32,28.32,0,0,0-7,.88A28,28,0,0,0,.88,21,28.32,28.32,0,0,0,0,28c0,.44,0,.87,0,1.3l0,.39c0,.31,0,.62.07.93l0,.4c0,.37.09.74.14,1.1l0,.17c.06.41.13.81.21,1.21l.09.42c.06.27.12.54.19.81l.12.46c.07.28.15.57.24.85,0,.11.06.23.1.35.12.37.24.73.37,1.09l.18.48c.08.22.17.44.26.65s.14.35.22.52.18.42.28.62.16.36.25.54.3.61.46.9l.3.53c.09.17.19.34.29.51l.32.54c.11.16.21.32.31.48l.34.52h0a28,28,0,0,0,46.25,0h0c.14-.19.26-.39.39-.59s.18-.26.26-.4l.36-.59.25-.44.33-.59.39-.76c.12-.24.23-.48.34-.72s.17-.37.25-.55l.24-.56c.08-.2.16-.4.23-.6s.14-.35.2-.53c.13-.35.25-.7.36-1.06,0-.14.08-.28.12-.41s.16-.53.23-.79l.12-.48c.07-.27.13-.53.18-.79s.07-.29.1-.44q.12-.6.21-1.2l0-.2c0-.36.1-.71.13-1.07,0-.14,0-.28,0-.41,0-.31.06-.62.07-.93l0-.39c0-.43,0-.86,0-1.3A28.32,28.32,0,0,0,55.12,21Zm-6.64-3.38a4.71,4.71,0,0,0-2.63-.68,5.22,5.22,0,0,0-3.4,1.16,9,9,0,0,1-5.55,1.81,8.61,8.61,0,0,1-4.83-1.35V19H29.39a.56.56,0,1,0,0,1.12h2.68v1.68H30.74a.56.56,0,0,0,0,1.12h1.33v1.68h-4a.56.56,0,1,0,0,1.12h4v1.67H29.39a.56.56,0,0,0,0,1.12h2.68v1.68H30.74a.56.56,0,0,0,0,1.12h1.33V33h-4a.56.56,0,0,0,0,1.12h4v1.66H29.39a.56.56,0,1,0,0,1.12h2.68v1.68H30.74a.56.56,0,1,0,0,1.12h1.33v2.56h-4a.56.56,0,0,0,0,1.12h4v1.66H29.39a.57.57,0,0,0-.56.56.56.56,0,0,0,.56.56h2.68v1.68H30.74a.57.57,0,0,0-.56.56.56.56,0,0,0,.56.56h1.33v1.68h-4a.57.57,0,0,0-.56.56.56.56,0,0,0,.56.56h4v1.67h-8L24,51.77a.56.56,0,0,0,.56-.56.57.57,0,0,0-.56-.56V43.39a.56.56,0,1,0,0-1.12V34.13A.56.56,0,1,0,24,33V25.74a.56.56,0,0,0,0-1.12V18.45a8.64,8.64,0,0,1-5,1.46,8.93,8.93,0,0,1-5.54-1.81,5.26,5.26,0,0,0-3.4-1.16,4.72,4.72,0,0,0-2.59.65l-1-1.73a6.62,6.62,0,0,1,3.59-.92,7.15,7.15,0,0,1,4.51,1.5A7.08,7.08,0,0,0,19,17.91a7.12,7.12,0,0,0,4.44-1.47c.18-.13.37-.25.57-.37V9a.56.56,0,0,0,0-1.12v-2a.27.27,0,0,1,.27-.27h7.5a.27.27,0,0,1,.27.27v2h-4a.56.56,0,0,0,0,1.12h4v1.66H29.39a.56.56,0,0,0,0,1.12h2.68v1.68H30.74a.56.56,0,1,0,0,1.12h1.33v1.61l.4.27a7.43,7.43,0,0,0,8.87,0,7.12,7.12,0,0,1,4.51-1.5,6.73,6.73,0,0,1,3.64,1Z"/></g></g></svg>