<svg xmlns="http://www.w3.org/2000/svg" viewBox="0 0 56 56"><defs><style>.cls-1{fill:#fff;}</style></defs><g id="Postive"><path d="M30.38,15.87l-4.23,2.06-1.06,2.45A7.16,7.16,0,0,1,28,19.82a7.42,7.42,0,0,1,4.69,1.56,10.65,10.65,0,0,0,1.51.88l-.05-4.85Z"/><path d="M28,0A28,28,0,1,0,56,28,28,28,0,0,0,28,0Zm4.64,6.75L40.34,10l-2,3.87-7.69-3.28ZM19.63,40a2.23,2.23,0,0,1-1.33,1.08,2.28,2.28,0,0,1-.63.09,2.25,2.25,0,0,1-2.14-1.6A2.22,2.22,0,0,1,17,36.79a2,2,0,0,1,.64-.1,2.24,2.24,0,0,1,2.13,1.6A2.21,2.21,0,0,1,19.63,40Zm7,5a2.2,2.2,0,0,1-1.32,1.07,2.3,2.3,0,0,1-.64.09,2.23,2.23,0,0,1-2-3.29A2.23,2.23,0,1,1,26.58,45Zm-1-9.63a2.23,2.23,0,1,1,2.23-2.22A2.23,2.23,0,0,1,25.53,35.35Zm7.89-7.2a2.23,2.23,0,0,1-2.18,1.78,2.12,2.12,0,0,1-.44,0,2.23,2.23,0,0,1,.44-4.41,2.28,2.28,0,0,1,.45,0,2.22,2.22,0,0,1,1.41,1A2.19,2.19,0,0,1,33.42,28.15ZM46,22.45a5,5,0,0,0-3.24,1.11,9.72,9.72,0,0,1-11.48,0A4.9,4.9,0,0,0,28,22.45a5,5,0,0,0-3.25,1.11,9.21,9.21,0,0,1-5.74,1.88,9.3,9.3,0,0,1-5.74-1.87,4.9,4.9,0,0,0-3.24-1.12,4.4,4.4,0,0,0-2.45.61L6.31,20.78a7.09,7.09,0,0,1,3.76-1,7.42,7.42,0,0,1,4.69,1.56,6.75,6.75,0,0,0,4.29,1.43,6.91,6.91,0,0,0,2.28-.35L24.12,16l6.17-3,6.51,2.63.07,7.17H37a6.7,6.7,0,0,0,4.28-1.43A7.47,7.47,0,0,1,46,19.82a7,7,0,0,1,3.81,1l-1.32,2.27A4.43,4.43,0,0,0,46,22.45Z"/><path d="M25.53,32a1.11,1.11,0,1,0,1.1,1.11A1.11,1.11,0,0,0,25.53,32Z"/><path d="M17.67,37.82a1.17,1.17,0,0,0-.32,0,1.11,1.11,0,1,0,1.37.75A1.1,1.1,0,0,0,17.67,37.82Z"/><path d="M24.62,42.81a1.12,1.12,0,0,0-.31,0A1.1,1.1,0,0,0,24.62,45a1.19,1.19,0,0,0,.32-.05,1.1,1.1,0,0,0-.32-2.16Z"/><path d="M31.46,26.62l-.22,0a1.11,1.11,0,0,0-1.08.88,1.1,1.1,0,0,0,.86,1.3.83.83,0,0,0,.22,0,1.11,1.11,0,0,0,.22-2.19Z"/><path class="cls-1" d="M19.57,32.48a1.2,1.2,0,0,1-.35-2.35,1.41,1.41,0,0,1,.35-.05,1.21,1.21,0,0,1,1.15.86,1.16,1.16,0,0,1-.1.91,1.14,1.14,0,0,1-.71.58,1,1,0,0,1-.34,0Z"/><path d="M19.57,30.49A.79.79,0,0,1,19.79,32a.57.57,0,0,1-.22,0,.81.81,0,0,1-.77-.57.8.8,0,0,1,.54-1,.91.91,0,0,1,.23,0m0-.82a1.77,1.77,0,0,0-.46.07,1.61,1.61,0,0,0,.46,3.15,1.41,1.41,0,0,0,.45-.07,1.55,1.55,0,0,0,1-.77,1.61,1.61,0,0,0-1.41-2.38Z"/><path class="cls-1" d="M22.57,39.08a1.2,1.2,0,0,1-.35-2.35,1.41,1.41,0,0,1,.35,0,1.21,1.21,0,0,1,1.15.86,1.16,1.16,0,0,1-.1.91,1.14,1.14,0,0,1-.71.58,1,1,0,0,1-.34,0Z"/><path d="M22.57,37.09a.79.79,0,0,1,.22,1.55.57.57,0,0,1-.22,0,.81.81,0,0,1-.77-.57.8.8,0,0,1,.54-1,.91.91,0,0,1,.23,0m0-.82a1.77,1.77,0,0,0-.46.07,1.61,1.61,0,0,0,.46,3.15,1.41,1.41,0,0,0,.45-.07,1.55,1.55,0,0,0,1-.77,1.61,1.61,0,0,0-1.41-2.38Z"/><path class="cls-1" d="M25.05,28.63a1.2,1.2,0,0,1-.34-2.36,1.33,1.33,0,0,1,.34-.05,1.21,1.21,0,0,1,1.15.86,1.18,1.18,0,0,1-.09.92,1.19,1.19,0,0,1-.72.58,1.27,1.27,0,0,1-.34.05Z"/><path d="M25.05,26.63a.78.78,0,0,1,.76.57.79.79,0,0,1-.53,1,.91.91,0,0,1-.23,0,.8.8,0,0,1-.22-1.56.83.83,0,0,1,.22,0m0-.81a1.82,1.82,0,0,0-.46.06A1.61,1.61,0,0,0,25.05,29a1.76,1.76,0,0,0,.46-.06,1.65,1.65,0,0,0,1-.78A1.57,1.57,0,0,0,26.59,27a1.61,1.61,0,0,0-1.54-1.15Z"/><path class="cls-1" d="M31.31,34.88A1.2,1.2,0,0,1,31,32.53a1.27,1.27,0,0,1,.34-.05,1.21,1.21,0,0,1,1.06,1.77,1.19,1.19,0,0,1-.72.58,1,1,0,0,1-.34.05Z"/><path d="M31.31,32.89a.79.79,0,0,1,.76.57.78.78,0,0,1-.53,1,.66.66,0,0,1-.23,0,.8.8,0,0,1-.76-.57.79.79,0,0,1,.53-1,.91.91,0,0,1,.23,0m0-.82a1.77,1.77,0,0,0-.46.07,1.61,1.61,0,0,0,.46,3.15,1.47,1.47,0,0,0,.46-.07,1.55,1.55,0,0,0,.95-.77,1.6,1.6,0,0,0,.13-1.23,1.62,1.62,0,0,0-1.54-1.15Z"/><path class="cls-1" d="M27.37,39.94a1.19,1.19,0,0,1-1.06-1.77,1.17,1.17,0,0,1,.71-.58,1.06,1.06,0,0,1,.35-.05,1.21,1.21,0,0,1,1.15.86,1.16,1.16,0,0,1-.1.91,1.17,1.17,0,0,1-.71.58,1.33,1.33,0,0,1-.34,0Z"/><path d="M27.37,37.94a.8.8,0,0,1,.22,1.56.85.85,0,0,1-.22,0A.81.81,0,0,1,26.6,39a.8.8,0,0,1,.54-1,.59.59,0,0,1,.23,0m0-.81a1.43,1.43,0,0,0-.46.07,1.62,1.62,0,0,0-1.09,2,1.63,1.63,0,0,0,1.55,1.15,1.41,1.41,0,0,0,.45-.07,1.58,1.58,0,0,0,1-.77,1.65,1.65,0,0,0,.13-1.23,1.62,1.62,0,0,0-1.54-1.15Z"/><path class="cls-1" d="M14,45.43a1.22,1.22,0,0,1-1.15-.86,1.21,1.21,0,0,1,.81-1.5A1.33,1.33,0,0,1,14,43a1.2,1.2,0,0,1,1.06,1.78,1.2,1.2,0,0,1-.71.58,1.41,1.41,0,0,1-.35,0Z"/><path d="M14,43.43A.8.8,0,0,1,14.22,45,.85.85,0,0,1,14,45a.79.79,0,0,1-.76-.57.81.81,0,0,1,.54-1,.83.83,0,0,1,.22,0m0-.81a1.74,1.74,0,0,0-.45.06A1.61,1.61,0,0,0,14,45.83a1.76,1.76,0,0,0,.46-.06,1.65,1.65,0,0,0,1-.78A1.6,1.6,0,0,0,14,42.62Z"/><path class="cls-1" d="M22.39,49.8a1.22,1.22,0,0,1-1.15-.86,1.21,1.21,0,0,1,.81-1.5,1.33,1.33,0,0,1,.34,0,1.2,1.2,0,0,1,1.06,1.78,1.2,1.2,0,0,1-.71.58,1.41,1.41,0,0,1-.35,0Z"/><path d="M22.39,47.8a.8.8,0,0,1,.23,1.56.85.85,0,0,1-.23,0,.79.79,0,0,1-.76-.57.81.81,0,0,1,.54-1,.83.83,0,0,1,.22,0m0-.81a1.74,1.74,0,0,0-.45.06,1.61,1.61,0,0,0,.45,3.15,1.76,1.76,0,0,0,.46-.06A1.61,1.61,0,0,0,22.39,47Z"/><path class="cls-1" d="M17.42,48.68a1.2,1.2,0,0,1-1.15-.86,1.16,1.16,0,0,1,.1-.91,1.17,1.17,0,0,1,.71-.58,1.33,1.33,0,0,1,.34,0,1.19,1.19,0,0,1,1.06,1.77,1.16,1.16,0,0,1-.72.58,1,1,0,0,1-.34,0Z"/><path d="M17.42,46.69a.8.8,0,0,1,.77.57.79.79,0,0,1-.54,1,.62.62,0,0,1-.23,0,.8.8,0,0,1-.22-1.56.83.83,0,0,1,.22,0m0-.82a1.69,1.69,0,0,0-.45.07,1.61,1.61,0,0,0,.45,3.15,1.43,1.43,0,0,0,.46-.07,1.6,1.6,0,0,0,1-.77,1.61,1.61,0,0,0-1.42-2.38Z"/><path class="cls-1" d="M19.48,45.51a1.21,1.21,0,0,1-1.06-1.77,1.19,1.19,0,0,1,.72-.58,1,1,0,0,1,.34,0,1.21,1.21,0,0,1,1.06,1.77,1.19,1.19,0,0,1-.72.58,1,1,0,0,1-.34,0Z"/><path d="M19.48,43.51a.8.8,0,0,1,.76.57.78.78,0,0,1-.53,1,.66.66,0,0,1-.23,0,.8.8,0,0,1-.76-.57.79.79,0,0,1,.53-1,.66.66,0,0,1,.23,0m0-.81a1.47,1.47,0,0,0-.46.07,1.61,1.61,0,0,0,.46,3.15,1.47,1.47,0,0,0,.46-.07,1.61,1.61,0,0,0,1.08-2,1.61,1.61,0,0,0-1.54-1.15Z"/><path class="cls-1" d="M21.79,29.31a1.21,1.21,0,0,1-1.15-.86,1.16,1.16,0,0,1,.1-.91,1.14,1.14,0,0,1,.71-.58,1,1,0,0,1,.34-.05,1.19,1.19,0,0,1,1.06,1.77,1.17,1.17,0,0,1-.71.58,1.06,1.06,0,0,1-.35,0Z"/><path d="M21.79,27.31a.81.81,0,0,1,.77.57.8.8,0,0,1-.54,1,.59.59,0,0,1-.23,0,.8.8,0,0,1-.22-1.56.57.57,0,0,1,.22,0m0-.81a1.41,1.41,0,0,0-.45.07,1.61,1.61,0,0,0,.45,3.15,1.43,1.43,0,0,0,.46-.07,1.6,1.6,0,0,0,1.09-2,1.62,1.62,0,0,0-1.55-1.15Z"/></g></svg>