<svg xmlns="http://www.w3.org/2000/svg" viewBox="0 0 48 48"><defs><style>.cls-1{fill:#fff;}</style></defs><g id="Layer_2" data-name="Layer 2"><g id="Postive"><circle class="cls-1" cx="24" cy="24" r="24"/><path d="M43.56,19a20.05,20.05,0,0,0-5.28-9.23,19.73,19.73,0,0,0-3-2.47,21.05,21.05,0,0,0-2.53-1.46,20.21,20.21,0,0,0-27,27,21.05,21.05,0,0,0,1.46,2.53,19.73,19.73,0,0,0,2.47,3A20.2,20.2,0,0,0,43.56,19ZM39.62,31.3l-2.91,1h0l-1.78-.86a.2.2,0,0,1-.09-.09L33.94,30A.24.24,0,0,1,34,29.7L35.11,29a.26.26,0,0,1,.24,0l1.42.69a.31.31,0,0,0,.19,0L38.81,29a1.22,1.22,0,0,1,.81,2.31ZM22.18,10.53a.67.67,0,0,1,0,1.29Zm-11.83,15a.67.67,0,0,1-.67.67.78.78,0,0,1-.31-.07l.9-.9A.61.61,0,0,1,10.35,25.56ZM7.66,27.87l1.13-1.13a1.43,1.43,0,0,0,.89.3,1.48,1.48,0,0,0,1.17-2.37l.23-.22h0l1.06-1.06a.25.25,0,0,1,.42.19l-.11,1.21a.24.24,0,0,0,.17.25l.61.22a.25.25,0,0,1,.1.4L13,26a.25.25,0,0,0,0,.34l.86.86a1.22,1.22,0,0,1,0,1.73h0a1.22,1.22,0,0,1-1.73,0l-.86-.86a.25.25,0,0,0-.34,0L9.39,29.6a1.22,1.22,0,0,1-1.73-1.73Zm12.71,1.07L19.43,28a.69.69,0,0,1,.41-.15.67.67,0,0,1,.67.67A.64.64,0,0,1,20.37,28.94Zm2.33,2.33-1.76-1.75a1.48,1.48,0,0,0-2.08-2.09l-2.37-2.37a.23.23,0,0,1-.06-.25l.31-.82a.23.23,0,0,1,.25-.16l1.8.15a.26.26,0,0,1,.15.07l1.4,1.41a.26.26,0,0,0,.35,0L22.18,24v-1.4L21.61,22a1.48,1.48,0,0,0-1.13-2.43,1.49,1.49,0,0,0-1,.35l-1.29-1.29-.45.45a1.22,1.22,0,0,1-1.73-1.73l.45-.46-2.95-2.94a1.23,1.23,0,0,1,1.73-1.74l.71.71a.23.23,0,0,0,.34,0l.31-.3a1.22,1.22,0,0,1,1.73,0,1.24,1.24,0,0,1,0,1.73l-.31.3a.26.26,0,0,0,0,.35l3.7,3.7a.25.25,0,0,0,.42-.18V12.64a1.48,1.48,0,0,0,0-2.93V9.05a1.23,1.23,0,0,1,2.45,0v2.13h.64a1.22,1.22,0,0,1,1.22,1.22h0a1.22,1.22,0,0,1-1.22,1.22h-.64V15.4h0a1.48,1.48,0,0,0,0,3h0v6.51a.24.24,0,0,1-.07.18l-2.14,2.14a.25.25,0,0,0,0,.34l1.41,1.41a.23.23,0,0,0,.34,0l3.73-3.73A.22.22,0,0,0,28,25V24A1.48,1.48,0,0,0,28,21v-5.6a1.23,1.23,0,1,1,2.45,0v4.78a.25.25,0,0,0,.42.18L32.5,18.7a.22.22,0,0,0,.07-.17V15.29h0a1.48,1.48,0,1,0,0-2.95h0v-.55a1.23,1.23,0,1,1,2.45,0v4.92h.65a1.22,1.22,0,0,1,1.22,1.23h0a1.22,1.22,0,0,1-1.22,1.22H35v.37a.24.24,0,0,1-.07.18l-4.46,4.47a.24.24,0,0,0-.07.17l0,1.69a.23.23,0,0,1-.07.17l-1,1.05.46.46a1.22,1.22,0,0,1,0,1.73h0a1.22,1.22,0,0,1-1.73,0L27.56,29l-1.83,1.84-.51.51v1.8a.25.25,0,0,0,.25.25h2.32a.25.25,0,0,0,.17-.08l2.11-2.1a.25.25,0,0,1,.41.11l.28,1.11a.24.24,0,0,0,.18.17l.54.13a.24.24,0,0,1,.11.41L29,35.77a.22.22,0,0,1-.17.07H25.22l.44,4.32H22.33l.44-8.7A.26.26,0,0,0,22.7,31.27ZM21,21.42l-.93-.93a.64.64,0,0,1,.38-.12.67.67,0,0,1,.67.67A.64.64,0,0,1,21,21.42Zm11.54-8.27h0a.68.68,0,0,1,0,1.35h0ZM28,21.83a.66.66,0,0,1,.58.66.67.67,0,0,1-.58.66Zm-3.34-4.28h0a.67.67,0,0,1,0-1.34h0Z"/></g></g></svg>