<svg xmlns="http://www.w3.org/2000/svg" viewBox="0 0 48 48"><defs><style>.cls-1{fill:#fff;}.cls-2{fill:none;}</style></defs><g id="Postive"><circle class="cls-1" cx="24" cy="24" r="24"/><path class="cls-2" d="M14.57,24.91a.58.58,0,0,0-.55-.42.41.41,0,0,0-.16,0,.57.57,0,0,0-.39.71.58.58,0,0,0,.55.42.45.45,0,0,0,.16,0A.57.57,0,0,0,14.57,24.91Z"/><polygon class="cls-2" points="26.91 25.99 24.66 27.34 25.32 29.99 22.27 37.13 15.89 34.44 16.82 32.22 21.55 34.28 21.87 33.53 17.14 31.47 17.92 29.59 22.49 31.42 22.79 30.66 18.24 28.84 18.87 27.34 21.32 25.83 20.34 22.94 18.55 23.55 19.04 25.01 17.35 26.05 13.41 35.45 23.27 39.61 27.31 30.15 26.84 28.24 28.39 27.32 29.8 24.17 28.07 23.39 26.91 25.99"/><path class="cls-2" d="M11,26.59a1.61,1.61,0,1,0,1.61,1.61A1.61,1.61,0,0,0,11,26.59ZM11,29a.79.79,0,0,1-.8-.79.8.8,0,1,1,1.6,0A.79.79,0,0,1,11,29Z"/><rect class="cls-2" x="24.74" y="23.55" width="2.46" height="0.81" transform="translate(-7.42 35.5) rotate(-61.77)"/><path class="cls-2" d="M8.51,23.81a.45.45,0,0,0-.16,0A.57.57,0,0,0,8.51,25a.44.44,0,0,0,.16,0,.57.57,0,0,0,.39-.71A.58.58,0,0,0,8.51,23.81Z"/><path class="cls-2" d="M40.2,28.46a.44.44,0,0,0-.16,0,.57.57,0,0,0-.39.71.58.58,0,0,0,.55.42.41.41,0,0,0,.16,0,.57.57,0,0,0-.16-1.12Z"/><polygon class="cls-2" points="32.91 11.02 27.35 8.65 25.94 11.45 31.5 13.81 32.91 11.02"/><path class="cls-2" d="M36,30.58a1.61,1.61,0,1,0,1.61,1.61A1.61,1.61,0,0,0,36,30.58ZM36,33a.8.8,0,0,1,0-1.6A.8.8,0,0,1,36,33Z"/><path class="cls-2" d="M35.83,29a1.61,1.61,0,1,0-1.61-1.61A1.61,1.61,0,0,0,35.83,29Zm0-2.4a.79.79,0,0,1,.8.79.8.8,0,1,1-1.6,0A.79.79,0,0,1,35.83,26.62Z"/><path class="cls-2" d="M32.9,29.45a.5.5,0,0,0-.17,0,.58.58,0,0,0-.38.72.57.57,0,0,0,.55.41.45.45,0,0,0,.16,0,.57.57,0,0,0,.39-.71A.58.58,0,0,0,32.9,29.45Z"/><path class="cls-2" d="M37,18.1a5.4,5.4,0,0,0-3.39,1.12,4.9,4.9,0,0,1-3.1,1H30.4l0-5.18-4.71-1.91L21.2,15.33l-2,4.67a5,5,0,0,1-1.64.25,4.9,4.9,0,0,1-3.1-1,5.4,5.4,0,0,0-3.39-1.12,5,5,0,0,0-2.71.69l.94,1.64A3.23,3.23,0,0,1,11.05,20a3.54,3.54,0,0,1,2.34.81,6.75,6.75,0,0,0,4.15,1.35,6.69,6.69,0,0,0,4.14-1.35,3.8,3.8,0,0,1,4.69,0,7,7,0,0,0,8.29,0A3.54,3.54,0,0,1,37,20a3.31,3.31,0,0,1,1.8.46l1-1.64A5.12,5.12,0,0,0,37,18.1Zm-9.58,1.12A5.4,5.4,0,0,0,24,18.1a5.18,5.18,0,0,0-2.13.4l.76-1.77,3.06-1.49,2.75,1.11,0,3.5A8.24,8.24,0,0,1,27.42,19.22Z"/><path d="M24,3.78A20.22,20.22,0,1,0,44.22,24,20.22,20.22,0,0,0,24,3.78Zm16.36,25.8a.41.41,0,0,1-.16,0,.58.58,0,0,1-.55-.42.57.57,0,0,1,.39-.71.44.44,0,0,1,.16,0,.57.57,0,0,1,.16,1.12Zm-13-20.93L32.91,11,31.5,13.81l-5.56-2.37ZM8.67,24.94a.44.44,0,0,1-.16,0,.57.57,0,0,1-.16-1.12.45.45,0,0,1,.16,0,.58.58,0,0,1,.55.42A.57.57,0,0,1,8.67,24.94ZM11,29.81a1.61,1.61,0,1,1,1.61-1.61A1.62,1.62,0,0,1,11,29.81Zm2.43-4.58a.57.57,0,0,1,.39-.71.41.41,0,0,1,.16,0,.58.58,0,0,1,.55.42.57.57,0,0,1-.39.71.45.45,0,0,1-.16,0A.58.58,0,0,1,13.47,25.23Zm14.92,2.09-1.55.92.47,1.91-4,9.46-9.87-4.16,3.94-9.4L19,25l-.49-1.46,1.8-.61,1,2.89-2.45,1.51-.63,1.51,4.55,1.81-.3.76-4.57-1.83-.78,1.88,4.73,2.07-.33.74-4.72-2.06-.93,2.22,6.38,2.69L25.32,30l-.67-2.65L26.91,26l1.16-2.6,1.73.78ZM25,24.85l1.16-2.17.72.39-1.17,2.16Zm8,5.72a.45.45,0,0,1-.16,0,.57.57,0,0,1-.55-.41.58.58,0,0,1,.38-.72.5.5,0,0,1,.17,0,.58.58,0,0,1,.55.41A.57.57,0,0,1,33.06,30.57ZM36,33.8a1.61,1.61,0,1,1,1.61-1.61A1.61,1.61,0,0,1,36,33.8Zm-1.77-6.39A1.61,1.61,0,1,1,35.83,29,1.62,1.62,0,0,1,34.22,27.41ZM37,20a3.54,3.54,0,0,0-2.34.81,7,7,0,0,1-8.29,0,3.8,3.8,0,0,0-4.69,0,6.69,6.69,0,0,1-4.14,1.35,6.75,6.75,0,0,1-4.15-1.35A3.54,3.54,0,0,0,11.05,20a3.23,3.23,0,0,0-1.77.44l-.94-1.64a5,5,0,0,1,2.71-.69,5.4,5.4,0,0,1,3.39,1.12,4.9,4.9,0,0,0,3.1,1A5,5,0,0,0,19.18,20l2-4.67,4.45-2.17,4.71,1.91,0,5.18h.11a4.9,4.9,0,0,0,3.1-1A5.4,5.4,0,0,1,37,18.1a5.12,5.12,0,0,1,2.75.71l-1,1.64A3.31,3.31,0,0,0,37,20Z"/><path d="M25.72,15.24l-3.06,1.49L21.9,18.5A5.18,5.18,0,0,1,24,18.1a5.4,5.4,0,0,1,3.39,1.12,8.24,8.24,0,0,0,1.08.63l0-3.5Z"/><circle cx="35.99" cy="32.19" r="0.8"/><circle cx="35.83" cy="27.41" r="0.8"/><path d="M11,27.4a.8.8,0,0,0-.8.8.8.8,0,0,0,1.6,0A.8.8,0,0,0,11,27.4Z"/></g></svg>