<svg xmlns="http://www.w3.org/2000/svg" viewBox="0 0 56 56"><defs><style>.cls-1{fill:none;stroke:#000;stroke-miterlimit:10;}</style></defs><g id="Postive"><rect x="12.2" y="10.21" width="6.08" height="0.99" rx="0.19"/><rect x="12.2" y="11.73" width="6.08" height="0.99" rx="0.19"/><rect x="6.64" y="22.94" width="3.61" height="0.99" rx="0.19"/><rect x="6.64" y="21.41" width="3.61" height="0.99" rx="0.19"/><rect x="6.64" y="24.47" width="3.61" height="0.99" rx="0.19"/><rect x="6.64" y="27.53" width="3.61" height="0.99" rx="0.19"/><rect x="22.88" y="21.4" width="9.26" height="0.99" rx="0.21"/><rect x="22.88" y="19.87" width="9.26" height="0.99" rx="0.21"/><rect x="22.88" y="16.81" width="9.26" height="0.99" rx="0.21"/><rect x="6.64" y="26" width="3.61" height="0.99" rx="0.19"/><rect x="22.88" y="18.34" width="9.26" height="0.99" rx="0.21"/><path d="M55.12,21A28,28,0,0,0,35,.88,28.32,28.32,0,0,0,28,0,27.87,27.87,0,0,0,15.86,2.76a29.15,29.15,0,0,0-3.52,2A28.82,28.82,0,0,0,8.2,8.2,28,28,0,0,0,.88,21,28.32,28.32,0,0,0,0,28c0,.49,0,1,0,1.47a2.45,2.45,0,0,0,0,.27c0,.4.05.8.09,1.19l0,.2c.05.42.1.84.16,1.25,0,0,0,0,0,.08A27.73,27.73,0,0,0,3.76,42c.46.79,1,1.55,1.48,2.29s1,1.39,1.61,2h0A28,28,0,0,0,42,52.22c.49-.28,1-.58,1.44-.89h0a28.07,28.07,0,0,0,9.2-10.1h0c.21-.39.41-.79.6-1.19l0-.07c.18-.38.35-.76.52-1.15,0-.05,0-.1,0-.14.15-.37.3-.74.44-1.12l.07-.22c.13-.35.25-.71.36-1.07l.09-.31c.1-.33.19-.66.28-1,0-.14.06-.28.1-.42l.21-.93.09-.52c0-.28.11-.56.15-.84l.09-.67.09-.72.06-.84c0-.19,0-.38,0-.58,0-.47,0-.95,0-1.43A28.32,28.32,0,0,0,55.12,21ZM22.05,15H33V38.08H22.05ZM11.25,8.18h8V20.94H16.8V38.08H12.37V18.48H11.25Zm9.68,13.88v16h-3v-16ZM5.65,19.6h5.6V38.08H5.65ZM28,54.13A26.18,26.18,0,0,1,4.39,39.2H35.77A8.48,8.48,0,0,0,35,42.75a8.59,8.59,0,0,0,5.7,8.08A26,26,0,0,1,28,54.13Zm15.4-5h-.32A5.89,5.89,0,0,1,41.9,37.46a5.83,5.83,0,0,1,1.18-.12.56.56,0,0,1,0,1.12,5.2,5.2,0,0,0-1,.09,4.77,4.77,0,0,0,1,9.44,2.5,2.5,0,0,0,1.63-.55,3.8,3.8,0,0,1,1.43-.65A27.44,27.44,0,0,1,43.4,49.1Zm4-3.59a3.09,3.09,0,0,0-.45,0A2.58,2.58,0,0,0,45.3,46a3.52,3.52,0,0,1-2.24.74,3.48,3.48,0,0,1-3.47-3.47A3.63,3.63,0,0,1,41.69,40a.56.56,0,0,1,.74.27.56.56,0,0,1-.27.75,2.49,2.49,0,0,0-1.45,2.27,2.35,2.35,0,0,0,2.35,2.35,2.48,2.48,0,0,0,1.62-.55,3.58,3.58,0,0,1,2.25-.74,3.67,3.67,0,0,1,1.26.21C47.93,44.89,47.66,45.21,47.38,45.51Z"/><line class="cls-1" x1="8.25" y1="45.25" x2="35.89" y2="45.25"/><line class="cls-1" x1="8.97" y1="47.05" x2="36.61" y2="47.05"/><line class="cls-1" x1="10.77" y1="48.85" x2="38.41" y2="48.85"/></g></svg>