<svg xmlns="http://www.w3.org/2000/svg" viewBox="0 0 56 56"><g id="Postive"><path d="M18.05,28a1.82,1.82,0,0,1-.57,1.35,3.39,3.39,0,0,1-2.33.63,10.17,10.17,0,0,1-1.35-.08V23.29a8.43,8.43,0,0,1,1.59-.14,2.79,2.79,0,0,1,1.85.49,1.41,1.41,0,0,1,.56,1.19,1.6,1.6,0,0,1-1.14,1.48v0A1.74,1.74,0,0,1,18.05,28Zm-2.59-2c.92,0,1.46-.48,1.46-1.13s-.6-1.1-1.48-1.1a3.73,3.73,0,0,0-.77.06v2.17Zm1.67,2c0-.92-.79-1.3-1.74-1.3h-.72v2.57a4.65,4.65,0,0,0,.73,0C16.3,29.32,17.13,29,17.13,28Z"/><path d="M55.12,21A27.89,27.89,0,0,0,47.8,8.2a27.85,27.85,0,0,0-7.66-5.44A27.87,27.87,0,0,0,28,0a28.24,28.24,0,0,0-7,.88,27.75,27.75,0,0,0-7.74,3.31A28,28,0,0,0,1.34,36.57a27.69,27.69,0,0,0,1.43,3.57,27.19,27.19,0,0,0,2,3.52A27.66,27.66,0,0,0,8.21,47.8,28,28,0,0,0,55.12,21ZM39.89,13h0a.93.93,0,0,1,0,1.86h0ZM33.51,25a.92.92,0,0,1,.81.91.93.93,0,0,1-.81.92Zm-8-15.65a.92.92,0,0,1,0,1.77Zm0,2.92a2.05,2.05,0,0,0,0-4.07V7.28a1.7,1.7,0,0,1,3.4,0v2.94h.88a1.7,1.7,0,0,1,0,3.4h-.88v2.46h0a2.05,2.05,0,0,0,0,4.1h0v9a.31.31,0,0,1-.1.24L26.7,31.53l-1.22-3h0V12.26Zm3.4,4.94v1.86h0a.93.93,0,0,1,0-1.86ZM7.74,33.28,16,13,24.2,33.28Zm16.32-9.39a1,1,0,0,1-.17.53ZM16,5l-.05.12L16,5ZM38.53,40.69,34.9,44.32a.37.37,0,0,1-.24.1h-5l.61,6H25.7l-.12-12.06a.35.35,0,0,0-.1-.26V36.26h3.14l-.55-1.34-.69-1.7.69,1.7a.29.29,0,0,0,.18-.07l5.16-5.17a.31.31,0,0,0,.1-.24V28a2,2,0,0,0,0-4.09V16.09a1.7,1.7,0,0,1,3.39,0v6.63a.34.34,0,0,0,.58.24l2.31-2.3a.35.35,0,0,0,.1-.24V15.93h0a2,2,0,1,0,0-4.1h0v-.77a1.7,1.7,0,0,1,3.39,0V17.9h.9a1.7,1.7,0,0,1,0,3.4h-.9v.51a.31.31,0,0,1-.1.24L37,28.24a.37.37,0,0,0-.1.24l0,2.35a.34.34,0,0,1-.1.23l-1.45,1.46.63.63a1.7,1.7,0,0,1,0,2.4,1.68,1.68,0,0,1-2.4,0l-.62-.61-2.53,2.55-.71.7v2.5A.34.34,0,0,0,30,41h3.21a.35.35,0,0,0,.24-.1L36.41,38a.34.34,0,0,1,.57.15l.4,1.54a.32.32,0,0,0,.25.24l.74.18A.34.34,0,0,1,38.53,40.69Zm11.12-2.57-4,1.41-2.47-1.19a.41.41,0,0,1-.14-.12l-1.24-1.85a.34.34,0,0,1,.09-.47l1.54-1a.33.33,0,0,1,.33,0l2,.95a.33.33,0,0,0,.26,0l2.56-.9a1.7,1.7,0,1,1,1.12,3.2Z"/></g></svg>