<svg xmlns="http://www.w3.org/2000/svg" viewBox="0 0 150.04 150.1" width="55.6" height="55.6"><title>trash</title><g id="Layer_2" data-name="Layer 2"><g id="Postive"><path d="M147.68,56.36A75,75,0,0,0,0,75a75,75,0,0,0,137.23,42,75.66,75.66,0,0,0,5.42-9.42,75.37,75.37,0,0,0,5-51.26ZM120.14,41.47V45.1H116.5V41.47Zm-40,93.8H69a2.08,2.08,0,0,0,0-.25l-6.5-65h24.2l-6.5,65A2.08,2.08,0,0,0,80.18,135.27ZM46,70H57.45L64,135.27H52.5Zm1.89,65.24H40.68l-3.63-2.41.37-6.37L42,122.3,47,126.18ZM91.71,70H104L97.5,135.27H85.18Zm11.23,60.43,2.08-3.83,3.65-1.22,2.5,3.58-.88,6.28h-7.82ZM37.67,65V55.18h74.74V65ZM72,26l-5.84,2.21-4,8.78a1.5,1.5,0,0,0,2.73,1.23l3.46-7.64L90,22.43l13.68,13.11,3.88,14.64-62.34,0-1.6-5.52L49,36.72l7.85-12.9Zm-11.8-8.32,2.57-2.58,2.57,2.58-2.57,2.57ZM33.81,30.1v3.64H30.17V30.1Z"/></g></g></svg>